%FSLAX34Y34*%
%MOMM*%
%LNCOPPER_TOP*%
G71*
G01*
%ADD10C,1.560*%
%ADD11C,2.100*%
%ADD12C,1.000*%
%ADD13C,0.630*%
%ADD14C,0.400*%
%ADD15R,7.800X1.600*%
%ADD16C,0.222*%
%LPD*%
X279400Y939800D02*
G54D10*
D03*
X279400Y965200D02*
G54D10*
D03*
X279400Y914400D02*
G54D10*
D03*
X279400Y889000D02*
G54D10*
D03*
X279400Y863600D02*
G54D10*
D03*
X279400Y838200D02*
G54D10*
D03*
X279400Y812800D02*
G54D10*
D03*
X279400Y787400D02*
G54D10*
D03*
X355600Y939800D02*
G54D10*
D03*
X355600Y965200D02*
G54D10*
D03*
X355600Y914400D02*
G54D10*
D03*
X355600Y889000D02*
G54D10*
D03*
X355600Y863600D02*
G54D10*
D03*
X355600Y838200D02*
G54D10*
D03*
X355600Y812800D02*
G54D10*
D03*
X355600Y787400D02*
G54D10*
D03*
X546100Y939800D02*
G54D10*
D03*
X546100Y965200D02*
G54D10*
D03*
X546100Y914400D02*
G54D10*
D03*
X546100Y889000D02*
G54D10*
D03*
X546100Y863600D02*
G54D10*
D03*
X546100Y838200D02*
G54D10*
D03*
X546100Y812800D02*
G54D10*
D03*
X622300Y939800D02*
G54D10*
D03*
X622300Y965200D02*
G54D10*
D03*
X622300Y914400D02*
G54D10*
D03*
X622300Y889000D02*
G54D10*
D03*
X622300Y863600D02*
G54D10*
D03*
X622300Y838200D02*
G54D10*
D03*
X622300Y812800D02*
G54D10*
D03*
X863600Y939800D02*
G54D10*
D03*
X863600Y965200D02*
G54D10*
D03*
X863600Y914400D02*
G54D10*
D03*
X863600Y889000D02*
G54D10*
D03*
X863600Y863600D02*
G54D10*
D03*
X863600Y838200D02*
G54D10*
D03*
X863600Y812800D02*
G54D10*
D03*
X939800Y939800D02*
G54D10*
D03*
X939800Y965200D02*
G54D10*
D03*
X939800Y914400D02*
G54D10*
D03*
X939800Y889000D02*
G54D10*
D03*
X939800Y863600D02*
G54D10*
D03*
X939800Y838200D02*
G54D10*
D03*
X939800Y812800D02*
G54D10*
D03*
X692150Y939800D02*
G54D10*
D03*
X692150Y965200D02*
G54D10*
D03*
X692150Y914400D02*
G54D10*
D03*
X692150Y889000D02*
G54D10*
D03*
X692150Y863600D02*
G54D10*
D03*
X692150Y838200D02*
G54D10*
D03*
X692150Y812800D02*
G54D10*
D03*
X768350Y939800D02*
G54D10*
D03*
X768350Y965200D02*
G54D10*
D03*
X768350Y914400D02*
G54D10*
D03*
X768350Y889000D02*
G54D10*
D03*
X768350Y863600D02*
G54D10*
D03*
X768350Y838200D02*
G54D10*
D03*
X768350Y812800D02*
G54D10*
D03*
X393700Y762000D02*
G54D10*
D03*
X393700Y736600D02*
G54D10*
D03*
X393700Y711200D02*
G54D10*
D03*
X393700Y685800D02*
G54D10*
D03*
X393700Y660400D02*
G54D10*
D03*
X393700Y635000D02*
G54D10*
D03*
X393700Y609600D02*
G54D10*
D03*
X393700Y584200D02*
G54D10*
D03*
X393700Y558800D02*
G54D10*
D03*
X393700Y533400D02*
G54D10*
D03*
X393700Y508000D02*
G54D10*
D03*
X393700Y482600D02*
G54D10*
D03*
X393700Y457200D02*
G54D10*
D03*
X393700Y431800D02*
G54D10*
D03*
X546100Y762000D02*
G54D10*
D03*
X546100Y736600D02*
G54D10*
D03*
X546100Y711200D02*
G54D10*
D03*
X546100Y685800D02*
G54D10*
D03*
X546100Y660400D02*
G54D10*
D03*
X546100Y635000D02*
G54D10*
D03*
X546100Y609600D02*
G54D10*
D03*
X546100Y584200D02*
G54D10*
D03*
X546100Y558800D02*
G54D10*
D03*
X546100Y533400D02*
G54D10*
D03*
X546100Y508000D02*
G54D10*
D03*
X546100Y482600D02*
G54D10*
D03*
X546100Y457200D02*
G54D10*
D03*
X546100Y431800D02*
G54D10*
D03*
X584200Y723900D02*
G54D10*
D03*
X584200Y698500D02*
G54D10*
D03*
X584200Y673100D02*
G54D10*
D03*
X584200Y647700D02*
G54D10*
D03*
X584200Y622300D02*
G54D10*
D03*
X584200Y596900D02*
G54D10*
D03*
X584200Y571500D02*
G54D10*
D03*
X584200Y546100D02*
G54D10*
D03*
X584200Y520700D02*
G54D10*
D03*
X584200Y495300D02*
G54D10*
D03*
X660400Y723900D02*
G54D10*
D03*
X660400Y698500D02*
G54D10*
D03*
X660400Y673100D02*
G54D10*
D03*
X660400Y647700D02*
G54D10*
D03*
X660400Y622300D02*
G54D10*
D03*
X660400Y596900D02*
G54D10*
D03*
X660400Y571500D02*
G54D10*
D03*
X660400Y546100D02*
G54D10*
D03*
X660400Y520700D02*
G54D10*
D03*
X660400Y495300D02*
G54D10*
D03*
X679450Y723900D02*
G54D10*
D03*
X679450Y698500D02*
G54D10*
D03*
X679450Y673100D02*
G54D10*
D03*
X679450Y647700D02*
G54D10*
D03*
X679450Y622300D02*
G54D10*
D03*
X679450Y596900D02*
G54D10*
D03*
X679450Y571500D02*
G54D10*
D03*
X679450Y546100D02*
G54D10*
D03*
X679450Y520700D02*
G54D10*
D03*
X679450Y495300D02*
G54D10*
D03*
X755650Y723900D02*
G54D10*
D03*
X755650Y698500D02*
G54D10*
D03*
X755650Y673100D02*
G54D10*
D03*
X755650Y647700D02*
G54D10*
D03*
X755650Y622300D02*
G54D10*
D03*
X755650Y596900D02*
G54D10*
D03*
X755650Y571500D02*
G54D10*
D03*
X755650Y546100D02*
G54D10*
D03*
X755650Y520700D02*
G54D10*
D03*
X755650Y495300D02*
G54D10*
D03*
X819150Y774700D02*
G54D10*
D03*
X819150Y749300D02*
G54D10*
D03*
X819150Y723900D02*
G54D10*
D03*
X819150Y698500D02*
G54D10*
D03*
X819150Y673100D02*
G54D10*
D03*
X819150Y647700D02*
G54D10*
D03*
X819150Y622300D02*
G54D10*
D03*
X819150Y596900D02*
G54D10*
D03*
X819150Y571500D02*
G54D10*
D03*
X819150Y546100D02*
G54D10*
D03*
X819150Y520700D02*
G54D10*
D03*
X819150Y495300D02*
G54D10*
D03*
X819150Y469900D02*
G54D10*
D03*
X819150Y444500D02*
G54D10*
D03*
X971550Y774700D02*
G54D10*
D03*
X971550Y749300D02*
G54D10*
D03*
X971550Y723900D02*
G54D10*
D03*
X971550Y698500D02*
G54D10*
D03*
X971550Y673100D02*
G54D10*
D03*
X971550Y647700D02*
G54D10*
D03*
X971550Y622300D02*
G54D10*
D03*
X971550Y596900D02*
G54D10*
D03*
X971550Y571500D02*
G54D10*
D03*
X971550Y546100D02*
G54D10*
D03*
X971550Y520700D02*
G54D10*
D03*
X971550Y495300D02*
G54D10*
D03*
X971550Y469900D02*
G54D10*
D03*
X971550Y444500D02*
G54D10*
D03*
X1003300Y774700D02*
G54D10*
D03*
X1003300Y749300D02*
G54D10*
D03*
X1003300Y723900D02*
G54D10*
D03*
X1003300Y698500D02*
G54D10*
D03*
X1003300Y673100D02*
G54D10*
D03*
X1003300Y647700D02*
G54D10*
D03*
X1003300Y622300D02*
G54D10*
D03*
X1003300Y596900D02*
G54D10*
D03*
X1003300Y571500D02*
G54D10*
D03*
X1003300Y546100D02*
G54D10*
D03*
X1003300Y520700D02*
G54D10*
D03*
X1003300Y495300D02*
G54D10*
D03*
X1003300Y469900D02*
G54D10*
D03*
X1003300Y444500D02*
G54D10*
D03*
X1155700Y774700D02*
G54D10*
D03*
X1155700Y749300D02*
G54D10*
D03*
X1155700Y723900D02*
G54D10*
D03*
X1155700Y698500D02*
G54D10*
D03*
X1155700Y673100D02*
G54D10*
D03*
X1155700Y647700D02*
G54D10*
D03*
X1155700Y622300D02*
G54D10*
D03*
X1155700Y596900D02*
G54D10*
D03*
X1155700Y571500D02*
G54D10*
D03*
X1155700Y546100D02*
G54D10*
D03*
X1155700Y520700D02*
G54D10*
D03*
X1155700Y495300D02*
G54D10*
D03*
X1155700Y469900D02*
G54D10*
D03*
X1155700Y444500D02*
G54D10*
D03*
X1066800Y939800D02*
G54D10*
D03*
X1066800Y965200D02*
G54D10*
D03*
X1066800Y914400D02*
G54D10*
D03*
X1066800Y889000D02*
G54D10*
D03*
X1066800Y863600D02*
G54D10*
D03*
X1066800Y838200D02*
G54D10*
D03*
X1066800Y812800D02*
G54D10*
D03*
X1143000Y939800D02*
G54D10*
D03*
X1143000Y965200D02*
G54D10*
D03*
X1143000Y914400D02*
G54D10*
D03*
X1143000Y889000D02*
G54D10*
D03*
X1143000Y863600D02*
G54D10*
D03*
X1143000Y838200D02*
G54D10*
D03*
X1143000Y812800D02*
G54D10*
D03*
X1193800Y914400D02*
G54D10*
D03*
X1193800Y889000D02*
G54D10*
D03*
X1193800Y863600D02*
G54D10*
D03*
X1193800Y838200D02*
G54D10*
D03*
X1193800Y812800D02*
G54D10*
D03*
X1193800Y787400D02*
G54D10*
D03*
X1193800Y762000D02*
G54D10*
D03*
X1193800Y736600D02*
G54D10*
D03*
X1193800Y711200D02*
G54D10*
D03*
X1193800Y685800D02*
G54D10*
D03*
X1193800Y660400D02*
G54D10*
D03*
X1193800Y635000D02*
G54D10*
D03*
X1193800Y609600D02*
G54D10*
D03*
X1193800Y584200D02*
G54D10*
D03*
X1346200Y914400D02*
G54D10*
D03*
X1346200Y889000D02*
G54D10*
D03*
X1346200Y863600D02*
G54D10*
D03*
X1346200Y838200D02*
G54D10*
D03*
X1346200Y812800D02*
G54D10*
D03*
X1346200Y787400D02*
G54D10*
D03*
X1346200Y762000D02*
G54D10*
D03*
X1346200Y736600D02*
G54D10*
D03*
X1346200Y711200D02*
G54D10*
D03*
X1346200Y685800D02*
G54D10*
D03*
X1346200Y660400D02*
G54D10*
D03*
X1346200Y635000D02*
G54D10*
D03*
X1346200Y609600D02*
G54D10*
D03*
X1346200Y584200D02*
G54D10*
D03*
X1193800Y558800D02*
G54D10*
D03*
X1193800Y533400D02*
G54D10*
D03*
X1193800Y508000D02*
G54D10*
D03*
X1193800Y482600D02*
G54D10*
D03*
X1193800Y457200D02*
G54D10*
D03*
X1193800Y431800D02*
G54D10*
D03*
X1346200Y558800D02*
G54D10*
D03*
X1346200Y533400D02*
G54D10*
D03*
X1346200Y508000D02*
G54D10*
D03*
X1346200Y482600D02*
G54D10*
D03*
X1346200Y457200D02*
G54D10*
D03*
X1346200Y431800D02*
G54D10*
D03*
X1384300Y584200D02*
G54D10*
D03*
X1384300Y558800D02*
G54D10*
D03*
X1384300Y533400D02*
G54D10*
D03*
X1384300Y508000D02*
G54D10*
D03*
X1384300Y482600D02*
G54D10*
D03*
X1384300Y457200D02*
G54D10*
D03*
X1384300Y431800D02*
G54D10*
D03*
X1460500Y584200D02*
G54D10*
D03*
X1460500Y558800D02*
G54D10*
D03*
X1460500Y533400D02*
G54D10*
D03*
X1460500Y508000D02*
G54D10*
D03*
X1460500Y482600D02*
G54D10*
D03*
X1460500Y457200D02*
G54D10*
D03*
X1460500Y431800D02*
G54D10*
D03*
X165100Y889000D02*
G54D10*
D03*
X190500Y889000D02*
G54D10*
D03*
X215900Y889000D02*
G54D10*
D03*
X241300Y889000D02*
G54D10*
D03*
X165100Y787400D02*
G54D10*
D03*
X190500Y787400D02*
G54D10*
D03*
X215900Y787400D02*
G54D10*
D03*
X241300Y787400D02*
G54D10*
D03*
X438150Y863600D02*
G54D10*
D03*
X438150Y838200D02*
G54D10*
D03*
X438150Y812800D02*
G54D10*
D03*
X488950Y812800D02*
G54D10*
D03*
X488950Y838200D02*
G54D10*
D03*
X488950Y863600D02*
G54D10*
D03*
X654050Y965200D02*
G54D10*
D03*
X654050Y863600D02*
G54D10*
D03*
X831850Y965200D02*
G54D10*
D03*
X831850Y863600D02*
G54D10*
D03*
X977900Y965200D02*
G54D10*
D03*
X1022350Y965200D02*
G54D10*
D03*
X977900Y914400D02*
G54D10*
D03*
X977900Y876300D02*
G54D10*
D03*
X1022350Y863600D02*
G54D10*
D03*
X977900Y825500D02*
G54D10*
D03*
X717550Y774700D02*
G54D10*
D03*
X717550Y749300D02*
G54D10*
D03*
X768350Y774700D02*
G54D10*
D03*
X768350Y749300D02*
G54D10*
D03*
X787400Y723900D02*
G54D10*
D03*
X787400Y596900D02*
G54D10*
D03*
X793750Y571500D02*
G54D10*
D03*
X1244600Y952500D02*
G54D10*
D03*
X1295400Y952500D02*
G54D10*
D03*
X1422400Y774700D02*
G54D10*
D03*
X1384300Y698500D02*
G54D10*
D03*
X1384300Y673100D02*
G54D10*
D03*
X1422400Y673100D02*
G54D10*
D03*
X1435100Y635000D02*
G54D10*
D03*
X1384300Y635000D02*
G54D10*
D03*
X793750Y520700D02*
G54D10*
D03*
X787400Y476250D02*
G54D10*
D03*
X787400Y450850D02*
G54D10*
D03*
X787400Y425450D02*
G54D10*
D03*
X704850Y425450D02*
G54D10*
D03*
X704850Y450850D02*
G54D10*
D03*
X704850Y476250D02*
G54D10*
D03*
X660400Y431800D02*
G54D10*
D03*
X635000Y431800D02*
G54D10*
D03*
X609600Y431800D02*
G54D10*
D03*
X584200Y431800D02*
G54D10*
D03*
X1416050Y857250D02*
G54D11*
D03*
X1377950Y844550D02*
G54D11*
D03*
X1441450Y831850D02*
G54D11*
D03*
X1403350Y819150D02*
G54D11*
D03*
X190500Y914400D02*
G54D12*
D03*
X215900Y914400D02*
G54D12*
D03*
X260350Y914400D02*
G54D12*
D03*
X107950Y889000D02*
G54D12*
D03*
X107950Y965200D02*
G54D12*
D03*
X304800Y939800D02*
G54D12*
D03*
X317500Y901700D02*
G54D12*
D03*
X107950Y850900D02*
G54D12*
D03*
X203200Y812800D02*
G54D12*
D03*
X120650Y749300D02*
G54D12*
D03*
X133350Y736600D02*
G54D12*
D03*
X120650Y685800D02*
G54D12*
D03*
X146050Y685800D02*
G54D12*
D03*
X254000Y685800D02*
G54D12*
D03*
X107950Y647700D02*
G54D12*
D03*
X158750Y660400D02*
G54D12*
D03*
X368300Y673100D02*
G54D12*
D03*
X488950Y698500D02*
G54D12*
D03*
X514350Y723900D02*
G54D12*
D03*
X488950Y762000D02*
G54D12*
D03*
X469900Y781050D02*
G54D12*
D03*
X463550Y800100D02*
G54D12*
D03*
X520700Y800100D02*
G54D12*
D03*
X558800Y698500D02*
G54D12*
D03*
X527050Y660400D02*
G54D12*
D03*
X501650Y673100D02*
G54D12*
D03*
X469900Y609600D02*
G54D12*
D03*
X450850Y622300D02*
G54D12*
D03*
X412750Y635000D02*
G54D12*
D03*
X438150Y596900D02*
G54D12*
D03*
X438150Y571500D02*
G54D12*
D03*
X488950Y584200D02*
G54D12*
D03*
X514350Y558800D02*
G54D12*
D03*
X527050Y546100D02*
G54D12*
D03*
X450850Y546100D02*
G54D12*
D03*
X501650Y533400D02*
G54D12*
D03*
X488950Y520700D02*
G54D12*
D03*
X425450Y508000D02*
G54D12*
D03*
X438150Y482600D02*
G54D12*
D03*
X425450Y444500D02*
G54D12*
D03*
X469900Y431800D02*
G54D12*
D03*
X647700Y508000D02*
G54D12*
D03*
X558800Y596900D02*
G54D12*
D03*
X635000Y596900D02*
G54D12*
D03*
X641350Y622300D02*
G54D12*
D03*
X622300Y635000D02*
G54D12*
D03*
X704850Y520700D02*
G54D12*
D03*
X704850Y558800D02*
G54D12*
D03*
X704850Y596900D02*
G54D12*
D03*
X704850Y622300D02*
G54D12*
D03*
X717550Y635000D02*
G54D12*
D03*
X717550Y673100D02*
G54D12*
D03*
X704850Y685800D02*
G54D12*
D03*
X717550Y711200D02*
G54D12*
D03*
X749300Y774700D02*
G54D12*
D03*
X869950Y762000D02*
G54D12*
D03*
X889000Y774700D02*
G54D12*
D03*
X939800Y647700D02*
G54D12*
D03*
X927100Y673100D02*
G54D12*
D03*
X869950Y660400D02*
G54D12*
D03*
X844550Y635000D02*
G54D12*
D03*
X889000Y596900D02*
G54D12*
D03*
X857250Y558800D02*
G54D12*
D03*
X603250Y793750D02*
G54D12*
D03*
X609600Y825500D02*
G54D12*
D03*
X107950Y431800D02*
G54D12*
D03*
X330200Y927100D02*
G54D12*
D03*
X336550Y952500D02*
G54D12*
D03*
X374650Y965200D02*
G54D12*
D03*
X381000Y863600D02*
G54D12*
D03*
X406400Y863600D02*
G54D12*
D03*
X419100Y901700D02*
G54D12*
D03*
X508000Y889000D02*
G54D12*
D03*
X577850Y889000D02*
G54D12*
D03*
X781050Y927100D02*
G54D12*
D03*
X889000Y838200D02*
G54D12*
D03*
X1022350Y939800D02*
G54D12*
D03*
X1041400Y927100D02*
G54D12*
D03*
X1009650Y901700D02*
G54D12*
D03*
X952500Y850900D02*
G54D12*
D03*
X1003300Y838200D02*
G54D12*
D03*
X1098550Y793750D02*
G54D12*
D03*
X1130300Y901700D02*
G54D12*
D03*
X1174750Y952500D02*
G54D12*
D03*
X1377950Y946150D02*
G54D12*
D03*
X1295400Y889000D02*
G54D12*
D03*
X1244600Y838200D02*
G54D12*
D03*
X1263650Y812800D02*
G54D12*
D03*
X1308100Y825500D02*
G54D12*
D03*
X1289050Y800100D02*
G54D12*
D03*
X1168400Y793750D02*
G54D12*
D03*
X1371600Y812800D02*
G54D12*
D03*
X1301750Y749300D02*
G54D12*
D03*
X1289050Y723900D02*
G54D12*
D03*
X1225550Y762000D02*
G54D12*
D03*
X1225550Y685800D02*
G54D12*
D03*
X1276350Y628650D02*
G54D12*
D03*
X1047750Y647700D02*
G54D12*
D03*
X1085850Y609600D02*
G54D12*
D03*
X1022350Y723900D02*
G54D12*
D03*
X1022350Y749300D02*
G54D12*
D03*
X958850Y584200D02*
G54D12*
D03*
X946150Y533400D02*
G54D12*
D03*
X1028700Y514350D02*
G54D12*
D03*
X1047750Y508000D02*
G54D12*
D03*
X1073150Y520700D02*
G54D12*
D03*
X1111250Y520700D02*
G54D12*
D03*
X1225550Y508000D02*
G54D12*
D03*
X1054100Y457200D02*
G54D12*
D03*
X1085850Y457200D02*
G54D12*
D03*
X1098550Y425450D02*
G54D12*
D03*
X1136650Y444500D02*
G54D12*
D03*
X1123950Y482600D02*
G54D12*
D03*
X1225550Y457200D02*
G54D12*
D03*
G54D13*
X76200Y965200D02*
X257175Y965200D01*
X260350Y968375D01*
X260350Y981075D01*
X263525Y984250D01*
X355600Y984250D01*
X355600Y965200D01*
G54D13*
X355600Y984250D02*
X622300Y984250D01*
X622300Y965200D01*
G54D13*
X622300Y984250D02*
X768350Y984250D01*
X768350Y965200D01*
G54D13*
X768350Y984250D02*
X939800Y984250D01*
X939800Y965200D01*
G54D13*
X939800Y984250D02*
X1143000Y984250D01*
X1143000Y965200D01*
G54D13*
X1143000Y984250D02*
X1193800Y984250D01*
X1193800Y914400D01*
G54D13*
X1193800Y984250D02*
X1244600Y984250D01*
X1244600Y952500D01*
G54D13*
X1244600Y984250D02*
X1479550Y984250D01*
X1479550Y635000D01*
X1435100Y635000D01*
G54D13*
X1479550Y635000D02*
X1479550Y587375D01*
X1476375Y584200D01*
X1460500Y584200D01*
G54D13*
X76200Y939800D02*
X238125Y939800D01*
X241300Y936625D01*
X241300Y889000D01*
G54D13*
X469900Y781050D02*
X568325Y781050D01*
X571500Y777875D01*
X571500Y749300D01*
X660400Y749300D01*
X660400Y723900D01*
G54D13*
X660400Y749300D02*
X733425Y749300D01*
X736600Y746125D01*
X736600Y727075D01*
X739775Y723900D01*
X796925Y723900D01*
X800100Y727075D01*
X800100Y790575D01*
X803275Y793750D01*
X879475Y793750D01*
X889000Y784225D01*
X889000Y774700D01*
G54D13*
X889000Y774700D02*
X971550Y774700D01*
X971550Y781050D01*
X987425Y781050D01*
X1000125Y793750D01*
X1006475Y793750D01*
X1025525Y774700D01*
X1155700Y774700D01*
G54D13*
X1168400Y793750D02*
X1069975Y793750D01*
X1066800Y796925D01*
X1066800Y812800D01*
X987425Y812800D01*
X968375Y793750D01*
X917575Y793750D01*
X914400Y796925D01*
X914400Y803275D01*
X911225Y806450D01*
X892175Y806450D01*
X885825Y812800D01*
X790575Y812800D01*
X771525Y793750D01*
X768350Y793750D01*
X768350Y774700D01*
G54D13*
X768350Y793750D02*
X692150Y793750D01*
X692150Y812800D01*
G54D13*
X692150Y793750D02*
X587375Y793750D01*
X584200Y796925D01*
X584200Y809625D01*
X581025Y812800D01*
X546100Y812800D01*
G54D13*
X546100Y762000D02*
X282575Y762000D01*
X279400Y765175D01*
X279400Y787400D01*
G54D13*
X819150Y596900D02*
X889000Y596900D01*
G54D13*
X1346200Y863600D02*
X1323975Y863600D01*
X1320800Y866775D01*
X1320800Y885825D01*
X1317625Y889000D01*
X1193800Y889000D01*
G54D13*
X717550Y749300D02*
X717550Y774700D01*
G54D14*
X107950Y889000D02*
X107950Y911225D01*
X111125Y914400D01*
X190500Y914400D01*
G54D14*
X215900Y914400D02*
X215900Y904875D01*
X212725Y901700D01*
X180975Y901700D01*
X177800Y898525D01*
X177800Y866775D01*
X174625Y863600D01*
X76200Y863600D01*
G54D14*
X190500Y889000D02*
X215900Y889000D01*
X215900Y879475D01*
X219075Y876300D01*
X365125Y876300D01*
X368300Y873125D01*
X368300Y866775D01*
X371475Y863600D01*
X381000Y863600D01*
G54D14*
X419100Y901700D02*
X333375Y901700D01*
X330200Y904875D01*
X330200Y911225D01*
X327025Y914400D01*
X307975Y914400D01*
X304800Y911225D01*
X304800Y904875D01*
X301625Y901700D01*
X269875Y901700D01*
X266700Y904875D01*
X266700Y911225D01*
X263525Y914400D01*
X260350Y914400D01*
G54D14*
X330200Y927100D02*
X307975Y927100D01*
X304800Y930275D01*
X304800Y939800D01*
G54D14*
X336550Y952500D02*
X371475Y952500D01*
X374650Y955675D01*
X374650Y965200D01*
G54D14*
X203200Y812800D02*
X111125Y812800D01*
X107950Y809625D01*
X107950Y790575D01*
X104775Y787400D01*
X76200Y787400D01*
G54D14*
X76200Y768350D02*
X76200Y787400D01*
G54D14*
X76200Y711200D02*
X104775Y711200D01*
X107950Y714375D01*
X107950Y758825D01*
X111125Y762000D01*
X187325Y762000D01*
X190500Y765175D01*
X190500Y787400D01*
G54D14*
X393700Y736600D02*
X133350Y736600D01*
G54D14*
X393700Y685800D02*
X254000Y685800D01*
G54D14*
X107950Y850900D02*
X390525Y850900D01*
X393700Y854075D01*
X393700Y885825D01*
X396875Y889000D01*
X508000Y889000D01*
G54D14*
X355600Y889000D02*
X320675Y889000D01*
X317500Y892175D01*
X317500Y901700D01*
G54D14*
X76200Y812800D02*
X92075Y812800D01*
X95250Y815975D01*
X95250Y822325D01*
X98425Y825500D01*
X403225Y825500D01*
X406400Y828675D01*
X406400Y835025D01*
X409575Y838200D01*
X422275Y838200D01*
X425450Y841375D01*
X425450Y847725D01*
X428625Y850900D01*
X447675Y850900D01*
X450850Y847725D01*
X450850Y841375D01*
X454025Y838200D01*
X473075Y838200D01*
X476250Y835025D01*
X476250Y828675D01*
X479425Y825500D01*
X609600Y825500D01*
G54D14*
X76200Y736600D02*
X92075Y736600D01*
X95250Y739775D01*
X95250Y771525D01*
X98425Y774700D01*
X130175Y774700D01*
X133350Y777875D01*
X133350Y796925D01*
X136525Y800100D01*
X463550Y800100D01*
G54D14*
X355600Y812800D02*
X422275Y812800D01*
X425450Y815975D01*
X425450Y822325D01*
X428625Y825500D01*
X447675Y825500D01*
X450850Y822325D01*
X450850Y815975D01*
X454025Y812800D01*
X473075Y812800D01*
X476250Y809625D01*
X476250Y803275D01*
X479425Y800100D01*
X520700Y800100D01*
G54D14*
X514350Y723900D02*
X428625Y723900D01*
X425450Y727075D01*
X425450Y733425D01*
X422275Y736600D01*
X409575Y736600D01*
X406400Y739775D01*
X406400Y746125D01*
X403225Y749300D01*
X120650Y749300D01*
G54D14*
X120650Y685800D02*
X120650Y720725D01*
X123825Y723900D01*
X409575Y723900D01*
X412750Y720725D01*
X412750Y714375D01*
X415925Y711200D01*
X530225Y711200D01*
X533400Y708025D01*
X533400Y701675D01*
X536575Y698500D01*
X558800Y698500D01*
G54D14*
X393700Y711200D02*
X136525Y711200D01*
X133350Y708025D01*
X133350Y663575D01*
X130175Y660400D01*
X111125Y660400D01*
X107950Y657225D01*
X107950Y647700D01*
G54D14*
X146050Y685800D02*
X155575Y685800D01*
X158750Y688975D01*
X158750Y695325D01*
X161925Y698500D01*
X488950Y698500D01*
G54D14*
X76200Y635000D02*
X142875Y635000D01*
X146050Y638175D01*
X146050Y669925D01*
X149225Y673100D01*
X555625Y673100D01*
X558800Y676275D01*
X558800Y682625D01*
X561975Y685800D01*
X676275Y685800D01*
X679450Y688975D01*
X679450Y698500D01*
G54D14*
X527050Y660400D02*
X409575Y660400D01*
X406400Y657225D01*
X406400Y650875D01*
X403225Y647700D01*
X384175Y647700D01*
X381000Y650875D01*
X381000Y657225D01*
X377825Y660400D01*
X158750Y660400D01*
G54D14*
X412750Y635000D02*
X530225Y635000D01*
X533400Y638175D01*
X533400Y644525D01*
X536575Y647700D01*
X555625Y647700D01*
X558800Y650875D01*
X558800Y657225D01*
X565150Y663575D01*
X565150Y669925D01*
X568325Y673100D01*
X644525Y673100D01*
X647700Y669925D01*
X647700Y663575D01*
X650875Y660400D01*
X688975Y660400D01*
X692150Y663575D01*
X692150Y695325D01*
X695325Y698500D01*
X755650Y698500D01*
G54D14*
X279400Y965200D02*
X314325Y965200D01*
X317500Y962025D01*
X317500Y942975D01*
X320675Y939800D01*
X339725Y939800D01*
X342900Y936625D01*
X342900Y930275D01*
X346075Y927100D01*
X390525Y927100D01*
X393700Y930275D01*
X393700Y962025D01*
X396875Y965200D01*
X546100Y965200D01*
G54D14*
X622300Y939800D02*
X568325Y939800D01*
X549275Y920750D01*
X546100Y914400D01*
X530225Y914400D01*
X527050Y911225D01*
X527050Y866775D01*
X523875Y863600D01*
X488950Y863600D01*
G54D14*
X406400Y863600D02*
X406400Y873125D01*
X409575Y876300D01*
X473075Y876300D01*
X476250Y873125D01*
X476250Y854075D01*
X479425Y850900D01*
X606425Y850900D01*
X609600Y854075D01*
X609600Y885825D01*
X612775Y889000D01*
X622300Y889000D01*
G54D14*
X692150Y889000D02*
X638175Y889000D01*
X635000Y885825D01*
X635000Y866775D01*
X631825Y863600D01*
X622300Y863600D01*
G54D14*
X622300Y838200D02*
X488950Y838200D01*
G54D14*
X622300Y812800D02*
X676275Y812800D01*
X679450Y815975D01*
X679450Y847725D01*
X682625Y850900D01*
X701675Y850900D01*
X727075Y825500D01*
X873125Y825500D01*
X876300Y828675D01*
X876300Y847725D01*
X873125Y850900D01*
X866775Y850900D01*
X863600Y854075D01*
X863600Y863600D01*
G54D14*
X863600Y838200D02*
X784225Y838200D01*
X781050Y841375D01*
X781050Y847725D01*
X777875Y850900D01*
X752475Y850900D01*
X701675Y901700D01*
X581025Y901700D01*
X577850Y898525D01*
X577850Y889000D01*
X568325Y889000D01*
X565150Y885825D01*
X565150Y879475D01*
X549275Y863600D01*
X546100Y863600D01*
G54D14*
X546100Y889000D02*
X552450Y892175D01*
X587375Y927100D01*
X752475Y927100D01*
X755650Y923925D01*
X755650Y892175D01*
X758825Y889000D01*
X768350Y889000D01*
G54D14*
X977900Y914400D02*
X955675Y914400D01*
X952500Y911225D01*
X952500Y904875D01*
X949325Y901700D01*
X930275Y901700D01*
X927100Y904875D01*
X927100Y911225D01*
X923925Y914400D01*
X863600Y914400D01*
G54D14*
X768350Y749300D02*
X752475Y749300D01*
X749300Y752475D01*
X749300Y774700D01*
G54D14*
X768350Y812800D02*
X720725Y812800D01*
X698500Y835025D01*
X692150Y838200D01*
G54D14*
X768350Y838200D02*
X739775Y838200D01*
X714375Y863600D01*
X692150Y863600D01*
G54D14*
X584200Y698500D02*
X584200Y708025D01*
X587375Y711200D01*
X917575Y711200D01*
X920750Y714375D01*
X920750Y720725D01*
X923925Y723900D01*
X971550Y723900D01*
G54D14*
X825500Y723900D02*
X904875Y723900D01*
X908050Y727075D01*
X908050Y733425D01*
X911225Y736600D01*
X1003300Y736600D01*
X1003300Y723900D01*
G54D14*
X1003300Y736600D02*
X1171575Y736600D01*
X1184275Y749300D01*
X1301750Y749300D01*
G54D14*
X1225550Y762000D02*
X1323975Y762000D01*
X1327150Y758825D01*
X1327150Y752475D01*
X1330325Y749300D01*
X1355725Y749300D01*
X1358900Y746125D01*
X1358900Y727075D01*
X1355725Y723900D01*
X1349375Y723900D01*
X1346200Y720725D01*
X1346200Y711200D01*
G54D14*
X1346200Y736600D02*
X1308100Y698500D01*
X1019175Y698500D01*
X1016000Y695325D01*
X1016000Y688975D01*
X1012825Y685800D01*
X993775Y685800D01*
X981075Y698500D01*
X971550Y698500D01*
G54D14*
X1289050Y723900D02*
X1184275Y723900D01*
X1171575Y711200D01*
X936625Y711200D01*
X933450Y708025D01*
X933450Y701675D01*
X930275Y698500D01*
X819150Y698500D01*
G54D14*
X1003300Y711200D02*
X1003300Y698500D01*
G54D14*
X1003300Y762000D02*
X1003300Y749300D01*
G54D14*
X819150Y749300D02*
X819150Y758825D01*
X822325Y762000D01*
X1171575Y762000D01*
X1184275Y774700D01*
X1368425Y774700D01*
X1371600Y771525D01*
X1371600Y650875D01*
X1368425Y647700D01*
X1349375Y647700D01*
X1346200Y644525D01*
X1346200Y635000D01*
G54D14*
X1346200Y685800D02*
X1225550Y685800D01*
G54D14*
X1276350Y628650D02*
X1247775Y628650D01*
X1203325Y673100D01*
X1177925Y673100D01*
X1165225Y685800D01*
X1025525Y685800D01*
X1022350Y682625D01*
X1022350Y676275D01*
X1019175Y673100D01*
X1003300Y673100D01*
X993775Y673100D01*
X981075Y685800D01*
X819150Y685800D01*
X819150Y673100D01*
G54D14*
X819150Y685800D02*
X704850Y685800D01*
G54D14*
X755650Y673100D02*
X717550Y673100D01*
G54D14*
X869950Y660400D02*
X708025Y660400D01*
X695325Y647700D01*
X679450Y647700D01*
G54D14*
X755650Y647700D02*
X708025Y647700D01*
X704850Y644525D01*
X704850Y638175D01*
X701675Y635000D01*
X644525Y635000D01*
X641350Y638175D01*
X641350Y644525D01*
X638175Y647700D01*
X600075Y647700D01*
X596900Y650875D01*
X596900Y657225D01*
X593725Y660400D01*
X574675Y660400D01*
X571500Y657225D01*
X571500Y625475D01*
X574675Y622300D01*
X584200Y622300D01*
G54D14*
X622300Y635000D02*
X587375Y635000D01*
X584200Y638175D01*
X584200Y647700D01*
G54D14*
X641350Y622300D02*
X600075Y622300D01*
X596900Y619125D01*
X596900Y612775D01*
X593725Y609600D01*
X574675Y609600D01*
X571500Y606425D01*
X571500Y600075D01*
X568325Y596900D01*
X558800Y596900D01*
G54D14*
X635000Y596900D02*
X584200Y596900D01*
G54D14*
X755650Y622300D02*
X704850Y622300D01*
G54D14*
X717550Y635000D02*
X844550Y635000D01*
G54D14*
X819150Y647700D02*
X939800Y647700D01*
G54D14*
X755650Y596900D02*
X704850Y596900D01*
G54D14*
X679450Y596900D02*
X669925Y609600D01*
X650875Y609600D01*
X647700Y606425D01*
X647700Y587375D01*
X644525Y584200D01*
X587375Y584200D01*
X584200Y581025D01*
X584200Y571500D01*
G54D14*
X546100Y584200D02*
X488950Y584200D01*
G54D14*
X438150Y596900D02*
X384175Y596900D01*
X381000Y600075D01*
X381000Y606425D01*
X377825Y609600D01*
X76200Y609600D01*
G54D14*
X76200Y584200D02*
X377825Y584200D01*
X381000Y581025D01*
X381000Y574675D01*
X384175Y571500D01*
X438150Y571500D01*
G54D14*
X450850Y622300D02*
X450850Y574675D01*
X454025Y571500D01*
X530225Y571500D01*
X533400Y568325D01*
X533400Y561975D01*
X536575Y558800D01*
X546100Y558800D01*
G54D13*
X546100Y609600D02*
X469900Y609600D01*
G54D14*
X514350Y558800D02*
X409575Y558800D01*
X406400Y555625D01*
X406400Y549275D01*
X403225Y546100D01*
X384175Y546100D01*
X381000Y549275D01*
X381000Y555625D01*
X377825Y558800D01*
X76200Y558800D01*
G54D14*
X76200Y533400D02*
X377825Y533400D01*
X381000Y530225D01*
X381000Y523875D01*
X384175Y520700D01*
X488950Y520700D01*
G54D14*
X546100Y533400D02*
X501650Y533400D01*
G54D14*
X527050Y546100D02*
X450850Y546100D01*
G54D14*
X393700Y508000D02*
X517525Y508000D01*
X520700Y511175D01*
X520700Y517525D01*
X523875Y520700D01*
X555625Y520700D01*
X558800Y523875D01*
X558800Y555625D01*
X561975Y558800D01*
X593725Y558800D01*
X596900Y561975D01*
X596900Y568325D01*
X600075Y571500D01*
X660400Y571500D01*
G54D14*
X660400Y596900D02*
X660400Y587375D01*
X663575Y584200D01*
X958850Y584200D01*
G54D14*
X755650Y571500D02*
X755650Y584200D01*
G54D14*
X704850Y558800D02*
X650875Y558800D01*
X647700Y555625D01*
X647700Y549275D01*
X644525Y546100D01*
X584200Y546100D01*
X574675Y546100D01*
X571500Y542925D01*
X571500Y498475D01*
X568325Y495300D01*
X384175Y495300D01*
X381000Y498475D01*
X381000Y504825D01*
X377825Y508000D01*
X76200Y508000D01*
G54D14*
X76200Y482600D02*
X393700Y482600D01*
G54D14*
X393700Y457200D02*
X403225Y457200D01*
X406400Y460375D01*
X406400Y495300D01*
G54D14*
X438150Y482600D02*
X546100Y482600D01*
G54D14*
X425450Y444500D02*
X384175Y444500D01*
X381000Y447675D01*
X381000Y454025D01*
X377825Y457200D01*
X76200Y457200D01*
G54D13*
X76200Y431800D02*
X469900Y431800D01*
G54D14*
X635000Y431800D02*
X584200Y431800D01*
X584200Y422275D01*
X581025Y419100D01*
X473075Y419100D01*
X469900Y422275D01*
X469900Y431800D01*
G54D14*
X546100Y431800D02*
X536575Y431800D01*
X533400Y434975D01*
X533400Y466725D01*
X536575Y469900D01*
X555625Y469900D01*
X558800Y473075D01*
X558800Y479425D01*
X561975Y482600D01*
X612775Y482600D01*
X638175Y508000D01*
X676275Y508000D01*
X679450Y511175D01*
X679450Y520700D01*
G54D14*
X755650Y520700D02*
X704850Y520700D01*
G54D13*
X793750Y520700D02*
X793750Y498475D01*
X790575Y495300D01*
X777875Y495300D01*
X768350Y485775D01*
X768350Y454025D01*
X771525Y450850D01*
X787400Y450850D01*
X787400Y425450D01*
X787400Y450850D01*
X819150Y450850D01*
X819150Y444500D01*
G54D14*
X584200Y520700D02*
X644525Y520700D01*
X647700Y523875D01*
X647700Y530225D01*
X650875Y533400D01*
X946150Y533400D01*
G54D14*
X857250Y558800D02*
X733425Y558800D01*
X730250Y555625D01*
X730250Y549275D01*
X727075Y546100D01*
X679450Y546100D01*
G54D14*
X819150Y520700D02*
X955675Y520700D01*
X958850Y517525D01*
X958850Y511175D01*
X962025Y508000D01*
X981075Y508000D01*
X984250Y511175D01*
X984250Y517525D01*
X987425Y520700D01*
X1012825Y520700D01*
X1016000Y523875D01*
X1016000Y542925D01*
X1019175Y546100D01*
X1139825Y546100D01*
X1143000Y542925D01*
X1143000Y536575D01*
X1146175Y533400D01*
X1165225Y533400D01*
X1168400Y530225D01*
X1168400Y523875D01*
X1184275Y508000D01*
X1193800Y508000D01*
X1203325Y520700D01*
X1235075Y520700D01*
X1260475Y546100D01*
X1419225Y546100D01*
X1431925Y533400D01*
X1460500Y533400D01*
G54D14*
X1460500Y558800D02*
X1425575Y558800D01*
X1422400Y561975D01*
X1422400Y568325D01*
X1419225Y571500D01*
X1279525Y571500D01*
X1203325Y647700D01*
X1177925Y647700D01*
X1165225Y660400D01*
X1038225Y660400D01*
X1035050Y657225D01*
X1035050Y650875D01*
X1031875Y647700D01*
X1003300Y647700D01*
X993775Y647700D01*
X981075Y660400D01*
X962025Y660400D01*
X958850Y663575D01*
X958850Y669925D01*
X955675Y673100D01*
X927100Y673100D01*
G54D14*
X971550Y673100D02*
X981075Y673100D01*
X993775Y660400D01*
X1025525Y660400D01*
X1028700Y663575D01*
X1028700Y669925D01*
X1031875Y673100D01*
X1155700Y673100D01*
G54D14*
X1155700Y647700D02*
X1047750Y647700D01*
G54D14*
X1155700Y622300D02*
X1031875Y622300D01*
X1028700Y625475D01*
X1028700Y631825D01*
X1025525Y635000D01*
X993775Y635000D01*
X981075Y622300D01*
X971550Y622300D01*
G54D14*
X1085850Y609600D02*
X1025525Y609600D01*
X1022350Y612775D01*
X1022350Y619125D01*
X1019175Y622300D01*
X1003300Y622300D01*
X993775Y622300D01*
X981075Y609600D01*
X962025Y609600D01*
X958850Y612775D01*
X958850Y619125D01*
X955675Y622300D01*
X819150Y622300D01*
G54D14*
X971550Y596900D02*
X981075Y596900D01*
X993775Y609600D01*
X1012825Y609600D01*
X1016000Y606425D01*
X1016000Y600075D01*
X1019175Y596900D01*
X1155700Y596900D01*
G54D14*
X1155700Y571500D02*
X1016000Y571500D01*
X1016000Y581025D01*
X1012825Y584200D01*
X993775Y584200D01*
X981075Y571500D01*
X971550Y571500D01*
G54D14*
X1003300Y571500D02*
X993775Y571500D01*
X981075Y558800D01*
X962025Y558800D01*
X958850Y561975D01*
X958850Y568325D01*
X955675Y571500D01*
X819150Y571500D01*
G54D14*
X819150Y546100D02*
X955675Y546100D01*
X958850Y542925D01*
X958850Y536575D01*
X962025Y533400D01*
X981075Y533400D01*
X993775Y546100D01*
X1003300Y546100D01*
G54D14*
X971550Y546100D02*
X981075Y546100D01*
X993775Y558800D01*
X1152525Y558800D01*
X1155700Y555625D01*
X1155700Y546100D01*
G54D14*
X1155700Y520700D02*
X1133475Y520700D01*
X1130300Y523875D01*
X1130300Y530225D01*
X1127125Y533400D01*
X1031875Y533400D01*
X1028700Y530225D01*
X1028700Y514350D01*
G54D14*
X1073150Y520700D02*
X1111250Y520700D01*
G54D14*
X1047750Y508000D02*
X1171575Y508000D01*
X1190625Y488950D01*
X1193800Y482600D01*
G54D14*
X1155700Y495300D02*
X1019175Y495300D01*
X1016000Y498475D01*
X1016000Y504825D01*
X1012825Y508000D01*
X993775Y508000D01*
X990600Y504825D01*
X990600Y498475D01*
X987425Y495300D01*
X971550Y495300D01*
G54D14*
X1003300Y495300D02*
X1003300Y485775D01*
X1006475Y482600D01*
X1165225Y482600D01*
X1177925Y469900D01*
X1203325Y469900D01*
X1216025Y482600D01*
X1362075Y482600D01*
X1374775Y495300D01*
X1412875Y495300D01*
X1425575Y482600D01*
X1460500Y482600D01*
G54D14*
X1460500Y508000D02*
X1425575Y508000D01*
X1412875Y520700D01*
X1368425Y520700D01*
X1355725Y508000D01*
X1346200Y508000D01*
G54D14*
X1346200Y508000D02*
X1225550Y508000D01*
G54D14*
X1384300Y508000D02*
X1368425Y508000D01*
X1355725Y495300D01*
X1216025Y495300D01*
X1203325Y482600D01*
X1193800Y482600D01*
G54D14*
X1460500Y457200D02*
X1419225Y457200D01*
X1406525Y469900D01*
X1216025Y469900D01*
X1203325Y457200D01*
X1085850Y457200D01*
G54D14*
X1136650Y444500D02*
X1076325Y444500D01*
X1073150Y447675D01*
X1073150Y454025D01*
X1069975Y457200D01*
X1054100Y457200D01*
G54D13*
X1098550Y425450D02*
X1152525Y425450D01*
X1155700Y428625D01*
X1155700Y444500D01*
G54D14*
X1225550Y457200D02*
X1346200Y457200D01*
G54D14*
X1193800Y431800D02*
X1203325Y431800D01*
X1216025Y444500D01*
X1412875Y444500D01*
X1425575Y431800D01*
X1460500Y431800D01*
G54D14*
X1416050Y857250D02*
X1416050Y863600D01*
X1381125Y863600D01*
X1377950Y866775D01*
X1377950Y946150D01*
G54D14*
X1346200Y838200D02*
X1355725Y838200D01*
X1358900Y841375D01*
X1358900Y898525D01*
X1355725Y901700D01*
X1174750Y901700D01*
X1174750Y923925D01*
X1171575Y927100D01*
X1057275Y927100D01*
X1054100Y930275D01*
X1054100Y936625D01*
X1050925Y939800D01*
X939800Y939800D01*
G54D14*
X1371600Y812800D02*
X1362075Y812800D01*
X1358900Y815975D01*
X1358900Y822325D01*
X1355725Y825500D01*
X1330325Y825500D01*
X1327150Y828675D01*
X1327150Y841375D01*
X1323975Y844550D01*
X1311275Y844550D01*
X1308100Y847725D01*
X1308100Y873125D01*
X1304925Y876300D01*
X1177925Y876300D01*
X1174750Y879475D01*
X1174750Y885825D01*
X1171575Y889000D01*
X1165225Y889000D01*
X1162050Y892175D01*
X1162050Y911225D01*
X1158875Y914400D01*
X1066800Y914400D01*
G54D14*
X1130300Y901700D02*
X1025525Y901700D01*
X1022350Y898525D01*
X1022350Y892175D01*
X1019175Y889000D01*
X968375Y889000D01*
X965200Y885825D01*
X965200Y879475D01*
X962025Y876300D01*
X930275Y876300D01*
X927100Y879475D01*
X927100Y885825D01*
X923925Y889000D01*
G54D14*
X923925Y889000D02*
X885825Y889000D01*
X873125Y901700D01*
X847725Y901700D01*
X835025Y889000D01*
X784225Y889000D01*
X781050Y885825D01*
X781050Y879475D01*
X777875Y876300D01*
X758825Y876300D01*
X720725Y914400D01*
X692150Y914400D01*
G54D14*
X1009650Y901700D02*
X962025Y901700D01*
X958850Y898525D01*
X958850Y892175D01*
X955675Y889000D01*
X939800Y889000D01*
G54D14*
X1041400Y927100D02*
X781050Y927100D01*
G54D14*
X768350Y939800D02*
X768350Y949325D01*
X771525Y952500D01*
X1174750Y952500D01*
G54D14*
X1308100Y825500D02*
X1279525Y825500D01*
X1276350Y828675D01*
X1276350Y847725D01*
X1273175Y850900D01*
X1165225Y850900D01*
X1162050Y854075D01*
X1162050Y873125D01*
X1158875Y876300D01*
X1012825Y876300D01*
X1009650Y873125D01*
X1009650Y866775D01*
X1006475Y863600D01*
X939800Y863600D01*
G54D14*
X952500Y850900D02*
X1152525Y850900D01*
X1155700Y847725D01*
X1155700Y841375D01*
X1158875Y838200D01*
X1177925Y838200D01*
X1181100Y835025D01*
X1181100Y828675D01*
X1184275Y825500D01*
X1203325Y825500D01*
X1206500Y822325D01*
X1206500Y815975D01*
X1209675Y812800D01*
X1263650Y812800D01*
G54D14*
X1066800Y850900D02*
X1066800Y838200D01*
G54D14*
X1289050Y800100D02*
X1184275Y800100D01*
X1181100Y803275D01*
X1181100Y809625D01*
X1177925Y812800D01*
X1158875Y812800D01*
X1155700Y815975D01*
X1155700Y822325D01*
X1152525Y825500D01*
X1057275Y825500D01*
X1054100Y828675D01*
X1054100Y835025D01*
X1050925Y838200D01*
X955675Y838200D01*
X952500Y835025D01*
X952500Y828675D01*
X949325Y825500D01*
X930275Y825500D01*
X927100Y828675D01*
X927100Y835025D01*
X923925Y838200D01*
X889000Y838200D01*
G54D14*
X1155700Y749300D02*
X1022350Y749300D01*
G54D14*
X1155700Y723900D02*
X1022350Y723900D01*
G54D14*
X1143000Y863600D02*
X1066800Y863600D01*
G54D14*
X1143000Y889000D02*
X1143000Y876300D01*
X47625Y968375D02*
G54D15*
D03*
X47625Y942975D02*
G54D15*
D03*
X47625Y917575D02*
G54D15*
D03*
X47625Y892175D02*
G54D15*
D03*
X47625Y866775D02*
G54D15*
D03*
X47625Y841375D02*
G54D15*
D03*
X47625Y815975D02*
G54D15*
D03*
X47625Y790575D02*
G54D15*
D03*
X47625Y765175D02*
G54D15*
D03*
X47625Y739775D02*
G54D15*
D03*
X47625Y714375D02*
G54D15*
D03*
X47625Y688975D02*
G54D15*
D03*
X47625Y663575D02*
G54D15*
D03*
X47625Y638175D02*
G54D15*
D03*
X47625Y612775D02*
G54D15*
D03*
X47625Y587375D02*
G54D15*
D03*
X47625Y561975D02*
G54D15*
D03*
X47625Y536575D02*
G54D15*
D03*
X47625Y511175D02*
G54D15*
D03*
X47625Y485775D02*
G54D15*
D03*
X47625Y460375D02*
G54D15*
D03*
X47625Y434975D02*
G54D15*
D03*
G54D14*
X755650Y533400D02*
X755650Y546100D01*
G54D14*
X1155700Y469900D02*
X1025525Y469900D01*
X1012825Y457200D01*
X993775Y457200D01*
X981075Y469900D01*
X971550Y469900D01*
G54D14*
X660400Y685800D02*
X660400Y673100D01*
G54D13*
X1193800Y838200D02*
X1244600Y838200D01*
G54D14*
X1454150Y787400D02*
X1450975Y790575D01*
X1450975Y795338D01*
X1455738Y798512D01*
X1462088Y798512D01*
X1466850Y795338D01*
X1466850Y790575D01*
X1463675Y787400D01*
G54D14*
X1450975Y765175D02*
X1466850Y765175D01*
X1466850Y763588D01*
X1460372Y759900D01*
X1466850Y755650D01*
X1466850Y754062D01*
X1450975Y754062D01*
G54D14*
X1450975Y747712D02*
X1466850Y747712D01*
X1466850Y739775D01*
X1465262Y738188D01*
X1460500Y738188D01*
X1458912Y739775D01*
X1458912Y746125D01*
G54D14*
X1455738Y731838D02*
X1462088Y731838D01*
X1466850Y728662D01*
X1466850Y723900D01*
X1462088Y720725D01*
X1455738Y720725D01*
X1450975Y723900D01*
X1450975Y728662D01*
X1455738Y731838D01*
G54D14*
X1455738Y781050D02*
X1462088Y781050D01*
X1466850Y777875D01*
X1466850Y773112D01*
X1462088Y769938D01*
X1455738Y769938D01*
X1450975Y773112D01*
X1450975Y777875D01*
X1455738Y781050D01*
G54D14*
X1450975Y714375D02*
X1466850Y714375D01*
X1466850Y712788D01*
X1450975Y704850D01*
X1466850Y704850D01*
G54D14*
X1450975Y687388D02*
X1450975Y698500D01*
X1458912Y698500D01*
X1458912Y690562D01*
X1458912Y698500D01*
X1466850Y698500D01*
X1466850Y687388D01*
G54D14*
X1466850Y655638D02*
X1466850Y665162D01*
X1466850Y660400D01*
X1450975Y660400D01*
G54D14*
X1450975Y681038D02*
X1466850Y681038D01*
X1466850Y679450D01*
X1450975Y671512D01*
X1466850Y671512D01*
G54D14*
X571500Y460375D02*
X569912Y461962D01*
X566738Y461962D01*
X563562Y458788D01*
X563562Y452438D01*
X566738Y449262D01*
X569912Y449262D01*
X571500Y450850D01*
X571500Y454025D01*
X569912Y455612D01*
X566738Y455612D01*
G54D14*
X576262Y449262D02*
X576262Y461962D01*
X577850Y461962D01*
X584200Y449262D01*
X584200Y461962D01*
G54D14*
X588962Y461962D02*
X588962Y449262D01*
X593725Y449262D01*
X596900Y452438D01*
X596900Y458788D01*
X593725Y461962D01*
X588962Y461962D01*
G54D14*
X646112Y455612D02*
X655638Y455612D01*
G54D14*
X650875Y460375D02*
X650875Y450850D01*
G54D14*
X660400Y461962D02*
X668338Y461962D01*
X665162Y457200D01*
X668338Y455612D01*
X668338Y450850D01*
X665162Y449262D01*
X661988Y449262D01*
X660400Y450850D01*
G54D13*
X76200Y939800D02*
X76200Y914400D01*
G54D16*
X215900Y617538D02*
X215900Y629982D01*
X220567Y629982D01*
X222433Y629204D01*
X223367Y627649D01*
X223367Y626093D01*
X222433Y624538D01*
X220567Y623760D01*
X222433Y622982D01*
X223367Y621426D01*
X223367Y619871D01*
X222433Y618315D01*
X220567Y617538D01*
X215900Y617538D01*
G54D16*
X215900Y623760D02*
X220567Y623760D01*
G54D16*
X227723Y629982D02*
X227723Y617538D01*
X232390Y625315D01*
X237056Y617538D01*
X237056Y629982D01*
G54D16*
X241412Y617538D02*
X246079Y629982D01*
X250745Y617538D01*
G54D16*
X243279Y622204D02*
X248879Y622204D01*
G54D16*
X262568Y619871D02*
X261634Y618315D01*
X259768Y617538D01*
X257901Y617538D01*
X256034Y618315D01*
X255101Y619871D01*
X255101Y627649D01*
X256034Y629204D01*
X257901Y629982D01*
X259768Y629982D01*
X261634Y629204D01*
X262568Y627649D01*
G54D16*
X266924Y617538D02*
X266924Y629982D01*
G54D16*
X266924Y621426D02*
X274391Y629982D01*
G54D16*
X269724Y623760D02*
X274391Y617538D01*
G54D16*
X290757Y617538D02*
X283290Y617538D01*
X283290Y618315D01*
X284223Y619871D01*
X289823Y624538D01*
X290757Y626093D01*
X290757Y627649D01*
X289823Y629204D01*
X287957Y629982D01*
X286090Y629982D01*
X284223Y629204D01*
X283290Y627649D01*
G54D16*
X302580Y627649D02*
X302580Y619871D01*
X301646Y618315D01*
X299780Y617538D01*
X297913Y617538D01*
X296046Y618315D01*
X295113Y619871D01*
X295113Y627649D01*
X296046Y629204D01*
X297913Y629982D01*
X299780Y629982D01*
X301646Y629204D01*
X302580Y627649D01*
G54D16*
X306936Y625315D02*
X311603Y629982D01*
X311603Y617538D01*
G54D16*
X315959Y619871D02*
X316892Y618315D01*
X318759Y617538D01*
X320626Y617538D01*
X322492Y618315D01*
X323426Y619871D01*
X323426Y623760D01*
X323426Y624538D01*
X320626Y622982D01*
X318759Y622982D01*
X316892Y623760D01*
X315959Y625315D01*
X315959Y627649D01*
X316892Y629204D01*
X318759Y629982D01*
X320626Y629982D01*
X322492Y629204D01*
X323426Y627649D01*
X323426Y623760D01*
G54D16*
X224396Y645985D02*
X227196Y644429D01*
X228129Y642874D01*
X228129Y639762D01*
G54D16*
X220662Y639762D02*
X220662Y652207D01*
X225329Y652207D01*
X227196Y651429D01*
X228129Y649874D01*
X228129Y648318D01*
X227196Y646762D01*
X225329Y645985D01*
X220662Y645985D01*
G54D16*
X239019Y639762D02*
X232486Y639762D01*
X232486Y652207D01*
X239019Y652207D01*
G54D16*
X232486Y645985D02*
X239019Y645985D01*
G54D16*
X243374Y639762D02*
X243374Y652207D01*
X248041Y652207D01*
X249908Y651429D01*
X250841Y649874D01*
X250841Y648318D01*
X249908Y646762D01*
X248041Y645985D01*
X243374Y645985D01*
G54D16*
X255198Y652207D02*
X255198Y639762D01*
X261731Y639762D01*
G54D16*
X266086Y639762D02*
X266086Y652207D01*
G54D16*
X277909Y642096D02*
X276976Y640540D01*
X275109Y639762D01*
X273242Y639762D01*
X271376Y640540D01*
X270442Y642096D01*
X270442Y649874D01*
X271376Y651429D01*
X273242Y652207D01*
X275109Y652207D01*
X276976Y651429D01*
X277909Y649874D01*
G54D16*
X282266Y639762D02*
X286932Y652207D01*
X291599Y639762D01*
G54D16*
X284132Y644429D02*
X289732Y644429D01*
G54D16*
X300498Y647540D02*
X305164Y652207D01*
X305164Y639762D01*
G54D16*
X309520Y639762D02*
X309520Y639762D01*
G54D16*
X313876Y647540D02*
X318543Y652207D01*
X318543Y639762D01*
M02*
