; Drill file
; Format: 2.4 (00.0000)
M48
INCH
T01C0.0236
T02C0.0315
T03C0.0472
T04C0.1457
%
G05
G90
T01
X004250Y017000
X004250Y025500
X004750Y027000
X005750Y027000
X006250Y026000
X005250Y029000
X004750Y029500
X004250Y033500
X004250Y035000
X004250Y038000
X007500Y036000
X008500Y036000
X010250Y036000
X012000Y037000
X013000Y036500
X013250Y037500
X014750Y038000
X016500Y035500
X016000Y034000
X015000Y034000
X012500Y035500
X008000Y032000
X010000Y027000
X014500Y026500
X016250Y025000
X017750Y024500
X018500Y024000
X019250Y023000
X020250Y022000
X020750Y021500
X019750Y021000
X019250Y020500
X017750Y021500
X017250Y022500
X017250Y023500
X016750Y020000
X017250Y019000
X016750Y017500
X018500Y017000
X022000Y023500
X020750Y026000
X019750Y026500
X019250Y027500
X020250Y028500
X019250Y030000
X018500Y030750
X018250Y031500
X020500Y031500
X023750Y031250
X024000Y032500
X022750Y035000
X020000Y035000
X022000Y027500
X024500Y025000
X025250Y024500
X025000Y023500
X027750Y023500
X027750Y024500
X028250Y025000
X028250Y026500
X027750Y027000
X028250Y028000
X029500Y030500
X034250Y030000
X035000Y030500
X035000Y033000
X037500Y033500
X039500Y033000
X039750Y035500
X040250Y037000
X041000Y036500
X044500Y035500
X046250Y037500
X049000Y033000
X049750Y032000
X050750Y031500
X051500Y032500
X051000Y035000
X054250Y037250
X054000Y032000
X051250Y029500
X050750Y028500
X048250Y030000
X046000Y031250
X043250Y031250
X040250Y029500
X040250Y028500
X041250Y025500
X042750Y024000
X042250Y020500
X041250Y020000
X040500Y020250
X041500Y018000
X042750Y018000
X043250Y016750
X044750Y017500
X044250Y019000
X043750Y020500
X048250Y020000
X048250Y018000
X050250Y024750
X048250Y027000
X037750Y023000
X037250Y021000
X035000Y023500
X033750Y022000
X033250Y025000
X034250Y026000
X036500Y026500
X037000Y025500
X027750Y022000
X027750Y020500
X025500Y020000
X030750Y036500
T02
X015500Y017000
X015500Y018000
X015500Y019000
X015500Y020000
X015500Y021000
X015500Y022000
X015500Y023000
X015500Y024000
X015500Y025000
X015500Y026000
X015500Y027000
X015500Y028000
X015500Y029000
X015500Y030000
X014000Y031000
X014000Y032000
X014000Y033000
X014000Y034000
X014000Y035000
X014000Y036000
X014000Y037000
X014000Y038000
X011000Y038000
X011000Y037000
X011000Y036000
X011000Y035000
X011000Y034000
X011000Y033000
X011000Y032000
X011000Y031000
X009500Y031000
X008500Y031000
X007500Y031000
X006500Y031000
X006500Y035000
X007500Y035000
X008500Y035000
X009500Y035000
X017250Y034000
X017250Y033000
X017250Y032000
X019250Y032000
X019250Y033000
X019250Y034000
X021500Y034000
X021500Y033000
X021500Y032000
X021500Y030000
X021500Y029000
X021500Y028000
X021500Y027000
X021500Y026000
X021500Y025000
X021500Y024000
X021500Y023000
X021500Y022000
X021500Y021000
X021500Y020000
X021500Y019000
X021500Y018000
X021500Y017000
X023000Y017000
X024000Y017000
X025000Y017000
X026000Y017000
X027750Y016750
X027750Y017750
X027750Y018750
X026750Y019500
X026000Y019500
X026000Y020500
X026750Y020500
X026750Y021500
X026000Y021500
X026000Y022500
X026750Y022500
X026750Y023500
X026000Y023500
X026000Y024500
X026750Y024500
X026750Y025500
X026000Y025500
X026000Y026500
X026750Y026500
X026750Y027500
X026000Y027500
X026000Y028500
X026750Y028500
X028250Y029500
X028250Y030500
X027250Y032000
X027250Y033000
X027250Y034000
X027250Y035000
X027250Y036000
X027250Y037000
X027250Y038000
X025750Y038000
X024500Y038000
X024500Y037000
X024500Y036000
X024500Y035000
X024500Y034000
X024500Y033000
X024500Y032000
X025750Y034000
X021500Y035000
X021500Y036000
X021500Y037000
X021500Y038000
X030250Y038000
X030250Y037000
X030250Y036000
X030250Y035000
X030250Y034000
X030250Y033000
X030250Y032000
X030250Y030500
X030250Y029500
X029750Y028500
X029750Y027500
X029750Y026500
X029750Y025500
X029750Y024500
X029750Y023500
X029750Y022500
X029750Y021500
X029750Y020500
X029750Y019500
X031000Y018750
X031000Y017750
X031000Y016750
X032250Y017500
X032250Y018500
X032250Y019500
X032250Y020500
X032250Y021500
X032250Y022500
X032250Y023500
X032250Y024500
X032250Y025500
X032250Y026500
X032250Y027500
X032250Y028500
X032250Y029500
X032250Y030500
X034000Y032000
X034000Y033000
X034000Y034000
X034000Y035000
X034000Y036000
X034000Y037000
X034000Y038000
X032750Y038000
X032750Y034000
X037000Y034000
X037000Y033000
X037000Y032000
X038500Y032500
X038500Y034500
X038500Y036000
X037000Y036000
X037000Y037000
X037000Y038000
X038500Y038000
X040250Y038000
X042000Y038000
X042000Y037000
X042000Y036000
X042000Y035000
X042000Y034000
X042000Y033000
X042000Y032000
X040250Y034000
X037000Y035000
X038250Y030500
X038250Y029500
X038250Y028500
X038250Y027500
X038250Y026500
X038250Y025500
X038250Y024500
X038250Y023500
X038250Y022500
X038250Y021500
X038250Y020500
X038250Y019500
X038250Y018500
X038250Y017500
X039500Y017500
X039500Y018500
X039500Y019500
X039500Y020500
X039500Y021500
X039500Y022500
X039500Y023500
X039500Y024500
X039500Y025500
X039500Y026500
X039500Y027500
X039500Y028500
X039500Y029500
X039500Y030500
X045000Y032000
X045000Y033000
X045000Y034000
X045000Y035000
X045000Y036000
X045000Y037000
X045000Y038000
X047000Y036000
X047000Y035000
X047000Y034000
X047000Y033000
X047000Y032000
X047000Y031000
X047000Y030000
X047000Y029000
X047000Y028000
X047000Y027000
X047000Y026000
X047000Y025000
X047000Y024000
X047000Y023000
X047000Y022000
X047000Y021000
X047000Y020000
X047000Y019000
X047000Y018000
X047000Y017000
X045500Y017500
X045500Y018500
X045500Y019500
X045500Y020500
X045500Y021500
X045500Y022500
X045500Y023500
X045500Y024500
X045500Y025500
X045500Y026500
X045500Y027500
X045500Y028500
X045500Y029500
X045500Y030500
X053000Y031000
X053000Y032000
X053000Y033000
X053000Y034000
X053000Y035000
X053000Y036000
X051000Y037500
X049000Y037500
X053000Y030000
X053000Y029000
X053000Y028000
X053000Y027000
X053000Y026000
X053000Y025000
X053000Y024000
X053000Y023000
X053000Y022000
X053000Y021000
X053000Y020000
X053000Y019000
X053000Y018000
X053000Y017000
X054500Y017000
X054500Y018000
X054500Y019000
X054500Y020000
X054500Y021000
X054500Y022000
X054500Y023000
X054500Y025000
X054500Y026500
X054500Y027500
X056000Y026500
X056500Y025000
X057500Y023000
X057500Y022000
X057500Y021000
X057500Y020000
X057500Y019000
X057500Y018000
X057500Y017000
X056000Y030500
X031000Y028500
X031000Y023500
X031250Y022500
X031250Y020500
X023000Y020500
X023000Y019500
X023000Y021500
X023000Y022500
X023000Y023500
X023000Y024500
X023000Y025500
X023000Y026500
X023000Y027500
X023000Y028500
T03
X054250Y033250
X055250Y032250
X055750Y033750
X056750Y032750
T04
X018000Y036500
X056000Y036500
M30
