G04 #@! TF.GenerationSoftware,KiCad,Pcbnew,5.1.4+dfsg1-1*
G04 #@! TF.CreationDate,2020-01-26T20:04:24+01:00*
G04 #@! TF.ProjectId,finalchesscard_lvr_draft1,66696e61-6c63-4686-9573-73636172645f,1.1.K1*
G04 #@! TF.SameCoordinates,Original*
G04 #@! TF.FileFunction,Soldermask,Bot*
G04 #@! TF.FilePolarity,Negative*
%FSLAX46Y46*%
G04 Gerber Fmt 4.6, Leading zero omitted, Abs format (unit mm)*
G04 Created by KiCad (PCBNEW 5.1.4+dfsg1-1) date 2020-01-26 20:04:24*
%MOMM*%
%LPD*%
G04 APERTURE LIST*
%ADD10O,1.600000X1.600000*%
%ADD11R,1.600000X1.600000*%
%ADD12C,1.600000*%
%ADD13R,1.200000X1.200000*%
%ADD14R,1.300000X1.600000*%
%ADD15C,1.200000*%
%ADD16C,1.500000*%
%ADD17R,1.700000X1.700000*%
%ADD18O,1.700000X1.700000*%
%ADD19C,1.300000*%
%ADD20R,1.500000X1.500000*%
%ADD21O,1.500000X1.500000*%
%ADD22C,3.700000*%
%ADD23C,1.700000*%
%ADD24C,0.254000*%
G04 APERTURE END LIST*
D10*
X179578000Y-124460000D03*
X164338000Y-157480000D03*
X179578000Y-127000000D03*
X164338000Y-154940000D03*
X179578000Y-129540000D03*
X164338000Y-152400000D03*
X179578000Y-132080000D03*
X164338000Y-149860000D03*
X179578000Y-134620000D03*
X164338000Y-147320000D03*
X179578000Y-137160000D03*
X164338000Y-144780000D03*
X179578000Y-139700000D03*
X164338000Y-142240000D03*
X179578000Y-142240000D03*
X164338000Y-139700000D03*
X179578000Y-144780000D03*
X164338000Y-137160000D03*
X179578000Y-147320000D03*
X164338000Y-134620000D03*
X179578000Y-149860000D03*
X164338000Y-132080000D03*
X179578000Y-152400000D03*
X164338000Y-129540000D03*
X179578000Y-154940000D03*
X164338000Y-127000000D03*
X179578000Y-157480000D03*
D11*
X164338000Y-124460000D03*
D12*
X204025500Y-140970000D03*
D10*
X204025500Y-128270000D03*
X152908000Y-121920000D03*
X160528000Y-104140000D03*
X152908000Y-119380000D03*
X160528000Y-106680000D03*
X152908000Y-116840000D03*
X160528000Y-109220000D03*
X152908000Y-114300000D03*
X160528000Y-111760000D03*
X152908000Y-111760000D03*
X160528000Y-114300000D03*
X152908000Y-109220000D03*
X160528000Y-116840000D03*
X152908000Y-106680000D03*
X160528000Y-119380000D03*
X152908000Y-104140000D03*
D11*
X160528000Y-121920000D03*
X187198000Y-119380000D03*
D10*
X179578000Y-104140000D03*
X187198000Y-116840000D03*
X179578000Y-106680000D03*
X187198000Y-114300000D03*
X179578000Y-109220000D03*
X187198000Y-111760000D03*
X179578000Y-111760000D03*
X187198000Y-109220000D03*
X179578000Y-114300000D03*
X187198000Y-106680000D03*
X179578000Y-116840000D03*
X187198000Y-104140000D03*
X179578000Y-119380000D03*
D11*
X191008000Y-151130000D03*
D10*
X183388000Y-128270000D03*
X191008000Y-148590000D03*
X183388000Y-130810000D03*
X191008000Y-146050000D03*
X183388000Y-133350000D03*
X191008000Y-143510000D03*
X183388000Y-135890000D03*
X191008000Y-140970000D03*
X183388000Y-138430000D03*
X191008000Y-138430000D03*
X183388000Y-140970000D03*
X191008000Y-135890000D03*
X183388000Y-143510000D03*
X191008000Y-133350000D03*
X183388000Y-146050000D03*
X191008000Y-130810000D03*
X183388000Y-148590000D03*
X191008000Y-128270000D03*
X183388000Y-151130000D03*
X194183000Y-119380000D03*
X201803000Y-104140000D03*
X194183000Y-116840000D03*
X201803000Y-106680000D03*
X194183000Y-114300000D03*
X201803000Y-109220000D03*
X194183000Y-111760000D03*
X201803000Y-111760000D03*
X194183000Y-109220000D03*
X201803000Y-114300000D03*
X194183000Y-106680000D03*
X201803000Y-116840000D03*
X194183000Y-104140000D03*
D13*
X201803000Y-119380000D03*
D10*
X193548000Y-151130000D03*
X201168000Y-128270000D03*
X193548000Y-148590000D03*
X201168000Y-130810000D03*
X193548000Y-146050000D03*
X201168000Y-133350000D03*
X193548000Y-143510000D03*
X201168000Y-135890000D03*
X193548000Y-140970000D03*
X201168000Y-138430000D03*
X193548000Y-138430000D03*
X201168000Y-140970000D03*
X193548000Y-135890000D03*
X201168000Y-143510000D03*
X193548000Y-133350000D03*
X201168000Y-146050000D03*
X193548000Y-130810000D03*
X201168000Y-148590000D03*
X193548000Y-128270000D03*
D14*
X201168000Y-151130000D03*
D10*
X211328000Y-119380000D03*
X218948000Y-104140000D03*
X211328000Y-116840000D03*
X218948000Y-106680000D03*
X211328000Y-114300000D03*
X218948000Y-109220000D03*
X211328000Y-111760000D03*
X218948000Y-111760000D03*
X211328000Y-109220000D03*
X218948000Y-114300000D03*
X211328000Y-106680000D03*
X218948000Y-116840000D03*
X211328000Y-104140000D03*
D11*
X218948000Y-119380000D03*
X239268000Y-119380000D03*
D10*
X231648000Y-104140000D03*
X239268000Y-116840000D03*
X231648000Y-106680000D03*
X239268000Y-114300000D03*
X231648000Y-109220000D03*
X239268000Y-111760000D03*
X231648000Y-111760000D03*
X239268000Y-109220000D03*
X231648000Y-114300000D03*
X239268000Y-106680000D03*
X231648000Y-116840000D03*
X239268000Y-104140000D03*
X231648000Y-119380000D03*
D11*
X244348000Y-109220000D03*
D10*
X259588000Y-157480000D03*
X244348000Y-111760000D03*
X259588000Y-154940000D03*
X244348000Y-114300000D03*
X259588000Y-152400000D03*
X244348000Y-116840000D03*
X259588000Y-149860000D03*
X244348000Y-119380000D03*
X259588000Y-147320000D03*
X244348000Y-121920000D03*
X259588000Y-144780000D03*
X244348000Y-124460000D03*
X259588000Y-142240000D03*
X244348000Y-127000000D03*
X259588000Y-139700000D03*
X244348000Y-129540000D03*
X259588000Y-137160000D03*
X244348000Y-132080000D03*
X259588000Y-134620000D03*
X244348000Y-134620000D03*
X259588000Y-132080000D03*
X244348000Y-137160000D03*
X259588000Y-129540000D03*
X244348000Y-139700000D03*
X259588000Y-127000000D03*
X244348000Y-142240000D03*
X259588000Y-124460000D03*
X244348000Y-144780000D03*
X259588000Y-121920000D03*
X244348000Y-147320000D03*
X259588000Y-119380000D03*
X244348000Y-149860000D03*
X259588000Y-116840000D03*
X244348000Y-152400000D03*
X259588000Y-114300000D03*
X244348000Y-154940000D03*
X259588000Y-111760000D03*
X244348000Y-157480000D03*
X259588000Y-109220000D03*
D12*
X149098000Y-121920000D03*
D10*
X149098000Y-111760000D03*
D12*
X267208000Y-133350000D03*
D10*
X267208000Y-123190000D03*
D12*
X208153000Y-114300000D03*
D10*
X208153000Y-104140000D03*
D12*
X227584000Y-114300000D03*
D10*
X227584000Y-104140000D03*
D15*
X223012000Y-118110000D03*
D16*
X223012000Y-113230000D03*
D11*
X222123000Y-156210000D03*
D10*
X206883000Y-123190000D03*
X222123000Y-153670000D03*
X206883000Y-125730000D03*
X222123000Y-151130000D03*
X206883000Y-128270000D03*
X222123000Y-148590000D03*
X206883000Y-130810000D03*
X222123000Y-146050000D03*
X206883000Y-133350000D03*
X222123000Y-143510000D03*
X206883000Y-135890000D03*
X222123000Y-140970000D03*
X206883000Y-138430000D03*
X222123000Y-138430000D03*
X206883000Y-140970000D03*
X222123000Y-135890000D03*
X206883000Y-143510000D03*
X222123000Y-133350000D03*
X206883000Y-146050000D03*
X222123000Y-130810000D03*
X206883000Y-148590000D03*
X222123000Y-128270000D03*
X206883000Y-151130000D03*
X222123000Y-125730000D03*
X206883000Y-153670000D03*
X222123000Y-123190000D03*
X206883000Y-156210000D03*
D11*
X271018000Y-157480000D03*
D10*
X263398000Y-142240000D03*
X271018000Y-154940000D03*
X263398000Y-144780000D03*
X271018000Y-152400000D03*
X263398000Y-147320000D03*
X271018000Y-149860000D03*
X263398000Y-149860000D03*
X271018000Y-147320000D03*
X263398000Y-152400000D03*
X271018000Y-144780000D03*
X263398000Y-154940000D03*
X271018000Y-142240000D03*
X263398000Y-157480000D03*
D17*
X190500000Y-157480000D03*
D18*
X187960000Y-157480000D03*
X185420000Y-157480000D03*
X182880000Y-157480000D03*
D12*
X224028000Y-104140000D03*
X224028000Y-109140000D03*
D11*
X240538000Y-156210000D03*
D10*
X225298000Y-123190000D03*
X240538000Y-153670000D03*
X225298000Y-125730000D03*
X240538000Y-151130000D03*
X225298000Y-128270000D03*
X240538000Y-148590000D03*
X225298000Y-130810000D03*
X240538000Y-146050000D03*
X225298000Y-133350000D03*
X240538000Y-143510000D03*
X225298000Y-135890000D03*
X240538000Y-140970000D03*
X225298000Y-138430000D03*
X240538000Y-138430000D03*
X225298000Y-140970000D03*
X240538000Y-135890000D03*
X225298000Y-143510000D03*
X240538000Y-133350000D03*
X225298000Y-146050000D03*
X240538000Y-130810000D03*
X225298000Y-148590000D03*
X240538000Y-128270000D03*
X225298000Y-151130000D03*
X240538000Y-125730000D03*
X225298000Y-153670000D03*
X240538000Y-123190000D03*
X225298000Y-156210000D03*
D12*
X263398000Y-130810000D03*
X263398000Y-133310000D03*
X204343000Y-148590000D03*
D19*
X204343000Y-143590000D03*
D20*
X203708000Y-158242000D03*
D21*
X196088000Y-158242000D03*
X196088000Y-156019500D03*
D20*
X203708000Y-156019500D03*
X196088000Y-153924000D03*
D21*
X203708000Y-153924000D03*
X141478000Y-111760000D03*
D20*
X141478000Y-121920000D03*
X144018000Y-121920000D03*
D21*
X144018000Y-111760000D03*
X146558000Y-111760000D03*
D20*
X146558000Y-121920000D03*
X190373000Y-114300000D03*
D21*
X190373000Y-104140000D03*
D12*
X168910000Y-119380000D03*
X173910000Y-119380000D03*
X201723000Y-123190000D03*
X196723000Y-123190000D03*
X254428000Y-105410000D03*
X249428000Y-105410000D03*
X268398000Y-137160000D03*
X263398000Y-137160000D03*
X168783000Y-114300000D03*
X173783000Y-114300000D03*
X173783000Y-116840000D03*
X168783000Y-116840000D03*
X187198000Y-123190000D03*
X192198000Y-123190000D03*
D22*
X170688000Y-107950000D03*
X267208000Y-107950000D03*
D23*
X269644000Y-118800000D03*
X263144000Y-118800000D03*
X269644000Y-114300000D03*
X263144000Y-114300000D03*
D24*
G36*
X133985000Y-159543800D02*
G01*
X126488000Y-159543800D01*
X126250220Y-159525086D01*
X126018294Y-159469406D01*
X125797934Y-159378130D01*
X125594566Y-159253506D01*
X125413198Y-159098602D01*
X125258294Y-158917234D01*
X125133670Y-158713866D01*
X125042394Y-158493506D01*
X124986714Y-158261580D01*
X124968000Y-158023800D01*
X124968000Y-102961200D01*
X124972000Y-102961200D01*
X124990714Y-102723420D01*
X125046394Y-102491494D01*
X125137670Y-102271134D01*
X125262294Y-102067766D01*
X125417198Y-101886398D01*
X125598566Y-101731494D01*
X125801934Y-101606870D01*
X126022294Y-101515594D01*
X126254220Y-101459914D01*
X126488000Y-101441200D01*
X133985000Y-101441200D01*
X133985000Y-159543800D01*
X133985000Y-159543800D01*
G37*
X133985000Y-159543800D02*
X126488000Y-159543800D01*
X126250220Y-159525086D01*
X126018294Y-159469406D01*
X125797934Y-159378130D01*
X125594566Y-159253506D01*
X125413198Y-159098602D01*
X125258294Y-158917234D01*
X125133670Y-158713866D01*
X125042394Y-158493506D01*
X124986714Y-158261580D01*
X124968000Y-158023800D01*
X124968000Y-102961200D01*
X124972000Y-102961200D01*
X124990714Y-102723420D01*
X125046394Y-102491494D01*
X125137670Y-102271134D01*
X125262294Y-102067766D01*
X125417198Y-101886398D01*
X125598566Y-101731494D01*
X125801934Y-101606870D01*
X126022294Y-101515594D01*
X126254220Y-101459914D01*
X126488000Y-101441200D01*
X133985000Y-101441200D01*
X133985000Y-159543800D01*
M02*
