G04 #@! TF.GenerationSoftware,KiCad,Pcbnew,5.1.4+dfsg1-1*
G04 #@! TF.CreationDate,2020-01-26T20:04:24+01:00*
G04 #@! TF.ProjectId,finalchesscard_lvr_draft1,66696e61-6c63-4686-9573-73636172645f,1.1.K1*
G04 #@! TF.SameCoordinates,Original*
G04 #@! TF.FileFunction,Copper,L1,Top*
G04 #@! TF.FilePolarity,Positive*
%FSLAX46Y46*%
G04 Gerber Fmt 4.6, Leading zero omitted, Abs format (unit mm)*
G04 Created by KiCad (PCBNEW 5.1.4+dfsg1-1) date 2020-01-26 20:04:24*
%MOMM*%
%LPD*%
G04 APERTURE LIST*
%ADD10O,1.600000X1.600000*%
%ADD11R,1.600000X1.600000*%
%ADD12C,1.600000*%
%ADD13R,8.000000X1.500000*%
%ADD14R,1.200000X1.200000*%
%ADD15R,1.300000X1.600000*%
%ADD16C,1.200000*%
%ADD17C,1.500000*%
%ADD18R,1.700000X1.700000*%
%ADD19O,1.700000X1.700000*%
%ADD20C,1.300000*%
%ADD21R,1.500000X1.500000*%
%ADD22O,1.500000X1.500000*%
%ADD23C,1.700000*%
%ADD24C,1.000000*%
%ADD25C,0.700000*%
%ADD26C,0.800000*%
%ADD27C,0.400000*%
%ADD28C,1.000000*%
%ADD29C,0.630000*%
G04 APERTURE END LIST*
D10*
X179578000Y-124460000D03*
X164338000Y-157480000D03*
X179578000Y-127000000D03*
X164338000Y-154940000D03*
X179578000Y-129540000D03*
X164338000Y-152400000D03*
X179578000Y-132080000D03*
X164338000Y-149860000D03*
X179578000Y-134620000D03*
X164338000Y-147320000D03*
X179578000Y-137160000D03*
X164338000Y-144780000D03*
X179578000Y-139700000D03*
X164338000Y-142240000D03*
X179578000Y-142240000D03*
X164338000Y-139700000D03*
X179578000Y-144780000D03*
X164338000Y-137160000D03*
X179578000Y-147320000D03*
X164338000Y-134620000D03*
X179578000Y-149860000D03*
X164338000Y-132080000D03*
X179578000Y-152400000D03*
X164338000Y-129540000D03*
X179578000Y-154940000D03*
X164338000Y-127000000D03*
X179578000Y-157480000D03*
D11*
X164338000Y-124460000D03*
D12*
X204025500Y-140970000D03*
D10*
X204025500Y-128270000D03*
D13*
X129668000Y-157160000D03*
X129668000Y-154620000D03*
X129668000Y-152080000D03*
X129668000Y-149540000D03*
X129668000Y-147000000D03*
X129668000Y-144460000D03*
X129668000Y-141920000D03*
X129668000Y-139380000D03*
X129668000Y-136840000D03*
X129668000Y-134300000D03*
X129668000Y-131760000D03*
X129668000Y-129220000D03*
X129668000Y-126680000D03*
X129668000Y-124140000D03*
X129668000Y-121600000D03*
X129668000Y-119060000D03*
X129668000Y-116520000D03*
X129668000Y-113980000D03*
X129668000Y-111440000D03*
X129668000Y-108900000D03*
X129668000Y-106360000D03*
X129668000Y-103820000D03*
D10*
X152908000Y-121920000D03*
X160528000Y-104140000D03*
X152908000Y-119380000D03*
X160528000Y-106680000D03*
X152908000Y-116840000D03*
X160528000Y-109220000D03*
X152908000Y-114300000D03*
X160528000Y-111760000D03*
X152908000Y-111760000D03*
X160528000Y-114300000D03*
X152908000Y-109220000D03*
X160528000Y-116840000D03*
X152908000Y-106680000D03*
X160528000Y-119380000D03*
X152908000Y-104140000D03*
D11*
X160528000Y-121920000D03*
X187198000Y-119380000D03*
D10*
X179578000Y-104140000D03*
X187198000Y-116840000D03*
X179578000Y-106680000D03*
X187198000Y-114300000D03*
X179578000Y-109220000D03*
X187198000Y-111760000D03*
X179578000Y-111760000D03*
X187198000Y-109220000D03*
X179578000Y-114300000D03*
X187198000Y-106680000D03*
X179578000Y-116840000D03*
X187198000Y-104140000D03*
X179578000Y-119380000D03*
D11*
X191008000Y-151130000D03*
D10*
X183388000Y-128270000D03*
X191008000Y-148590000D03*
X183388000Y-130810000D03*
X191008000Y-146050000D03*
X183388000Y-133350000D03*
X191008000Y-143510000D03*
X183388000Y-135890000D03*
X191008000Y-140970000D03*
X183388000Y-138430000D03*
X191008000Y-138430000D03*
X183388000Y-140970000D03*
X191008000Y-135890000D03*
X183388000Y-143510000D03*
X191008000Y-133350000D03*
X183388000Y-146050000D03*
X191008000Y-130810000D03*
X183388000Y-148590000D03*
X191008000Y-128270000D03*
X183388000Y-151130000D03*
X194183000Y-119380000D03*
X201803000Y-104140000D03*
X194183000Y-116840000D03*
X201803000Y-106680000D03*
X194183000Y-114300000D03*
X201803000Y-109220000D03*
X194183000Y-111760000D03*
X201803000Y-111760000D03*
X194183000Y-109220000D03*
X201803000Y-114300000D03*
X194183000Y-106680000D03*
X201803000Y-116840000D03*
X194183000Y-104140000D03*
D14*
X201803000Y-119380000D03*
D10*
X193548000Y-151130000D03*
X201168000Y-128270000D03*
X193548000Y-148590000D03*
X201168000Y-130810000D03*
X193548000Y-146050000D03*
X201168000Y-133350000D03*
X193548000Y-143510000D03*
X201168000Y-135890000D03*
X193548000Y-140970000D03*
X201168000Y-138430000D03*
X193548000Y-138430000D03*
X201168000Y-140970000D03*
X193548000Y-135890000D03*
X201168000Y-143510000D03*
X193548000Y-133350000D03*
X201168000Y-146050000D03*
X193548000Y-130810000D03*
X201168000Y-148590000D03*
X193548000Y-128270000D03*
D15*
X201168000Y-151130000D03*
D10*
X211328000Y-119380000D03*
X218948000Y-104140000D03*
X211328000Y-116840000D03*
X218948000Y-106680000D03*
X211328000Y-114300000D03*
X218948000Y-109220000D03*
X211328000Y-111760000D03*
X218948000Y-111760000D03*
X211328000Y-109220000D03*
X218948000Y-114300000D03*
X211328000Y-106680000D03*
X218948000Y-116840000D03*
X211328000Y-104140000D03*
D11*
X218948000Y-119380000D03*
X239268000Y-119380000D03*
D10*
X231648000Y-104140000D03*
X239268000Y-116840000D03*
X231648000Y-106680000D03*
X239268000Y-114300000D03*
X231648000Y-109220000D03*
X239268000Y-111760000D03*
X231648000Y-111760000D03*
X239268000Y-109220000D03*
X231648000Y-114300000D03*
X239268000Y-106680000D03*
X231648000Y-116840000D03*
X239268000Y-104140000D03*
X231648000Y-119380000D03*
D11*
X244348000Y-109220000D03*
D10*
X259588000Y-157480000D03*
X244348000Y-111760000D03*
X259588000Y-154940000D03*
X244348000Y-114300000D03*
X259588000Y-152400000D03*
X244348000Y-116840000D03*
X259588000Y-149860000D03*
X244348000Y-119380000D03*
X259588000Y-147320000D03*
X244348000Y-121920000D03*
X259588000Y-144780000D03*
X244348000Y-124460000D03*
X259588000Y-142240000D03*
X244348000Y-127000000D03*
X259588000Y-139700000D03*
X244348000Y-129540000D03*
X259588000Y-137160000D03*
X244348000Y-132080000D03*
X259588000Y-134620000D03*
X244348000Y-134620000D03*
X259588000Y-132080000D03*
X244348000Y-137160000D03*
X259588000Y-129540000D03*
X244348000Y-139700000D03*
X259588000Y-127000000D03*
X244348000Y-142240000D03*
X259588000Y-124460000D03*
X244348000Y-144780000D03*
X259588000Y-121920000D03*
X244348000Y-147320000D03*
X259588000Y-119380000D03*
X244348000Y-149860000D03*
X259588000Y-116840000D03*
X244348000Y-152400000D03*
X259588000Y-114300000D03*
X244348000Y-154940000D03*
X259588000Y-111760000D03*
X244348000Y-157480000D03*
X259588000Y-109220000D03*
D12*
X149098000Y-121920000D03*
D10*
X149098000Y-111760000D03*
D12*
X267208000Y-133350000D03*
D10*
X267208000Y-123190000D03*
D12*
X208153000Y-114300000D03*
D10*
X208153000Y-104140000D03*
D12*
X227584000Y-114300000D03*
D10*
X227584000Y-104140000D03*
D16*
X223012000Y-118110000D03*
D17*
X223012000Y-113230000D03*
D11*
X222123000Y-156210000D03*
D10*
X206883000Y-123190000D03*
X222123000Y-153670000D03*
X206883000Y-125730000D03*
X222123000Y-151130000D03*
X206883000Y-128270000D03*
X222123000Y-148590000D03*
X206883000Y-130810000D03*
X222123000Y-146050000D03*
X206883000Y-133350000D03*
X222123000Y-143510000D03*
X206883000Y-135890000D03*
X222123000Y-140970000D03*
X206883000Y-138430000D03*
X222123000Y-138430000D03*
X206883000Y-140970000D03*
X222123000Y-135890000D03*
X206883000Y-143510000D03*
X222123000Y-133350000D03*
X206883000Y-146050000D03*
X222123000Y-130810000D03*
X206883000Y-148590000D03*
X222123000Y-128270000D03*
X206883000Y-151130000D03*
X222123000Y-125730000D03*
X206883000Y-153670000D03*
X222123000Y-123190000D03*
X206883000Y-156210000D03*
D11*
X271018000Y-157480000D03*
D10*
X263398000Y-142240000D03*
X271018000Y-154940000D03*
X263398000Y-144780000D03*
X271018000Y-152400000D03*
X263398000Y-147320000D03*
X271018000Y-149860000D03*
X263398000Y-149860000D03*
X271018000Y-147320000D03*
X263398000Y-152400000D03*
X271018000Y-144780000D03*
X263398000Y-154940000D03*
X271018000Y-142240000D03*
X263398000Y-157480000D03*
D18*
X190500000Y-157480000D03*
D19*
X187960000Y-157480000D03*
X185420000Y-157480000D03*
X182880000Y-157480000D03*
D12*
X224028000Y-104140000D03*
X224028000Y-109140000D03*
D11*
X240538000Y-156210000D03*
D10*
X225298000Y-123190000D03*
X240538000Y-153670000D03*
X225298000Y-125730000D03*
X240538000Y-151130000D03*
X225298000Y-128270000D03*
X240538000Y-148590000D03*
X225298000Y-130810000D03*
X240538000Y-146050000D03*
X225298000Y-133350000D03*
X240538000Y-143510000D03*
X225298000Y-135890000D03*
X240538000Y-140970000D03*
X225298000Y-138430000D03*
X240538000Y-138430000D03*
X225298000Y-140970000D03*
X240538000Y-135890000D03*
X225298000Y-143510000D03*
X240538000Y-133350000D03*
X225298000Y-146050000D03*
X240538000Y-130810000D03*
X225298000Y-148590000D03*
X240538000Y-128270000D03*
X225298000Y-151130000D03*
X240538000Y-125730000D03*
X225298000Y-153670000D03*
X240538000Y-123190000D03*
X225298000Y-156210000D03*
D12*
X263398000Y-130810000D03*
X263398000Y-133310000D03*
X204343000Y-148590000D03*
D20*
X204343000Y-143590000D03*
D21*
X203708000Y-158242000D03*
D22*
X196088000Y-158242000D03*
X196088000Y-156019500D03*
D21*
X203708000Y-156019500D03*
X196088000Y-153924000D03*
D22*
X203708000Y-153924000D03*
X141478000Y-111760000D03*
D21*
X141478000Y-121920000D03*
X144018000Y-121920000D03*
D22*
X144018000Y-111760000D03*
X146558000Y-111760000D03*
D21*
X146558000Y-121920000D03*
X190373000Y-114300000D03*
D22*
X190373000Y-104140000D03*
D12*
X168910000Y-119380000D03*
X173910000Y-119380000D03*
X201723000Y-123190000D03*
X196723000Y-123190000D03*
X254428000Y-105410000D03*
X249428000Y-105410000D03*
X268398000Y-137160000D03*
X263398000Y-137160000D03*
X168783000Y-114300000D03*
X173783000Y-114300000D03*
X173783000Y-116840000D03*
X168783000Y-116840000D03*
X187198000Y-123190000D03*
X192198000Y-123190000D03*
D23*
X269644000Y-118800000D03*
X263144000Y-118800000D03*
X269644000Y-114300000D03*
X263144000Y-114300000D03*
D24*
X135763000Y-104140000D03*
X171958000Y-122555000D03*
X171958000Y-139700000D03*
X171958000Y-157480000D03*
X213868000Y-123190000D03*
X213868000Y-140970000D03*
X135763000Y-157480000D03*
X150368000Y-132080000D03*
X135763000Y-135890000D03*
X140843000Y-134620000D03*
X177673000Y-134620000D03*
X137033000Y-132080000D03*
X180848000Y-130810000D03*
X139573000Y-132080000D03*
X173863000Y-130810000D03*
X173863000Y-142240000D03*
X137033000Y-125730000D03*
X176403000Y-128270000D03*
X138303000Y-127000000D03*
X135763000Y-115570000D03*
X175768000Y-111760000D03*
X167513000Y-149860000D03*
X167513000Y-156210000D03*
X195453000Y-140970000D03*
X166243000Y-137160000D03*
X195453000Y-148590000D03*
X195453000Y-144780000D03*
X173863000Y-148590000D03*
D25*
X189738000Y-149860000D03*
D24*
X176403000Y-144780000D03*
X180848000Y-140970000D03*
X189103000Y-138430000D03*
X168783000Y-143510000D03*
X168783000Y-152400000D03*
X168783000Y-140970000D03*
X177673000Y-146050000D03*
X170053000Y-146050000D03*
X187198000Y-137160000D03*
X195453000Y-138430000D03*
X161798000Y-133350000D03*
X175133000Y-133350000D03*
X175133000Y-147320000D03*
X171323000Y-120650000D03*
X156718000Y-110490000D03*
X145288000Y-119380000D03*
D25*
X185928000Y-118110000D03*
D24*
X146558000Y-109220000D03*
X182753000Y-111760000D03*
X151003000Y-109220000D03*
X165608000Y-110490000D03*
X234823000Y-158115000D03*
X173863000Y-124460000D03*
X185293000Y-121285000D03*
X234823000Y-121285000D03*
X254508000Y-111760000D03*
X249428000Y-116840000D03*
X241808000Y-121285000D03*
X155448000Y-106680000D03*
X157988000Y-107950000D03*
X177038000Y-120650000D03*
X165608000Y-114300000D03*
X199898000Y-123190000D03*
X201803000Y-125730000D03*
X203073000Y-107950000D03*
X229108000Y-107950000D03*
X210693000Y-144780000D03*
X213868000Y-116840000D03*
X253873000Y-120650000D03*
X227584000Y-116840000D03*
X247523000Y-124460000D03*
X227203000Y-128270000D03*
X197231000Y-129540000D03*
X197231000Y-133350000D03*
X220853000Y-142240000D03*
X253873000Y-128270000D03*
X211963000Y-124460000D03*
X211963000Y-134620000D03*
X188468000Y-140970000D03*
X209423000Y-137160000D03*
X255143000Y-125730000D03*
X196723000Y-137160000D03*
X252603000Y-137795000D03*
X196088000Y-132080000D03*
X247523000Y-132080000D03*
X227203000Y-125730000D03*
X219583000Y-147320000D03*
X242443000Y-105410000D03*
X237998000Y-110490000D03*
X227203000Y-106680000D03*
X227076000Y-110490000D03*
X255778000Y-118110000D03*
X217678000Y-133350000D03*
X251333000Y-119380000D03*
D26*
X216916000Y-115824000D03*
X216408000Y-117856000D03*
D24*
X247523000Y-149860000D03*
X230378000Y-154940000D03*
X238633000Y-156210000D03*
X247523000Y-154940000D03*
X227838000Y-149225000D03*
X218948000Y-135890000D03*
X233553000Y-154940000D03*
X233553000Y-139700000D03*
X229743000Y-135890000D03*
X236093000Y-148590000D03*
X232283000Y-148590000D03*
X229743000Y-149860000D03*
X237363000Y-152400000D03*
X262128000Y-120904000D03*
X262128000Y-106045000D03*
X144018000Y-109220000D03*
X135763000Y-111760000D03*
X158623000Y-105410000D03*
X162433000Y-104140000D03*
X170053000Y-138430000D03*
X163068000Y-114300000D03*
D27*
X270065500Y-132556200D02*
X271653000Y-132556200D01*
X271653000Y-132556200D02*
X271653000Y-132715000D01*
X271653000Y-132715000D02*
X270065500Y-133508800D01*
X270065500Y-133508800D02*
X271653000Y-133508800D01*
X182118000Y-154622500D02*
X181959200Y-154463800D01*
X181959200Y-154463800D02*
X181641800Y-154463800D01*
X181641800Y-154463800D02*
X181324200Y-154781200D01*
X181324200Y-154781200D02*
X181324200Y-155416200D01*
X181324200Y-155416200D02*
X181641800Y-155733800D01*
X181641800Y-155733800D02*
X181959200Y-155733800D01*
X181959200Y-155733800D02*
X182118000Y-155575000D01*
X182118000Y-155575000D02*
X182118000Y-155257500D01*
X182118000Y-155257500D02*
X181959200Y-155098800D01*
X181959200Y-155098800D02*
X181641800Y-155098800D01*
X182594200Y-155733800D02*
X182594200Y-154463800D01*
X182594200Y-154463800D02*
X182753000Y-154463800D01*
X182753000Y-154463800D02*
X183388000Y-155733800D01*
X183388000Y-155733800D02*
X183388000Y-154463800D01*
X183864200Y-154463800D02*
X183864200Y-155733800D01*
X183864200Y-155733800D02*
X184340500Y-155733800D01*
X184340500Y-155733800D02*
X184658000Y-155416200D01*
X184658000Y-155416200D02*
X184658000Y-154781200D01*
X184658000Y-154781200D02*
X184340500Y-154463800D01*
X184340500Y-154463800D02*
X183864200Y-154463800D01*
X189579200Y-155098800D02*
X190531800Y-155098800D01*
X190055500Y-154622500D02*
X190055500Y-155575000D01*
X191008000Y-154463800D02*
X191801800Y-154463800D01*
X191801800Y-154463800D02*
X191484200Y-154940000D01*
X191484200Y-154940000D02*
X191801800Y-155098800D01*
X191801800Y-155098800D02*
X191801800Y-155575000D01*
X191801800Y-155575000D02*
X191484200Y-155733800D01*
X191484200Y-155733800D02*
X191166800Y-155733800D01*
X191166800Y-155733800D02*
X191008000Y-155575000D01*
X270383000Y-121920000D02*
X270065500Y-121602500D01*
X270065500Y-121602500D02*
X270065500Y-121126200D01*
X270065500Y-121126200D02*
X270541800Y-120808800D01*
X270541800Y-120808800D02*
X271176800Y-120808800D01*
X271176800Y-120808800D02*
X271653000Y-121126200D01*
X271653000Y-121126200D02*
X271653000Y-121602500D01*
X271653000Y-121602500D02*
X271335500Y-121920000D01*
X270065500Y-124142500D02*
X271653000Y-124142500D01*
X271653000Y-124142500D02*
X271653000Y-124301200D01*
X271653000Y-124301200D02*
X271005200Y-124670000D01*
X271005200Y-124670000D02*
X271653000Y-125095000D01*
X271653000Y-125095000D02*
X271653000Y-125253800D01*
X271653000Y-125253800D02*
X270065500Y-125253800D01*
X270541800Y-122555000D02*
X271176800Y-122555000D01*
X271176800Y-122555000D02*
X271653000Y-122872500D01*
X271653000Y-122872500D02*
X271653000Y-123348800D01*
X271653000Y-123348800D02*
X271176800Y-123666200D01*
X271176800Y-123666200D02*
X270541800Y-123666200D01*
X270541800Y-123666200D02*
X270065500Y-123348800D01*
X270065500Y-123348800D02*
X270065500Y-122872500D01*
X270065500Y-122872500D02*
X270541800Y-122555000D01*
X270065500Y-125888800D02*
X271653000Y-125888800D01*
X271653000Y-125888800D02*
X271653000Y-126682500D01*
X271653000Y-126682500D02*
X271494200Y-126841200D01*
X271494200Y-126841200D02*
X271018000Y-126841200D01*
X271018000Y-126841200D02*
X270859200Y-126682500D01*
X270859200Y-126682500D02*
X270859200Y-126047500D01*
X270541800Y-127476200D02*
X271176800Y-127476200D01*
X271176800Y-127476200D02*
X271653000Y-127793800D01*
X271653000Y-127793800D02*
X271653000Y-128270000D01*
X271653000Y-128270000D02*
X271176800Y-128587500D01*
X271176800Y-128587500D02*
X270541800Y-128587500D01*
X270541800Y-128587500D02*
X270065500Y-128270000D01*
X270065500Y-128270000D02*
X270065500Y-127793800D01*
X270065500Y-127793800D02*
X270541800Y-127476200D01*
X270065500Y-129222500D02*
X271653000Y-129222500D01*
X271653000Y-129222500D02*
X271653000Y-129381200D01*
X271653000Y-129381200D02*
X270065500Y-130175000D01*
X270065500Y-130175000D02*
X271653000Y-130175000D01*
X270065500Y-131921200D02*
X270065500Y-130810000D01*
X270065500Y-130810000D02*
X270859200Y-130810000D01*
X270859200Y-130810000D02*
X270859200Y-131603800D01*
X270859200Y-131603800D02*
X270859200Y-130810000D01*
X270859200Y-130810000D02*
X271653000Y-130810000D01*
X271653000Y-130810000D02*
X271653000Y-131921200D01*
X271653000Y-135096200D02*
X271653000Y-134143800D01*
X271653000Y-134143800D02*
X271653000Y-134620000D01*
X271653000Y-134620000D02*
X270065500Y-134620000D01*
D28*
X132588000Y-104140000D02*
X150685500Y-104140000D01*
X151320500Y-102235000D02*
X160528000Y-102235000D01*
X151003000Y-102552500D02*
X151320500Y-102235000D01*
X151003000Y-103822500D02*
X151003000Y-102552500D01*
X150685500Y-104140000D02*
X151003000Y-103822500D01*
X160528000Y-102235000D02*
X160528000Y-104140000D01*
X160528000Y-102235000D02*
X187198000Y-102235000D01*
D29*
X187198000Y-102235000D02*
X187198000Y-104140000D01*
D28*
X187198000Y-102235000D02*
X201803000Y-102235000D01*
D29*
X201803000Y-102235000D02*
X201803000Y-104140000D01*
D28*
X201803000Y-102235000D02*
X218948000Y-102235000D01*
D29*
X218948000Y-102235000D02*
X218948000Y-104140000D01*
D28*
X218948000Y-102235000D02*
X231648000Y-102235000D01*
X231648000Y-102235000D02*
X239268000Y-102235000D01*
D29*
X239268000Y-102235000D02*
X239268000Y-104140000D01*
D28*
X239268000Y-102235000D02*
X244348000Y-102235000D01*
D29*
X244348000Y-102235000D02*
X244348000Y-109220000D01*
D28*
X244348000Y-102235000D02*
X249428000Y-102235000D01*
D29*
X249428000Y-102235000D02*
X249428000Y-105410000D01*
D28*
X249428000Y-102235000D02*
X272923000Y-102235000D01*
X272923000Y-102235000D02*
X272923000Y-137160000D01*
D29*
X272923000Y-137160000D02*
X268478000Y-137160000D01*
D28*
X272923000Y-137160000D02*
X272923000Y-141922500D01*
D29*
X272923000Y-141922500D02*
X272605500Y-142240000D01*
X272605500Y-142240000D02*
X271018000Y-142240000D01*
D28*
X171958000Y-122555000D02*
X181800500Y-122555000D01*
X181800500Y-122555000D02*
X182118000Y-122872500D01*
X182118000Y-122872500D02*
X182118000Y-125730000D01*
D29*
X191008000Y-125730000D02*
X191008000Y-128270000D01*
D28*
X191008000Y-125730000D02*
X198310500Y-125730000D01*
X198310500Y-125730000D02*
X198628000Y-126047500D01*
X198628000Y-126047500D02*
X198628000Y-127952500D01*
X198628000Y-127952500D02*
X198945500Y-128270000D01*
X198945500Y-128270000D02*
X204660500Y-128270000D01*
X204660500Y-128270000D02*
X204978000Y-127952500D01*
X204978000Y-127952500D02*
X204978000Y-121602500D01*
X204978000Y-121602500D02*
X205295500Y-121285000D01*
X205295500Y-121285000D02*
X212915500Y-121285000D01*
X212915500Y-121285000D02*
X213868000Y-122237500D01*
X213868000Y-122237500D02*
X213868000Y-123190000D01*
X213868000Y-123190000D02*
X222123000Y-123190000D01*
X206883000Y-140970000D02*
X213868000Y-140970000D01*
D29*
X196723000Y-125730000D02*
X196723000Y-123190000D01*
D27*
X201803000Y-116840000D02*
X198945500Y-116840000D01*
X198945500Y-116840000D02*
X196405500Y-114300000D01*
X196405500Y-114300000D02*
X194183000Y-114300000D01*
D28*
X179578000Y-139700000D02*
X171958000Y-139700000D01*
X132588000Y-157480000D02*
X171958000Y-157480000D01*
D29*
X187198000Y-123190000D02*
X187198000Y-125730000D01*
D28*
X182118000Y-125730000D02*
X187198000Y-125730000D01*
X187198000Y-125730000D02*
X191008000Y-125730000D01*
D27*
X172275500Y-158750000D02*
X171958000Y-158432500D01*
X171958000Y-158432500D02*
X171958000Y-157480000D01*
X182372000Y-158750000D02*
X172275500Y-158750000D01*
X182880000Y-157480000D02*
X182880000Y-158432500D01*
X182880000Y-158432500D02*
X182372000Y-158750000D01*
X187960000Y-157480000D02*
X182880000Y-157480000D01*
D28*
X239406630Y-123190000D02*
X240538000Y-123190000D01*
X228346000Y-123190000D02*
X239406630Y-123190000D01*
X222922999Y-122390001D02*
X223049999Y-122390001D01*
X223049999Y-122390001D02*
X224155000Y-121285000D01*
X222123000Y-123190000D02*
X222922999Y-122390001D01*
X224155000Y-121285000D02*
X226441000Y-121285000D01*
X226441000Y-121285000D02*
X228346000Y-123190000D01*
D27*
X272923000Y-157895002D02*
X272923000Y-141922500D01*
X272138001Y-158680001D02*
X272923000Y-157895002D01*
X260788001Y-158680001D02*
X272138001Y-158680001D01*
X259588000Y-157480000D02*
X260788001Y-158680001D01*
X164338000Y-132080000D02*
X150368000Y-132080000D01*
X164338000Y-129540000D02*
X138620500Y-129540000D01*
X138620500Y-129540000D02*
X138303000Y-129857500D01*
X138303000Y-129857500D02*
X138303000Y-134302500D01*
X138303000Y-134302500D02*
X137985500Y-134620000D01*
X137985500Y-134620000D02*
X136080500Y-134620000D01*
X136080500Y-134620000D02*
X135763000Y-134937500D01*
X135763000Y-134937500D02*
X135763000Y-135890000D01*
X177673000Y-134620000D02*
X165925500Y-134620000D01*
X165925500Y-134620000D02*
X165608000Y-134937500D01*
X165608000Y-134937500D02*
X165608000Y-135572500D01*
X165608000Y-135572500D02*
X165290500Y-135890000D01*
X165290500Y-135890000D02*
X163385500Y-135890000D01*
X163385500Y-135890000D02*
X163068000Y-135572500D01*
X163068000Y-135572500D02*
X163068000Y-134937500D01*
X163068000Y-134937500D02*
X162750500Y-134620000D01*
X162750500Y-134620000D02*
X140843000Y-134620000D01*
X137033000Y-132080000D02*
X137033000Y-128587500D01*
X137033000Y-128587500D02*
X137350500Y-128270000D01*
X137350500Y-128270000D02*
X165925500Y-128270000D01*
X165925500Y-128270000D02*
X166243000Y-128587500D01*
X166243000Y-128587500D02*
X166243000Y-129222500D01*
X166243000Y-129222500D02*
X166560500Y-129540000D01*
X166560500Y-129540000D02*
X177990500Y-129540000D01*
X177990500Y-129540000D02*
X178308000Y-129857500D01*
X178308000Y-129857500D02*
X178308000Y-130492500D01*
X178308000Y-130492500D02*
X178625500Y-130810000D01*
X178625500Y-130810000D02*
X180848000Y-130810000D01*
X139573000Y-132080000D02*
X140525500Y-132080000D01*
X140525500Y-132080000D02*
X140843000Y-131762500D01*
X140843000Y-131762500D02*
X140843000Y-131127500D01*
X140843000Y-131127500D02*
X141160500Y-130810000D01*
X141160500Y-130810000D02*
X173863000Y-130810000D01*
X179578000Y-142240000D02*
X173863000Y-142240000D01*
X176403000Y-128270000D02*
X167830500Y-128270000D01*
X167830500Y-128270000D02*
X167513000Y-127952500D01*
X167513000Y-127952500D02*
X167513000Y-127317500D01*
X167513000Y-127317500D02*
X167195500Y-127000000D01*
X167195500Y-127000000D02*
X165925500Y-127000000D01*
X165925500Y-127000000D02*
X165608000Y-126682500D01*
X165608000Y-126682500D02*
X165608000Y-126047500D01*
X165608000Y-126047500D02*
X165290500Y-125730000D01*
X165290500Y-125730000D02*
X137033000Y-125730000D01*
X164338000Y-127000000D02*
X138303000Y-127000000D01*
X164338000Y-115252500D02*
X164020500Y-115570000D01*
X164338000Y-112077500D02*
X164338000Y-115252500D01*
X164020500Y-115570000D02*
X135763000Y-115570000D01*
X175768000Y-111760000D02*
X172720000Y-111760000D01*
X172402500Y-112077500D02*
X172720000Y-111760000D01*
X164338000Y-112077500D02*
X172402500Y-112077500D01*
X200533000Y-140970000D02*
X195453000Y-140970000D01*
X164338000Y-149860000D02*
X176720500Y-149860000D01*
X176720500Y-149860000D02*
X177038000Y-149542500D01*
X177038000Y-149542500D02*
X177038000Y-148907500D01*
X177038000Y-148907500D02*
X177355500Y-148590000D01*
X177355500Y-148590000D02*
X180530500Y-148590000D01*
X180530500Y-148590000D02*
X180848000Y-148272500D01*
X180848000Y-148272500D02*
X180848000Y-145097500D01*
X180848000Y-145097500D02*
X181165500Y-144780000D01*
X181165500Y-144780000D02*
X184340500Y-144780000D01*
X184340500Y-144780000D02*
X184658000Y-144462500D01*
X184658000Y-144462500D02*
X184658000Y-143827500D01*
X184658000Y-143827500D02*
X184975500Y-143510000D01*
X184975500Y-143510000D02*
X191008000Y-143510000D01*
X167513000Y-156210000D02*
X163385500Y-156210000D01*
X163385500Y-156210000D02*
X163068000Y-155892500D01*
X163068000Y-155892500D02*
X163068000Y-155257500D01*
X163068000Y-155257500D02*
X162750500Y-154940000D01*
X162750500Y-154940000D02*
X132588000Y-154940000D01*
X166243000Y-137160000D02*
X177990500Y-137160000D01*
X177990500Y-137160000D02*
X178308000Y-136842500D01*
X178308000Y-136842500D02*
X178308000Y-136207500D01*
X178308000Y-136207500D02*
X178625500Y-135890000D01*
X178625500Y-135890000D02*
X180530500Y-135890000D01*
X180530500Y-135890000D02*
X180848000Y-135572500D01*
X180848000Y-135572500D02*
X180848000Y-134937500D01*
X180848000Y-134937500D02*
X181483000Y-134302500D01*
X181483000Y-134302500D02*
X181483000Y-133667500D01*
X181483000Y-133667500D02*
X181800500Y-133350000D01*
X181800500Y-133350000D02*
X189420500Y-133350000D01*
X189420500Y-133350000D02*
X189738000Y-133667500D01*
X189738000Y-133667500D02*
X189738000Y-134302500D01*
X189738000Y-134302500D02*
X190055500Y-134620000D01*
X132588000Y-152400000D02*
X164338000Y-152400000D01*
X194054002Y-134620000D02*
X194945000Y-133729002D01*
X190055500Y-134620000D02*
X194054002Y-134620000D01*
X194945000Y-133729002D02*
X194945000Y-131445000D01*
X195580000Y-130810000D02*
X201168000Y-130810000D01*
X194945000Y-131445000D02*
X195580000Y-130810000D01*
X195453000Y-144780000D02*
X190055500Y-144780000D01*
X190055500Y-144780000D02*
X189738000Y-145097500D01*
X189738000Y-145097500D02*
X189738000Y-145732500D01*
X189738000Y-145732500D02*
X189420500Y-146050000D01*
X189420500Y-146050000D02*
X183388000Y-146050000D01*
X183388000Y-146050000D02*
X182435500Y-146050000D01*
X182435500Y-146050000D02*
X182118000Y-146367500D01*
X182118000Y-146367500D02*
X182118000Y-150812500D01*
X182118000Y-150812500D02*
X181800500Y-151130000D01*
X181800500Y-151130000D02*
X163385500Y-151130000D01*
X163385500Y-151130000D02*
X163068000Y-150812500D01*
X163068000Y-150812500D02*
X163068000Y-150177500D01*
X163068000Y-150177500D02*
X162750500Y-149860000D01*
X162750500Y-149860000D02*
X132588000Y-149860000D01*
X164338000Y-154940000D02*
X165290500Y-154940000D01*
X165290500Y-154940000D02*
X165608000Y-154622500D01*
X165608000Y-154622500D02*
X165608000Y-151130000D01*
X200533000Y-148590000D02*
X195453000Y-148590000D01*
X132588000Y-147320000D02*
X162750500Y-147320000D01*
X162750500Y-147320000D02*
X163068000Y-147637500D01*
X163068000Y-147637500D02*
X163068000Y-148272500D01*
X163068000Y-148272500D02*
X163385500Y-148590000D01*
X163385500Y-148590000D02*
X173863000Y-148590000D01*
X179578000Y-157480000D02*
X178625500Y-157480000D01*
X178625500Y-157480000D02*
X178308000Y-157162500D01*
X178308000Y-157162500D02*
X178308000Y-153987500D01*
X178308000Y-153987500D02*
X178625500Y-153670000D01*
X178625500Y-153670000D02*
X180530500Y-153670000D01*
X180530500Y-153670000D02*
X180848000Y-153352500D01*
X180848000Y-153352500D02*
X180848000Y-152717500D01*
X180848000Y-152717500D02*
X181165500Y-152400000D01*
X181165500Y-152400000D02*
X186245500Y-152400000D01*
X186245500Y-152400000D02*
X188785500Y-149860000D01*
X188785500Y-149860000D02*
X192595500Y-149860000D01*
X192595500Y-149860000D02*
X192913000Y-149542500D01*
X192913000Y-149542500D02*
X192913000Y-148590000D01*
X189103000Y-138430000D02*
X184975500Y-138430000D01*
X184975500Y-138430000D02*
X184658000Y-138747500D01*
X184658000Y-138747500D02*
X184658000Y-139382500D01*
X184658000Y-139382500D02*
X184340500Y-139700000D01*
X184340500Y-139700000D02*
X182435500Y-139700000D01*
X182435500Y-139700000D02*
X182118000Y-140017500D01*
X182118000Y-140017500D02*
X182118000Y-140652500D01*
X182118000Y-140652500D02*
X181800500Y-140970000D01*
X181800500Y-140970000D02*
X180848000Y-140970000D01*
X176403000Y-144780000D02*
X165925500Y-144780000D01*
X165925500Y-144780000D02*
X165608000Y-145097500D01*
X165608000Y-145097500D02*
X165608000Y-145732500D01*
X165608000Y-145732500D02*
X165290500Y-146050000D01*
X165290500Y-146050000D02*
X163385500Y-146050000D01*
X163385500Y-146050000D02*
X163068000Y-145732500D01*
X163068000Y-145732500D02*
X163068000Y-145097500D01*
X163068000Y-145097500D02*
X162750500Y-144780000D01*
X162750500Y-144780000D02*
X132588000Y-144780000D01*
X192913000Y-140970000D02*
X191960500Y-139700000D01*
X191960500Y-139700000D02*
X190055500Y-139700000D01*
X190055500Y-139700000D02*
X189738000Y-140017500D01*
X189738000Y-140017500D02*
X189738000Y-141922500D01*
X189738000Y-141922500D02*
X189420500Y-142240000D01*
X189420500Y-142240000D02*
X183705500Y-142240000D01*
X183705500Y-142240000D02*
X183388000Y-142557500D01*
X183388000Y-142557500D02*
X183388000Y-143510000D01*
X132588000Y-142240000D02*
X162750500Y-142240000D01*
X162750500Y-142240000D02*
X163068000Y-142557500D01*
X163068000Y-142557500D02*
X163068000Y-143192500D01*
X163068000Y-143192500D02*
X163385500Y-143510000D01*
X163385500Y-143510000D02*
X168783000Y-143510000D01*
X168783000Y-152400000D02*
X179578000Y-152400000D01*
X187198000Y-137160000D02*
X183705500Y-137160000D01*
X183705500Y-137160000D02*
X183388000Y-136842500D01*
X183388000Y-136842500D02*
X183388000Y-135890000D01*
X168783000Y-140970000D02*
X163385500Y-140970000D01*
X163385500Y-140970000D02*
X163068000Y-140652500D01*
X163068000Y-140652500D02*
X163068000Y-140017500D01*
X163068000Y-140017500D02*
X162750500Y-139700000D01*
X162750500Y-139700000D02*
X132588000Y-139700000D01*
X177673000Y-146050000D02*
X170053000Y-146050000D01*
X200533000Y-138430000D02*
X195453000Y-138430000D01*
X179578000Y-147320000D02*
X175133000Y-147320000D01*
X191008000Y-132080000D02*
X191008000Y-133350000D01*
X181165500Y-132080000D02*
X191008000Y-132080000D01*
X180848000Y-132397500D02*
X181165500Y-132080000D01*
X180848000Y-133032500D02*
X180848000Y-132397500D01*
X180530500Y-133350000D02*
X180848000Y-133032500D01*
X139255500Y-137160000D02*
X139573000Y-136842500D01*
X139890500Y-133350000D02*
X180530500Y-133350000D01*
X132588000Y-137160000D02*
X139255500Y-137160000D01*
X139573000Y-136842500D02*
X139573000Y-133667500D01*
X139573000Y-133667500D02*
X139890500Y-133350000D01*
X192278000Y-132080000D02*
X193548000Y-130810000D01*
X191008000Y-132080000D02*
X192278000Y-132080000D01*
X132588000Y-127000000D02*
X134175500Y-127000000D01*
X134175500Y-127000000D02*
X134493000Y-126682500D01*
X134493000Y-126682500D02*
X134493000Y-123507500D01*
X134493000Y-123507500D02*
X134810500Y-123190000D01*
X134810500Y-123190000D02*
X137985500Y-123190000D01*
X137985500Y-123190000D02*
X138303000Y-122872500D01*
X138303000Y-122872500D02*
X138303000Y-120967500D01*
X138303000Y-120967500D02*
X138620500Y-120650000D01*
X138620500Y-120650000D02*
X171323000Y-120650000D01*
X187198000Y-116840000D02*
X173863000Y-116840000D01*
X160528000Y-111760000D02*
X157035500Y-111760000D01*
X157035500Y-111760000D02*
X156718000Y-111442500D01*
X156718000Y-111442500D02*
X156718000Y-110490000D01*
X145288000Y-119380000D02*
X136080500Y-119380000D01*
X136080500Y-119380000D02*
X135763000Y-119697500D01*
X135763000Y-119697500D02*
X135763000Y-121602500D01*
X135763000Y-121602500D02*
X135445500Y-121920000D01*
X135445500Y-121920000D02*
X132588000Y-121920000D01*
X132588000Y-123825000D02*
X132588000Y-121920000D01*
X132588000Y-119380000D02*
X134175500Y-119380000D01*
X134175500Y-119380000D02*
X134493000Y-119062500D01*
X134493000Y-119062500D02*
X134493000Y-118427500D01*
X134493000Y-118427500D02*
X134810500Y-118110000D01*
X134810500Y-118110000D02*
X165290500Y-118110000D01*
X165290500Y-118110000D02*
X165608000Y-117792500D01*
X165608000Y-117792500D02*
X165608000Y-117157500D01*
X165608000Y-117157500D02*
X165925500Y-116840000D01*
X165925500Y-116840000D02*
X167195500Y-116840000D01*
X167195500Y-116840000D02*
X167513000Y-116522500D01*
X167513000Y-116522500D02*
X167513000Y-115887500D01*
X167513000Y-115887500D02*
X167830500Y-115570000D01*
X167830500Y-115570000D02*
X169735500Y-115570000D01*
X169735500Y-115570000D02*
X170053000Y-115887500D01*
X170053000Y-115887500D02*
X170053000Y-116522500D01*
X170053000Y-116522500D02*
X170370500Y-116840000D01*
X170370500Y-116840000D02*
X172275500Y-116840000D01*
X172275500Y-116840000D02*
X172593000Y-117157500D01*
X172593000Y-117157500D02*
X172593000Y-117792500D01*
X172593000Y-117792500D02*
X172910500Y-118110000D01*
X172910500Y-118110000D02*
X185928000Y-118110000D01*
X146558000Y-109220000D02*
X146558000Y-110172500D01*
X146558000Y-110172500D02*
X146240500Y-110490000D01*
X146240500Y-110490000D02*
X143065500Y-110490000D01*
X143065500Y-110490000D02*
X142748000Y-110807500D01*
X142748000Y-110807500D02*
X142748000Y-113982500D01*
X142748000Y-113982500D02*
X142430500Y-114300000D01*
X142430500Y-114300000D02*
X132588000Y-114300000D01*
X211328000Y-116840000D02*
X203390500Y-116840000D01*
X203390500Y-116840000D02*
X203073000Y-116522500D01*
X203073000Y-116522500D02*
X203073000Y-115887500D01*
X203073000Y-115887500D02*
X202755500Y-115570000D01*
X202755500Y-115570000D02*
X200215500Y-115570000D01*
X200215500Y-115570000D02*
X195135500Y-110490000D01*
X195135500Y-110490000D02*
X183070500Y-110490000D01*
X183070500Y-110490000D02*
X182753000Y-110807500D01*
X182753000Y-110807500D02*
X182753000Y-111760000D01*
X182753000Y-111760000D02*
X181800500Y-111760000D01*
X181800500Y-111760000D02*
X181483000Y-112077500D01*
X181483000Y-112077500D02*
X181483000Y-112712500D01*
X181483000Y-112712500D02*
X179895500Y-114300000D01*
X179895500Y-114300000D02*
X179578000Y-114300000D01*
X151003000Y-109220000D02*
X151320500Y-109220000D01*
X151638000Y-110490000D02*
X151003000Y-109220000D01*
X155448000Y-109537500D02*
X155448000Y-110172500D01*
X165608000Y-110490000D02*
X158305500Y-110490000D01*
X155130500Y-110490000D02*
X151638000Y-110490000D01*
X157988000Y-110172500D02*
X157988000Y-109537500D01*
X157988000Y-109537500D02*
X157670500Y-109220000D01*
X155448000Y-110172500D02*
X155130500Y-110490000D01*
X157670500Y-109220000D02*
X155765500Y-109220000D01*
X158305500Y-110490000D02*
X157988000Y-110172500D01*
X155765500Y-109220000D02*
X155448000Y-109537500D01*
D28*
X241808000Y-121285000D02*
X231965500Y-121285000D01*
X231965500Y-121285000D02*
X231648000Y-120967500D01*
X231648000Y-120967500D02*
X231648000Y-119380000D01*
X132588000Y-106680000D02*
X148780500Y-106680000D01*
X149098000Y-106997500D02*
X149098000Y-111760000D01*
X148780500Y-106680000D02*
X149098000Y-106997500D01*
X231648000Y-119380000D02*
X223710500Y-119380000D01*
X202120500Y-121285000D02*
X201803000Y-121285000D01*
X204025500Y-119380000D02*
X202120500Y-121285000D01*
X213550500Y-119380000D02*
X204025500Y-119380000D01*
X214185500Y-120015000D02*
X213550500Y-119380000D01*
X216090500Y-120015000D02*
X214185500Y-120015000D01*
X216408000Y-120332500D02*
X216090500Y-120015000D01*
X216408000Y-120967500D02*
X216408000Y-120332500D01*
X216725500Y-121285000D02*
X216408000Y-120967500D01*
X221805500Y-121285000D02*
X216725500Y-121285000D01*
X223710500Y-119380000D02*
X221805500Y-121285000D01*
X201803000Y-121285000D02*
X201803000Y-123190000D01*
X201803000Y-121285000D02*
X194183000Y-121285000D01*
D29*
X194183000Y-121285000D02*
X194183000Y-119380000D01*
D28*
X194183000Y-121285000D02*
X183705500Y-121285000D01*
X183070500Y-119380000D02*
X179578000Y-119380000D01*
X183388000Y-119697500D02*
X183070500Y-119380000D01*
X183388000Y-120967500D02*
X183388000Y-119697500D01*
X183705500Y-121285000D02*
X183388000Y-120967500D01*
X179578000Y-124460000D02*
X153225500Y-124460000D01*
X152908000Y-124142500D02*
X152908000Y-121920000D01*
X153225500Y-124460000D02*
X152908000Y-124142500D01*
X259588000Y-114300000D02*
X257365500Y-114300000D01*
X257365500Y-114300000D02*
X257048000Y-113982500D01*
X257048000Y-113982500D02*
X257048000Y-112077500D01*
X257048000Y-112077500D02*
X256730500Y-111760000D01*
X256730500Y-111760000D02*
X244348000Y-111760000D01*
X234823000Y-158115000D02*
X240220500Y-158115000D01*
X240220500Y-158115000D02*
X240538000Y-157797500D01*
X240538000Y-157797500D02*
X240538000Y-156210000D01*
X244348000Y-116840000D02*
X249428000Y-116840000D01*
D29*
X132588000Y-106680000D02*
X132588000Y-109220000D01*
D27*
X157988000Y-107950000D02*
X155765500Y-107950000D01*
X155765500Y-107950000D02*
X155448000Y-107632500D01*
X155448000Y-107632500D02*
X155448000Y-106680000D01*
X201803000Y-119380000D02*
X197040500Y-119380000D01*
X197040500Y-119380000D02*
X194818000Y-117157500D01*
X194818000Y-117157500D02*
X194183000Y-116840000D01*
X152908000Y-104140000D02*
X156400500Y-104140000D01*
X156400500Y-104140000D02*
X156718000Y-104457500D01*
X156718000Y-104457500D02*
X156718000Y-106362500D01*
X156718000Y-106362500D02*
X157035500Y-106680000D01*
X157035500Y-106680000D02*
X158940500Y-106680000D01*
X158940500Y-106680000D02*
X159258000Y-106997500D01*
X159258000Y-106997500D02*
X159258000Y-107632500D01*
X159258000Y-107632500D02*
X159575500Y-107950000D01*
X159575500Y-107950000D02*
X164020500Y-107950000D01*
X164020500Y-107950000D02*
X164338000Y-107632500D01*
X164338000Y-107632500D02*
X164338000Y-104457500D01*
X178446630Y-104140000D02*
X177938630Y-103632000D01*
X179578000Y-104140000D02*
X178446630Y-104140000D01*
X165163500Y-103632000D02*
X164338000Y-104457500D01*
X177938630Y-103632000D02*
X165163500Y-103632000D01*
X167195500Y-119380000D02*
X160528000Y-119380000D01*
X167513000Y-119062500D02*
X167195500Y-119380000D01*
X167513000Y-118427500D02*
X167513000Y-119062500D01*
X167830500Y-118110000D02*
X167513000Y-118427500D01*
X177038000Y-120650000D02*
X172910500Y-120650000D01*
X172910500Y-120650000D02*
X172593000Y-120332500D01*
X170053000Y-118110000D02*
X167830500Y-118110000D01*
X172593000Y-119697500D02*
X172275500Y-119380000D01*
X171323000Y-119380000D02*
X170053000Y-118110000D01*
X172593000Y-120332500D02*
X172593000Y-119697500D01*
X172275500Y-119380000D02*
X171323000Y-119380000D01*
X185928000Y-112077500D02*
X186245500Y-111760000D01*
X185610500Y-115570000D02*
X185928000Y-115252500D01*
X186245500Y-111760000D02*
X187198000Y-111760000D01*
X165608000Y-113347500D02*
X165925500Y-113030000D01*
X185928000Y-115252500D02*
X185928000Y-112077500D01*
X165608000Y-114300000D02*
X165608000Y-113347500D01*
X165925500Y-113030000D02*
X171958000Y-113030000D01*
X171958000Y-113030000D02*
X171958000Y-115570000D01*
X171958000Y-115570000D02*
X185610500Y-115570000D01*
X187198000Y-119380000D02*
X192595500Y-119380000D01*
X192595500Y-119380000D02*
X192913000Y-119062500D01*
X192913000Y-119062500D02*
X192913000Y-115887500D01*
X192913000Y-115887500D02*
X193230500Y-115570000D01*
X193230500Y-115570000D02*
X195135500Y-115570000D01*
X195135500Y-115570000D02*
X197675500Y-118110000D01*
X197675500Y-118110000D02*
X212280500Y-118110000D01*
X212280500Y-118110000D02*
X212598000Y-117792500D01*
X212598000Y-117792500D02*
X212598000Y-115887500D01*
X212598000Y-115887500D02*
X212280500Y-115570000D01*
X212280500Y-115570000D02*
X211645500Y-115570000D01*
X211645500Y-115570000D02*
X211328000Y-115252500D01*
X211328000Y-115252500D02*
X211328000Y-114300000D01*
X194183000Y-111760000D02*
X188785500Y-111760000D01*
X188785500Y-111760000D02*
X188468000Y-112077500D01*
X188468000Y-112077500D02*
X188468000Y-113982500D01*
X188468000Y-113982500D02*
X188150500Y-114300000D01*
X188150500Y-114300000D02*
X187198000Y-114300000D01*
X201803000Y-125730000D02*
X200215500Y-125730000D01*
X200215500Y-125730000D02*
X199898000Y-125412500D01*
X199898000Y-125412500D02*
X199898000Y-123190000D01*
X187198000Y-106680000D02*
X181800500Y-106680000D01*
X181800500Y-106680000D02*
X179895500Y-108585000D01*
X179895500Y-108585000D02*
X179578000Y-109220000D01*
X179578000Y-109220000D02*
X177990500Y-109220000D01*
X177990500Y-109220000D02*
X177673000Y-109537500D01*
X177673000Y-109537500D02*
X177673000Y-113982500D01*
X177673000Y-113982500D02*
X177355500Y-114300000D01*
X177355500Y-114300000D02*
X173863000Y-114300000D01*
X179578000Y-111760000D02*
X180213000Y-111442500D01*
X180213000Y-111442500D02*
X183705500Y-107950000D01*
X183705500Y-107950000D02*
X200215500Y-107950000D01*
X200215500Y-107950000D02*
X200533000Y-108267500D01*
X200533000Y-108267500D02*
X200533000Y-111442500D01*
X200533000Y-111442500D02*
X200850500Y-111760000D01*
X200850500Y-111760000D02*
X201803000Y-111760000D01*
X229108000Y-107950000D02*
X225806000Y-107950000D01*
X225806000Y-107950000D02*
X225552000Y-107696000D01*
X223012000Y-107696000D02*
X222758000Y-107950000D01*
X225552000Y-107696000D02*
X223012000Y-107696000D01*
X222758000Y-107950000D02*
X203073000Y-107950000D01*
X210693000Y-144780000D02*
X198310500Y-144780000D01*
X198310500Y-144780000D02*
X197993000Y-145097500D01*
X197993000Y-145097500D02*
X197993000Y-145732500D01*
X197993000Y-145732500D02*
X197675500Y-146050000D01*
X197675500Y-146050000D02*
X192913000Y-146050000D01*
X253873000Y-120650000D02*
X243395500Y-120650000D01*
X243395500Y-120650000D02*
X243078000Y-120332500D01*
X243078000Y-120332500D02*
X243078000Y-119697500D01*
X243078000Y-119697500D02*
X242760500Y-119380000D01*
X242760500Y-119380000D02*
X240855500Y-119380000D01*
X240855500Y-119380000D02*
X240538000Y-119062500D01*
X240538000Y-119062500D02*
X240538000Y-118427500D01*
X240538000Y-118427500D02*
X240220500Y-118110000D01*
X240220500Y-118110000D02*
X230695500Y-118110000D01*
X230695500Y-118110000D02*
X230378000Y-117792500D01*
X230378000Y-117792500D02*
X230378000Y-117157500D01*
X230378000Y-117157500D02*
X230060500Y-116840000D01*
X230060500Y-116840000D02*
X220535500Y-116840000D01*
X220535500Y-116840000D02*
X220218000Y-117157500D01*
X220218000Y-117157500D02*
X220218000Y-117792500D01*
X220218000Y-117792500D02*
X219900500Y-118110000D01*
X219900500Y-118110000D02*
X217995500Y-118110000D01*
X217995500Y-118110000D02*
X217678000Y-117792500D01*
X217678000Y-117792500D02*
X217678000Y-117157500D01*
X217678000Y-117157500D02*
X217360500Y-116840000D01*
X217360500Y-116840000D02*
X213868000Y-116840000D01*
X183388000Y-129857500D02*
X183705500Y-129540000D01*
X183705500Y-129540000D02*
X216725500Y-129540000D01*
X216725500Y-129540000D02*
X217043000Y-129222500D01*
X217043000Y-129222500D02*
X217043000Y-128587500D01*
X217043000Y-128587500D02*
X217360500Y-128270000D01*
X217360500Y-128270000D02*
X222123000Y-128270000D01*
X247523000Y-124460000D02*
X257365500Y-124460000D01*
X257365500Y-124460000D02*
X257683000Y-124777500D01*
X257683000Y-124777500D02*
X257683000Y-125412500D01*
X257683000Y-125412500D02*
X258000500Y-125730000D01*
X258000500Y-125730000D02*
X260540500Y-125730000D01*
X260540500Y-125730000D02*
X260858000Y-126047500D01*
X260858000Y-126047500D02*
X260858000Y-127952500D01*
X260858000Y-127952500D02*
X260540500Y-128270000D01*
X260540500Y-128270000D02*
X259905500Y-128270000D01*
X259905500Y-128270000D02*
X259588000Y-128587500D01*
X259588000Y-128587500D02*
X259588000Y-129540000D01*
X240538000Y-128270000D02*
X227203000Y-128270000D01*
X183388000Y-130810000D02*
X183388000Y-129857500D01*
X200533000Y-133350000D02*
X197231000Y-133350000D01*
X259588000Y-127000000D02*
X255778000Y-130810000D01*
X255778000Y-130810000D02*
X226885500Y-130810000D01*
X226885500Y-130810000D02*
X226568000Y-131127500D01*
X226568000Y-131127500D02*
X226568000Y-131762500D01*
X226568000Y-131762500D02*
X226250500Y-132080000D01*
X226250500Y-132080000D02*
X224345500Y-132080000D01*
X224345500Y-132080000D02*
X223075500Y-130810000D01*
X223075500Y-130810000D02*
X222123000Y-130810000D01*
X191008000Y-140970000D02*
X191008000Y-141922500D01*
X191008000Y-141922500D02*
X191325500Y-142240000D01*
X191325500Y-142240000D02*
X220853000Y-142240000D01*
X200533000Y-143510000D02*
X200533000Y-142240000D01*
X253873000Y-128270000D02*
X243395500Y-128270000D01*
X243395500Y-128270000D02*
X242125500Y-129540000D01*
X242125500Y-129540000D02*
X218630500Y-129540000D01*
X218630500Y-129540000D02*
X218313000Y-129857500D01*
X218313000Y-129857500D02*
X218313000Y-130492500D01*
X218313000Y-130492500D02*
X217995500Y-130810000D01*
X217995500Y-130810000D02*
X206883000Y-130810000D01*
X225298000Y-129540000D02*
X225298000Y-130810000D01*
X200533000Y-135890000D02*
X195770500Y-135890000D01*
X195770500Y-135890000D02*
X195453000Y-136207500D01*
X195453000Y-136207500D02*
X195453000Y-136842500D01*
X195453000Y-136842500D02*
X195135500Y-137160000D01*
X195135500Y-137160000D02*
X189420500Y-137160000D01*
X189420500Y-137160000D02*
X189103000Y-136842500D01*
X189103000Y-136842500D02*
X189103000Y-136207500D01*
X189103000Y-136207500D02*
X188785500Y-135890000D01*
X188785500Y-135890000D02*
X184975500Y-135890000D01*
X184975500Y-135890000D02*
X184658000Y-135572500D01*
X184658000Y-135572500D02*
X184658000Y-134937500D01*
X184658000Y-134937500D02*
X184340500Y-134620000D01*
X184340500Y-134620000D02*
X182435500Y-134620000D01*
X182435500Y-134620000D02*
X182118000Y-134937500D01*
X182118000Y-134937500D02*
X182118000Y-138112500D01*
X182118000Y-138112500D02*
X182435500Y-138430000D01*
X182435500Y-138430000D02*
X183388000Y-138430000D01*
X225298000Y-124460000D02*
X225298000Y-125730000D01*
X206883000Y-125730000D02*
X206883000Y-124777500D01*
X206883000Y-124777500D02*
X207200500Y-124460000D01*
X207200500Y-124460000D02*
X242125500Y-124460000D01*
X242125500Y-124460000D02*
X243395500Y-123190000D01*
X243395500Y-123190000D02*
X261810500Y-123190000D01*
X261810500Y-123190000D02*
X262128000Y-123507500D01*
X262128000Y-123507500D02*
X262128000Y-135572500D01*
X262128000Y-135572500D02*
X261810500Y-135890000D01*
X261810500Y-135890000D02*
X259905500Y-135890000D01*
X259905500Y-135890000D02*
X259588000Y-136207500D01*
X259588000Y-136207500D02*
X259588000Y-137160000D01*
X211963000Y-134620000D02*
X195770500Y-134620000D01*
X195770500Y-134620000D02*
X194500500Y-135890000D01*
X194500500Y-135890000D02*
X192913000Y-135890000D01*
X207518000Y-128270000D02*
X215455500Y-128270000D01*
X215455500Y-128270000D02*
X215773000Y-127952500D01*
X215773000Y-127952500D02*
X215773000Y-127317500D01*
X215773000Y-127317500D02*
X216090500Y-127000000D01*
X216090500Y-127000000D02*
X225298000Y-127000000D01*
X225298000Y-127000000D02*
X225298000Y-128270000D01*
X225298000Y-127000000D02*
X242125500Y-127000000D01*
X242125500Y-127000000D02*
X243395500Y-125730000D01*
X243395500Y-125730000D02*
X255143000Y-125730000D01*
X188468000Y-140970000D02*
X183388000Y-140970000D01*
X196723000Y-137160000D02*
X209423000Y-137160000D01*
X252603000Y-137795000D02*
X249745500Y-137795000D01*
X249745500Y-137795000D02*
X245300500Y-133350000D01*
X245300500Y-133350000D02*
X242760500Y-133350000D01*
X242760500Y-133350000D02*
X241490500Y-132080000D01*
X241490500Y-132080000D02*
X227520500Y-132080000D01*
X227520500Y-132080000D02*
X227203000Y-132397500D01*
X227203000Y-132397500D02*
X227203000Y-133032500D01*
X227203000Y-133032500D02*
X226885500Y-133350000D01*
X226885500Y-133350000D02*
X225298000Y-133350000D01*
X225298000Y-133350000D02*
X224345500Y-133350000D01*
X224345500Y-133350000D02*
X223075500Y-132080000D01*
X223075500Y-132080000D02*
X206883000Y-132080000D01*
X206883000Y-132080000D02*
X206883000Y-133350000D01*
X206883000Y-132080000D02*
X196088000Y-132080000D01*
X259588000Y-132080000D02*
X247523000Y-132080000D01*
X183388000Y-148590000D02*
X189420500Y-148590000D01*
X189420500Y-148590000D02*
X189738000Y-148272500D01*
X189738000Y-148272500D02*
X189738000Y-147637500D01*
X189738000Y-147637500D02*
X190055500Y-147320000D01*
X190055500Y-147320000D02*
X219583000Y-147320000D01*
X240538000Y-125730000D02*
X227203000Y-125730000D01*
X200533000Y-147320000D02*
X200533000Y-146050000D01*
X201803000Y-106680000D02*
X201803000Y-105727500D01*
X201803000Y-105727500D02*
X202120500Y-105410000D01*
X202120500Y-105410000D02*
X242443000Y-105410000D01*
X202755500Y-113030000D02*
X200850500Y-113030000D01*
X203073000Y-112712500D02*
X202755500Y-113030000D01*
X203073000Y-112077500D02*
X203073000Y-112712500D01*
X203390500Y-111760000D02*
X203073000Y-112077500D01*
X212280500Y-110490000D02*
X209740500Y-110490000D01*
X217360500Y-111760000D02*
X213550500Y-111760000D01*
X197040500Y-109220000D02*
X194183000Y-109220000D01*
X228092000Y-111760000D02*
X221805500Y-111760000D01*
X237998000Y-110490000D02*
X228346000Y-110490000D01*
X217995500Y-113030000D02*
X217678000Y-112712500D01*
X200850500Y-113030000D02*
X197040500Y-109220000D01*
X221805500Y-111760000D02*
X221488000Y-112077500D01*
X221488000Y-112077500D02*
X221488000Y-112712500D01*
X221170500Y-113030000D02*
X217995500Y-113030000D01*
X209740500Y-110490000D02*
X208470500Y-111760000D01*
X213550500Y-111760000D02*
X212280500Y-110490000D01*
X228346000Y-110490000D02*
X228092000Y-110807500D01*
X221488000Y-112712500D02*
X221170500Y-113030000D01*
X217678000Y-112712500D02*
X217678000Y-112077500D01*
X208470500Y-111760000D02*
X203390500Y-111760000D01*
X228092000Y-110807500D02*
X228092000Y-111760000D01*
X217678000Y-112077500D02*
X217360500Y-111760000D01*
X259588000Y-116840000D02*
X260540500Y-116840000D01*
X260540500Y-116840000D02*
X260858000Y-116522500D01*
X260858000Y-116522500D02*
X260858000Y-110807500D01*
X260858000Y-110807500D02*
X260540500Y-110490000D01*
X260540500Y-110490000D02*
X242443000Y-110490000D01*
X242443000Y-110490000D02*
X242443000Y-108267500D01*
X242443000Y-108267500D02*
X242125500Y-107950000D01*
X242125500Y-107950000D02*
X230695500Y-107950000D01*
X230695500Y-107950000D02*
X230378000Y-107632500D01*
X230378000Y-107632500D02*
X230378000Y-106997500D01*
X230378000Y-106997500D02*
X230060500Y-106680000D01*
X230060500Y-106680000D02*
X218948000Y-106680000D01*
X220535500Y-111760000D02*
X218948000Y-111760000D01*
X220853000Y-111442500D02*
X220535500Y-111760000D01*
X227076000Y-110490000D02*
X221170500Y-110490000D01*
X221170500Y-110490000D02*
X220853000Y-110807500D01*
X220853000Y-110807500D02*
X220853000Y-111442500D01*
X222758000Y-109220000D02*
X220535500Y-109220000D01*
X220535500Y-109220000D02*
X220218000Y-109537500D01*
X220218000Y-109537500D02*
X220218000Y-110172500D01*
X220218000Y-110172500D02*
X219900500Y-110490000D01*
X219900500Y-110490000D02*
X217995500Y-110490000D01*
X217995500Y-110490000D02*
X217678000Y-110172500D01*
X217678000Y-110172500D02*
X217678000Y-109537500D01*
X217678000Y-109537500D02*
X217360500Y-109220000D01*
X217360500Y-109220000D02*
X211328000Y-109220000D01*
X222838000Y-109140000D02*
X224028000Y-109140000D01*
X222758000Y-109220000D02*
X222838000Y-109140000D01*
X255778000Y-118110000D02*
X252920500Y-118110000D01*
X252920500Y-118110000D02*
X252603000Y-117792500D01*
X252603000Y-117792500D02*
X252603000Y-115887500D01*
X252603000Y-115887500D02*
X252285500Y-115570000D01*
X252285500Y-115570000D02*
X241490500Y-115570000D01*
X241490500Y-115570000D02*
X241173000Y-115252500D01*
X241173000Y-115252500D02*
X241173000Y-113347500D01*
X241173000Y-113347500D02*
X240855500Y-113030000D01*
X240855500Y-113030000D02*
X226250500Y-113030000D01*
X239268000Y-111760000D02*
X239268000Y-113030000D01*
X226250500Y-113030000D02*
X226250500Y-113093500D01*
X220552001Y-114380001D02*
X220472000Y-114300000D01*
X224963999Y-114380001D02*
X220552001Y-114380001D01*
X226250500Y-113093500D02*
X224963999Y-114380001D01*
X220472000Y-114300000D02*
X218948000Y-114300000D01*
X271018000Y-144780000D02*
X267525500Y-144780000D01*
X267525500Y-144780000D02*
X267208000Y-144462500D01*
X267208000Y-144462500D02*
X267208000Y-143827500D01*
X267208000Y-143827500D02*
X266890500Y-143510000D01*
X266890500Y-143510000D02*
X252920500Y-143510000D01*
X252920500Y-143510000D02*
X245300500Y-135890000D01*
X245300500Y-135890000D02*
X242760500Y-135890000D01*
X242760500Y-135890000D02*
X241490500Y-134620000D01*
X241490500Y-134620000D02*
X228790500Y-134620000D01*
X228790500Y-134620000D02*
X228473000Y-134937500D01*
X228473000Y-134937500D02*
X228473000Y-135572500D01*
X228473000Y-135572500D02*
X228155500Y-135890000D01*
X228155500Y-135890000D02*
X225298000Y-135890000D01*
X225298000Y-135890000D02*
X224345500Y-135890000D01*
X224345500Y-135890000D02*
X223075500Y-134620000D01*
X223075500Y-134620000D02*
X221170500Y-134620000D01*
X221170500Y-134620000D02*
X220853000Y-134302500D01*
X220853000Y-134302500D02*
X220853000Y-133667500D01*
X220853000Y-133667500D02*
X220535500Y-133350000D01*
X220535500Y-133350000D02*
X217678000Y-133350000D01*
X243395500Y-118110000D02*
X245300500Y-118110000D01*
X245300500Y-118110000D02*
X245618000Y-118427500D01*
X245618000Y-118427500D02*
X245618000Y-119062500D01*
X245618000Y-119062500D02*
X245935500Y-119380000D01*
X245935500Y-119380000D02*
X251333000Y-119380000D01*
X243078000Y-117157500D02*
X243078000Y-117792500D01*
X243078000Y-117792500D02*
X243395500Y-118110000D01*
X242760500Y-116840000D02*
X243078000Y-117157500D01*
X240855500Y-116840000D02*
X242760500Y-116840000D01*
X220218000Y-115570000D02*
X217170000Y-115570000D01*
X217170000Y-115570000D02*
X216916000Y-115824000D01*
X217932000Y-119380000D02*
X218948000Y-119380000D01*
X216408000Y-117856000D02*
X217932000Y-119380000D01*
X240538000Y-116522500D02*
X240855500Y-116840000D01*
X240538000Y-115887500D02*
X240538000Y-116522500D01*
X240220500Y-115570000D02*
X240538000Y-115887500D01*
X231648000Y-115570000D02*
X231648000Y-116840000D01*
X220218000Y-115570000D02*
X240220500Y-115570000D01*
X271018000Y-149860000D02*
X267525500Y-149860000D01*
X267525500Y-149860000D02*
X266255500Y-148590000D01*
X266255500Y-148590000D02*
X261810500Y-148590000D01*
X261810500Y-148590000D02*
X260540500Y-149860000D01*
X260540500Y-149860000D02*
X259588000Y-149860000D01*
X259588000Y-149860000D02*
X247523000Y-149860000D01*
X238633000Y-156210000D02*
X232600500Y-156210000D01*
X232600500Y-156210000D02*
X232283000Y-155892500D01*
X232283000Y-155892500D02*
X232283000Y-155257500D01*
X232283000Y-155257500D02*
X231965500Y-154940000D01*
X231965500Y-154940000D02*
X230378000Y-154940000D01*
X247523000Y-154940000D02*
X259588000Y-154940000D01*
X240538000Y-153670000D02*
X227520500Y-153670000D01*
X227520500Y-153670000D02*
X226250500Y-154940000D01*
X226250500Y-154940000D02*
X224345500Y-154940000D01*
X224345500Y-154940000D02*
X223075500Y-153670000D01*
X223075500Y-153670000D02*
X222123000Y-153670000D01*
X240538000Y-151130000D02*
X226885500Y-151130000D01*
X226885500Y-151130000D02*
X226568000Y-150812500D01*
X226568000Y-150812500D02*
X226568000Y-150177500D01*
X226568000Y-150177500D02*
X226250500Y-149860000D01*
X226250500Y-149860000D02*
X224345500Y-149860000D01*
X224345500Y-149860000D02*
X224028000Y-150177500D01*
X224028000Y-150177500D02*
X224028000Y-150812500D01*
X224028000Y-150812500D02*
X223710500Y-151130000D01*
X223710500Y-151130000D02*
X222123000Y-151130000D01*
X240538000Y-148590000D02*
X238315500Y-148590000D01*
X238315500Y-148590000D02*
X237998000Y-148272500D01*
X237998000Y-148272500D02*
X237998000Y-147637500D01*
X237998000Y-147637500D02*
X237680500Y-147320000D01*
X237680500Y-147320000D02*
X228155500Y-147320000D01*
X228155500Y-147320000D02*
X227838000Y-147637500D01*
X227838000Y-147637500D02*
X227838000Y-149225000D01*
X222123000Y-146050000D02*
X223075500Y-146050000D01*
X223075500Y-146050000D02*
X224345500Y-144780000D01*
X224345500Y-144780000D02*
X240220500Y-144780000D01*
X240220500Y-144780000D02*
X240538000Y-145097500D01*
X240538000Y-145097500D02*
X240538000Y-146050000D01*
X240538000Y-143510000D02*
X226568000Y-143510000D01*
X226568000Y-143510000D02*
X226568000Y-142557500D01*
X226568000Y-142557500D02*
X226250500Y-142240000D01*
X226250500Y-142240000D02*
X224345500Y-142240000D01*
X224345500Y-142240000D02*
X223075500Y-143510000D01*
X223075500Y-143510000D02*
X222123000Y-143510000D01*
X206883000Y-135890000D02*
X218948000Y-135890000D01*
X222123000Y-140970000D02*
X223075500Y-140970000D01*
X223075500Y-140970000D02*
X224345500Y-139700000D01*
X224345500Y-139700000D02*
X226250500Y-139700000D01*
X226250500Y-139700000D02*
X226568000Y-140017500D01*
X226568000Y-140017500D02*
X226568000Y-140652500D01*
X226568000Y-140652500D02*
X226885500Y-140970000D01*
X226885500Y-140970000D02*
X240538000Y-140970000D01*
X233553000Y-139700000D02*
X227520500Y-139700000D01*
X227520500Y-139700000D02*
X227203000Y-139382500D01*
X227203000Y-139382500D02*
X227203000Y-138747500D01*
X227203000Y-138747500D02*
X226885500Y-138430000D01*
X226885500Y-138430000D02*
X225298000Y-138430000D01*
X225298000Y-138430000D02*
X224345500Y-138430000D01*
X224345500Y-138430000D02*
X223075500Y-139700000D01*
X223075500Y-139700000D02*
X221170500Y-139700000D01*
X221170500Y-139700000D02*
X220853000Y-139382500D01*
X220853000Y-139382500D02*
X220853000Y-138747500D01*
X220853000Y-138747500D02*
X220535500Y-138430000D01*
X220535500Y-138430000D02*
X206883000Y-138430000D01*
X271018000Y-154940000D02*
X266890500Y-154940000D01*
X266890500Y-154940000D02*
X265620500Y-153670000D01*
X265620500Y-153670000D02*
X246570500Y-153670000D01*
X246570500Y-153670000D02*
X245300500Y-154940000D01*
X245300500Y-154940000D02*
X233553000Y-154940000D01*
X240538000Y-138430000D02*
X228155500Y-138430000D01*
X228155500Y-138430000D02*
X227838000Y-138112500D01*
X227838000Y-138112500D02*
X227838000Y-137477500D01*
X227838000Y-137477500D02*
X227520500Y-137160000D01*
X227520500Y-137160000D02*
X224345500Y-137160000D01*
X224345500Y-137160000D02*
X223075500Y-138430000D01*
X223075500Y-138430000D02*
X222123000Y-138430000D01*
X240538000Y-135890000D02*
X229743000Y-135890000D01*
X225298000Y-143510000D02*
X224345500Y-143510000D01*
X224345500Y-143510000D02*
X223075500Y-144780000D01*
X223075500Y-144780000D02*
X221170500Y-144780000D01*
X221170500Y-144780000D02*
X220853000Y-144462500D01*
X220853000Y-144462500D02*
X220853000Y-143827500D01*
X220853000Y-143827500D02*
X220535500Y-143510000D01*
X220535500Y-143510000D02*
X206883000Y-143510000D01*
X232283000Y-148590000D02*
X236093000Y-148590000D01*
X244348000Y-157480000D02*
X245300500Y-157480000D01*
X245300500Y-157480000D02*
X246570500Y-156210000D01*
X246570500Y-156210000D02*
X266255500Y-156210000D01*
X266255500Y-156210000D02*
X267525500Y-157480000D01*
X267525500Y-157480000D02*
X271018000Y-157480000D01*
X222123000Y-133350000D02*
X223075500Y-133350000D01*
X223075500Y-133350000D02*
X224345500Y-134620000D01*
X224345500Y-134620000D02*
X227520500Y-134620000D01*
X227520500Y-134620000D02*
X227838000Y-134302500D01*
X227838000Y-134302500D02*
X227838000Y-133667500D01*
X227838000Y-133667500D02*
X228155500Y-133350000D01*
X228155500Y-133350000D02*
X240538000Y-133350000D01*
X206883000Y-146050000D02*
X220535500Y-146050000D01*
X220535500Y-146050000D02*
X220853000Y-146367500D01*
X220853000Y-146367500D02*
X220853000Y-147002500D01*
X220853000Y-147002500D02*
X221170500Y-147320000D01*
X221170500Y-147320000D02*
X223075500Y-147320000D01*
X223075500Y-147320000D02*
X224345500Y-146050000D01*
X224345500Y-146050000D02*
X225298000Y-146050000D01*
X229743000Y-149860000D02*
X242125500Y-149860000D01*
X242125500Y-149860000D02*
X244030500Y-151765000D01*
X244030500Y-151765000D02*
X244348000Y-152400000D01*
X263398000Y-149860000D02*
X261810500Y-149860000D01*
X261810500Y-149860000D02*
X260540500Y-151130000D01*
X260540500Y-151130000D02*
X246570500Y-151130000D01*
X246570500Y-151130000D02*
X245300500Y-152400000D01*
X245300500Y-152400000D02*
X244348000Y-152400000D01*
X206883000Y-148590000D02*
X220535500Y-148590000D01*
X220535500Y-148590000D02*
X220853000Y-148907500D01*
X220853000Y-148907500D02*
X220853000Y-149542500D01*
X220853000Y-149542500D02*
X221170500Y-149860000D01*
X221170500Y-149860000D02*
X223075500Y-149860000D01*
X223075500Y-149860000D02*
X223393000Y-149542500D01*
X223393000Y-149542500D02*
X223393000Y-148907500D01*
X223393000Y-148907500D02*
X223710500Y-148590000D01*
X223710500Y-148590000D02*
X226250500Y-148590000D01*
X226250500Y-148590000D02*
X226568000Y-148272500D01*
X226568000Y-148272500D02*
X226568000Y-146367500D01*
X226568000Y-146367500D02*
X226885500Y-146050000D01*
X226885500Y-146050000D02*
X238950500Y-146050000D01*
X238950500Y-146050000D02*
X239268000Y-146367500D01*
X239268000Y-146367500D02*
X239268000Y-147002500D01*
X239268000Y-147002500D02*
X239585500Y-147320000D01*
X239585500Y-147320000D02*
X241490500Y-147320000D01*
X241490500Y-147320000D02*
X241808000Y-147637500D01*
X241808000Y-147637500D02*
X241808000Y-148272500D01*
X241808000Y-148272500D02*
X243395500Y-149860000D01*
X243395500Y-149860000D02*
X244348000Y-149860000D01*
X244348000Y-149860000D02*
X245300500Y-148590000D01*
X245300500Y-148590000D02*
X248475500Y-148590000D01*
X248475500Y-148590000D02*
X251015500Y-146050000D01*
X251015500Y-146050000D02*
X266890500Y-146050000D01*
X266890500Y-146050000D02*
X268160500Y-147320000D01*
X268160500Y-147320000D02*
X271018000Y-147320000D01*
X225298000Y-151130000D02*
X225298000Y-152082500D01*
X225298000Y-152082500D02*
X225615500Y-152400000D01*
X225615500Y-152400000D02*
X241490500Y-152400000D01*
X241490500Y-152400000D02*
X242760500Y-153670000D01*
X242760500Y-153670000D02*
X245300500Y-153670000D01*
X245300500Y-153670000D02*
X246570500Y-152400000D01*
X246570500Y-152400000D02*
X261175500Y-152400000D01*
X261175500Y-152400000D02*
X262445500Y-151130000D01*
X262445500Y-151130000D02*
X266255500Y-151130000D01*
X266255500Y-151130000D02*
X267525500Y-152400000D01*
X267525500Y-152400000D02*
X271018000Y-152400000D01*
X239268000Y-114300000D02*
X231648000Y-114300000D01*
X241173000Y-109537500D02*
X240855500Y-109220000D01*
X241490500Y-111760000D02*
X241173000Y-111442500D01*
X242125500Y-111760000D02*
X241490500Y-111760000D01*
X242443000Y-112712500D02*
X242443000Y-112077500D01*
X255460500Y-113030000D02*
X242760500Y-113030000D01*
X262128000Y-120904000D02*
X262128000Y-119888000D01*
X260540500Y-118110000D02*
X258000500Y-118110000D01*
X240855500Y-109220000D02*
X231648000Y-109220000D01*
X255778000Y-113347500D02*
X255460500Y-113030000D01*
X256095500Y-116205000D02*
X255778000Y-115887500D01*
X242760500Y-113030000D02*
X242443000Y-112712500D01*
X255778000Y-115887500D02*
X255778000Y-113347500D01*
X260858000Y-118427500D02*
X260540500Y-118110000D01*
X241173000Y-111442500D02*
X241173000Y-109537500D01*
X260858000Y-119062500D02*
X260858000Y-118427500D01*
X258000500Y-118110000D02*
X257683000Y-117792500D01*
X257683000Y-116522500D02*
X257365500Y-116205000D01*
X262128000Y-119888000D02*
X260858000Y-119062500D01*
X257365500Y-116205000D02*
X256095500Y-116205000D01*
X242443000Y-112077500D02*
X242125500Y-111760000D01*
X257683000Y-117792500D02*
X257683000Y-116522500D01*
D29*
X203708000Y-155575000D02*
X203708000Y-158115000D01*
X203708000Y-158115000D02*
X203708000Y-155575000D01*
X206883000Y-155575000D02*
X206883000Y-156210000D01*
X205359000Y-149606000D02*
X204343000Y-148590000D01*
X205359000Y-155575000D02*
X205359000Y-149606000D01*
X203708000Y-155575000D02*
X205359000Y-155575000D01*
X205359000Y-155575000D02*
X206883000Y-155575000D01*
D27*
X268794001Y-117950001D02*
X269644000Y-118800000D01*
X264394001Y-113550001D02*
X268794001Y-117950001D01*
X262128000Y-106045000D02*
X262128000Y-109259998D01*
X262128000Y-109259998D02*
X264394001Y-111525999D01*
X264394001Y-111525999D02*
X264394001Y-113550001D01*
X136080500Y-124460000D02*
X143700500Y-124460000D01*
X143700500Y-124460000D02*
X144018000Y-124142500D01*
X144018000Y-124142500D02*
X144018000Y-121920000D01*
X132588000Y-129540000D02*
X135445500Y-129540000D01*
X135445500Y-129540000D02*
X135763000Y-129222500D01*
X135763000Y-129222500D02*
X135763000Y-124777500D01*
X135763000Y-124777500D02*
X136080500Y-124460000D01*
X135763000Y-111760000D02*
X135763000Y-109537500D01*
X135763000Y-109537500D02*
X136080500Y-109220000D01*
X136080500Y-109220000D02*
X144018000Y-109220000D01*
X158623000Y-105410000D02*
X162115500Y-105410000D01*
X162115500Y-105410000D02*
X162433000Y-105092500D01*
X162433000Y-105092500D02*
X162433000Y-104140000D01*
X144018000Y-111760000D02*
X146558000Y-111760000D01*
X146558000Y-111760000D02*
X146558000Y-112712500D01*
X146558000Y-112712500D02*
X146875500Y-113030000D01*
X146875500Y-113030000D02*
X161480500Y-113030000D01*
X161480500Y-113030000D02*
X161798000Y-113347500D01*
X161798000Y-113347500D02*
X161798000Y-113982500D01*
X161798000Y-113982500D02*
X162115500Y-114300000D01*
X162115500Y-114300000D02*
X163068000Y-114300000D01*
X170053000Y-138430000D02*
X170053000Y-143192500D01*
X170053000Y-143192500D02*
X170370500Y-143510000D01*
X170370500Y-143510000D02*
X177990500Y-143510000D01*
X177990500Y-143510000D02*
X178308000Y-143827500D01*
X178308000Y-143827500D02*
X178308000Y-144462500D01*
X178308000Y-144462500D02*
X178625500Y-144780000D01*
X178625500Y-144780000D02*
X179578000Y-144780000D01*
M02*
