G04 #@! TF.GenerationSoftware,KiCad,Pcbnew,5.1.4+dfsg1-1*
G04 #@! TF.CreationDate,2020-01-26T20:04:24+01:00*
G04 #@! TF.ProjectId,finalchesscard_lvr_draft1,66696e61-6c63-4686-9573-73636172645f,1.1.K1*
G04 #@! TF.SameCoordinates,Original*
G04 #@! TF.FileFunction,Legend,Bot*
G04 #@! TF.FilePolarity,Positive*
%FSLAX46Y46*%
G04 Gerber Fmt 4.6, Leading zero omitted, Abs format (unit mm)*
G04 Created by KiCad (PCBNEW 5.1.4+dfsg1-1) date 2020-01-26 20:04:24*
%MOMM*%
%LPD*%
G04 APERTURE LIST*
%ADD10C,0.220000*%
%ADD11C,0.350000*%
%ADD12C,0.222000*%
%ADD13C,0.300000*%
%ADD14C,0.150000*%
%ADD15C,0.100000*%
G04 APERTURE END LIST*
D10*
X147673057Y-138439514D02*
X147844485Y-138382371D01*
X147901628Y-138325228D01*
X147958771Y-138210942D01*
X147958771Y-138039514D01*
X147901628Y-137925228D01*
X147844485Y-137868085D01*
X147730200Y-137810942D01*
X147273057Y-137810942D01*
X147273057Y-139010942D01*
X147673057Y-139010942D01*
X147787342Y-138953800D01*
X147844485Y-138896657D01*
X147901628Y-138782371D01*
X147901628Y-138668085D01*
X147844485Y-138553800D01*
X147787342Y-138496657D01*
X147673057Y-138439514D01*
X147273057Y-138439514D01*
X148358771Y-139010942D02*
X148644485Y-137810942D01*
X148873057Y-138668085D01*
X149101628Y-137810942D01*
X149387342Y-139010942D01*
X149787342Y-138153800D02*
X150358771Y-138153800D01*
X149673057Y-137810942D02*
X150073057Y-139010942D01*
X150473057Y-137810942D01*
X151558771Y-137925228D02*
X151501628Y-137868085D01*
X151330200Y-137810942D01*
X151215914Y-137810942D01*
X151044485Y-137868085D01*
X150930200Y-137982371D01*
X150873057Y-138096657D01*
X150815914Y-138325228D01*
X150815914Y-138496657D01*
X150873057Y-138725228D01*
X150930200Y-138839514D01*
X151044485Y-138953800D01*
X151215914Y-139010942D01*
X151330200Y-139010942D01*
X151501628Y-138953800D01*
X151558771Y-138896657D01*
X152073057Y-137810942D02*
X152073057Y-139010942D01*
X152758771Y-137810942D02*
X152244485Y-138496657D01*
X152758771Y-139010942D02*
X152073057Y-138325228D01*
X154130200Y-138896657D02*
X154187342Y-138953800D01*
X154301628Y-139010942D01*
X154587342Y-139010942D01*
X154701628Y-138953800D01*
X154758771Y-138896657D01*
X154815914Y-138782371D01*
X154815914Y-138668085D01*
X154758771Y-138496657D01*
X154073057Y-137810942D01*
X154815914Y-137810942D01*
X155558771Y-139010942D02*
X155673057Y-139010942D01*
X155787342Y-138953800D01*
X155844485Y-138896657D01*
X155901628Y-138782371D01*
X155958771Y-138553800D01*
X155958771Y-138268085D01*
X155901628Y-138039514D01*
X155844485Y-137925228D01*
X155787342Y-137868085D01*
X155673057Y-137810942D01*
X155558771Y-137810942D01*
X155444485Y-137868085D01*
X155387342Y-137925228D01*
X155330200Y-138039514D01*
X155273057Y-138268085D01*
X155273057Y-138553800D01*
X155330200Y-138782371D01*
X155387342Y-138896657D01*
X155444485Y-138953800D01*
X155558771Y-139010942D01*
X156415914Y-138896657D02*
X156473057Y-138953800D01*
X156587342Y-139010942D01*
X156873057Y-139010942D01*
X156987342Y-138953800D01*
X157044485Y-138896657D01*
X157101628Y-138782371D01*
X157101628Y-138668085D01*
X157044485Y-138496657D01*
X156358771Y-137810942D01*
X157101628Y-137810942D01*
X157844485Y-139010942D02*
X157958771Y-139010942D01*
X158073057Y-138953800D01*
X158130200Y-138896657D01*
X158187342Y-138782371D01*
X158244485Y-138553800D01*
X158244485Y-138268085D01*
X158187342Y-138039514D01*
X158130200Y-137925228D01*
X158073057Y-137868085D01*
X157958771Y-137810942D01*
X157844485Y-137810942D01*
X157730200Y-137868085D01*
X157673057Y-137925228D01*
X157615914Y-138039514D01*
X157558771Y-138268085D01*
X157558771Y-138553800D01*
X157615914Y-138782371D01*
X157673057Y-138896657D01*
X157730200Y-138953800D01*
X157844485Y-139010942D01*
X142066657Y-142941742D02*
X142066657Y-144141742D01*
X142752371Y-142941742D02*
X142238085Y-143627457D01*
X142752371Y-144141742D02*
X142066657Y-143456028D01*
X143266657Y-142941742D02*
X143266657Y-143741742D01*
X143266657Y-144141742D02*
X143209514Y-144084600D01*
X143266657Y-144027457D01*
X143323800Y-144084600D01*
X143266657Y-144141742D01*
X143266657Y-144027457D01*
X144523800Y-143056028D02*
X144466657Y-142998885D01*
X144295228Y-142941742D01*
X144180942Y-142941742D01*
X144009514Y-142998885D01*
X143895228Y-143113171D01*
X143838085Y-143227457D01*
X143780942Y-143456028D01*
X143780942Y-143627457D01*
X143838085Y-143856028D01*
X143895228Y-143970314D01*
X144009514Y-144084600D01*
X144180942Y-144141742D01*
X144295228Y-144141742D01*
X144466657Y-144084600D01*
X144523800Y-144027457D01*
X145552371Y-142941742D02*
X145552371Y-143570314D01*
X145495228Y-143684600D01*
X145380942Y-143741742D01*
X145152371Y-143741742D01*
X145038085Y-143684600D01*
X145552371Y-142998885D02*
X145438085Y-142941742D01*
X145152371Y-142941742D01*
X145038085Y-142998885D01*
X144980942Y-143113171D01*
X144980942Y-143227457D01*
X145038085Y-143341742D01*
X145152371Y-143398885D01*
X145438085Y-143398885D01*
X145552371Y-143456028D01*
X146638085Y-142941742D02*
X146638085Y-144141742D01*
X146638085Y-142998885D02*
X146523800Y-142941742D01*
X146295228Y-142941742D01*
X146180942Y-142998885D01*
X146123800Y-143056028D01*
X146066657Y-143170314D01*
X146066657Y-143513171D01*
X146123800Y-143627457D01*
X146180942Y-143684600D01*
X146295228Y-143741742D01*
X146523800Y-143741742D01*
X146638085Y-143684600D01*
X148123800Y-142941742D02*
X148123800Y-144141742D01*
X148523800Y-143284600D01*
X148923800Y-144141742D01*
X148923800Y-142941742D01*
X149666657Y-142941742D02*
X149552371Y-142998885D01*
X149495228Y-143056028D01*
X149438085Y-143170314D01*
X149438085Y-143513171D01*
X149495228Y-143627457D01*
X149552371Y-143684600D01*
X149666657Y-143741742D01*
X149838085Y-143741742D01*
X149952371Y-143684600D01*
X150009514Y-143627457D01*
X150066657Y-143513171D01*
X150066657Y-143170314D01*
X150009514Y-143056028D01*
X149952371Y-142998885D01*
X149838085Y-142941742D01*
X149666657Y-142941742D01*
X151095228Y-142941742D02*
X151095228Y-144141742D01*
X151095228Y-142998885D02*
X150980942Y-142941742D01*
X150752371Y-142941742D01*
X150638085Y-142998885D01*
X150580942Y-143056028D01*
X150523800Y-143170314D01*
X150523800Y-143513171D01*
X150580942Y-143627457D01*
X150638085Y-143684600D01*
X150752371Y-143741742D01*
X150980942Y-143741742D01*
X151095228Y-143684600D01*
X151666657Y-142941742D02*
X151666657Y-143741742D01*
X151666657Y-144141742D02*
X151609514Y-144084600D01*
X151666657Y-144027457D01*
X151723800Y-144084600D01*
X151666657Y-144141742D01*
X151666657Y-144027457D01*
X152066657Y-143741742D02*
X152523800Y-143741742D01*
X152238085Y-142941742D02*
X152238085Y-143970314D01*
X152295228Y-144084600D01*
X152409514Y-144141742D01*
X152523800Y-144141742D01*
X152923800Y-142941742D02*
X152923800Y-143741742D01*
X152923800Y-144141742D02*
X152866657Y-144084600D01*
X152923800Y-144027457D01*
X152980942Y-144084600D01*
X152923800Y-144141742D01*
X152923800Y-144027457D01*
X153952371Y-142998885D02*
X153838085Y-142941742D01*
X153609514Y-142941742D01*
X153495228Y-142998885D01*
X153438085Y-143113171D01*
X153438085Y-143570314D01*
X153495228Y-143684600D01*
X153609514Y-143741742D01*
X153838085Y-143741742D01*
X153952371Y-143684600D01*
X154009514Y-143570314D01*
X154009514Y-143456028D01*
X153438085Y-143341742D01*
X155038085Y-142941742D02*
X155038085Y-144141742D01*
X155038085Y-142998885D02*
X154923800Y-142941742D01*
X154695228Y-142941742D01*
X154580942Y-142998885D01*
X154523800Y-143056028D01*
X154466657Y-143170314D01*
X154466657Y-143513171D01*
X154523800Y-143627457D01*
X154580942Y-143684600D01*
X154695228Y-143741742D01*
X154923800Y-143741742D01*
X155038085Y-143684600D01*
X157209514Y-142941742D02*
X156809514Y-143513171D01*
X156523800Y-142941742D02*
X156523800Y-144141742D01*
X156980942Y-144141742D01*
X157095228Y-144084600D01*
X157152371Y-144027457D01*
X157209514Y-143913171D01*
X157209514Y-143741742D01*
X157152371Y-143627457D01*
X157095228Y-143570314D01*
X156980942Y-143513171D01*
X156523800Y-143513171D01*
X158180942Y-142998885D02*
X158066657Y-142941742D01*
X157838085Y-142941742D01*
X157723800Y-142998885D01*
X157666657Y-143113171D01*
X157666657Y-143570314D01*
X157723800Y-143684600D01*
X157838085Y-143741742D01*
X158066657Y-143741742D01*
X158180942Y-143684600D01*
X158238085Y-143570314D01*
X158238085Y-143456028D01*
X157666657Y-143341742D01*
X158752371Y-143741742D02*
X158752371Y-142541742D01*
X158752371Y-143684600D02*
X158866657Y-143741742D01*
X159095228Y-143741742D01*
X159209514Y-143684600D01*
X159266657Y-143627457D01*
X159323800Y-143513171D01*
X159323800Y-143170314D01*
X159266657Y-143056028D01*
X159209514Y-142998885D01*
X159095228Y-142941742D01*
X158866657Y-142941742D01*
X158752371Y-142998885D01*
X160009514Y-142941742D02*
X159895228Y-142998885D01*
X159838085Y-143113171D01*
X159838085Y-144141742D01*
X160466657Y-142941742D02*
X160466657Y-143741742D01*
X160466657Y-144141742D02*
X160409514Y-144084600D01*
X160466657Y-144027457D01*
X160523800Y-144084600D01*
X160466657Y-144141742D01*
X160466657Y-144027457D01*
X161552371Y-142998885D02*
X161438085Y-142941742D01*
X161209514Y-142941742D01*
X161095228Y-142998885D01*
X161038085Y-143056028D01*
X160980942Y-143170314D01*
X160980942Y-143513171D01*
X161038085Y-143627457D01*
X161095228Y-143684600D01*
X161209514Y-143741742D01*
X161438085Y-143741742D01*
X161552371Y-143684600D01*
X162580942Y-142941742D02*
X162580942Y-143570314D01*
X162523800Y-143684600D01*
X162409514Y-143741742D01*
X162180942Y-143741742D01*
X162066657Y-143684600D01*
X162580942Y-142998885D02*
X162466657Y-142941742D01*
X162180942Y-142941742D01*
X162066657Y-142998885D01*
X162009514Y-143113171D01*
X162009514Y-143227457D01*
X162066657Y-143341742D01*
X162180942Y-143398885D01*
X162466657Y-143398885D01*
X162580942Y-143456028D01*
X148863542Y-140350942D02*
X148463542Y-140922371D01*
X148177828Y-140350942D02*
X148177828Y-141550942D01*
X148634971Y-141550942D01*
X148749257Y-141493800D01*
X148806400Y-141436657D01*
X148863542Y-141322371D01*
X148863542Y-141150942D01*
X148806400Y-141036657D01*
X148749257Y-140979514D01*
X148634971Y-140922371D01*
X148177828Y-140922371D01*
X149834971Y-140408085D02*
X149720685Y-140350942D01*
X149492114Y-140350942D01*
X149377828Y-140408085D01*
X149320685Y-140522371D01*
X149320685Y-140979514D01*
X149377828Y-141093800D01*
X149492114Y-141150942D01*
X149720685Y-141150942D01*
X149834971Y-141093800D01*
X149892114Y-140979514D01*
X149892114Y-140865228D01*
X149320685Y-140750942D01*
X150292114Y-141150942D02*
X150577828Y-140350942D01*
X150863542Y-141150942D01*
X152863542Y-140350942D02*
X152177828Y-140350942D01*
X152520685Y-140350942D02*
X152520685Y-141550942D01*
X152406400Y-141379514D01*
X152292114Y-141265228D01*
X152177828Y-141208085D01*
X153377828Y-140465228D02*
X153434971Y-140408085D01*
X153377828Y-140350942D01*
X153320685Y-140408085D01*
X153377828Y-140465228D01*
X153377828Y-140350942D01*
X154577828Y-140350942D02*
X153892114Y-140350942D01*
X154234971Y-140350942D02*
X154234971Y-141550942D01*
X154120685Y-141379514D01*
X154006400Y-141265228D01*
X153892114Y-141208085D01*
X155092114Y-140465228D02*
X155149257Y-140408085D01*
X155092114Y-140350942D01*
X155034971Y-140408085D01*
X155092114Y-140465228D01*
X155092114Y-140350942D01*
X155663542Y-140350942D02*
X155663542Y-141550942D01*
X156349257Y-140350942D02*
X155834971Y-141036657D01*
X156349257Y-141550942D02*
X155663542Y-140865228D01*
X157492114Y-140350942D02*
X156806400Y-140350942D01*
X157149257Y-140350942D02*
X157149257Y-141550942D01*
X157034971Y-141379514D01*
X156920685Y-141265228D01*
X156806400Y-141208085D01*
D11*
X217201800Y-154781138D02*
X217678000Y-154781138D01*
X209978600Y-156051138D02*
X209502400Y-156051138D01*
X210137400Y-156209938D02*
X209978600Y-156051138D01*
X210137400Y-156527438D02*
X210137400Y-156209938D01*
X209899200Y-156686138D02*
X210137400Y-156527438D01*
X209343600Y-156686138D02*
X209899200Y-156686138D01*
X209343600Y-155495538D02*
X209343600Y-156686138D01*
X211248600Y-156686138D02*
X211407400Y-156527438D01*
X210851800Y-156686138D02*
X211248600Y-156686138D01*
X210693000Y-156368738D02*
X210851800Y-156686138D01*
X210693000Y-155813038D02*
X210693000Y-156368738D01*
X210851800Y-155495538D02*
X210693000Y-155813038D01*
X211248600Y-155495538D02*
X210851800Y-155495538D01*
X211407400Y-155654338D02*
X211248600Y-155495538D01*
X212518600Y-155495538D02*
X211963000Y-155495538D01*
X212677400Y-155654338D02*
X212518600Y-155495538D01*
X212677400Y-155813038D02*
X212677400Y-155654338D01*
X212439200Y-156130538D02*
X212677400Y-155813038D01*
D12*
X145875200Y-151781038D02*
X145688500Y-151781038D01*
X146061900Y-151858838D02*
X145875200Y-151781038D01*
X146155200Y-152014338D02*
X146061900Y-151858838D01*
X144786300Y-151858838D02*
X144972900Y-151781038D01*
X144692900Y-152014338D02*
X144786300Y-151858838D01*
X144692900Y-152792138D02*
X144692900Y-152014338D01*
X144786300Y-152947638D02*
X144692900Y-152792138D01*
X144972900Y-153025438D02*
X144786300Y-152947638D01*
D11*
X217043000Y-152796838D02*
X217043000Y-152479338D01*
X217201800Y-152955538D02*
X217043000Y-152796838D01*
X217678000Y-152955538D02*
X217201800Y-152955538D01*
X217836800Y-152796838D02*
X217678000Y-152955538D01*
X217836800Y-152479338D02*
X217836800Y-152796838D01*
X217043000Y-152082438D02*
X217836800Y-152479338D01*
X217043000Y-151764938D02*
X217043000Y-152082438D01*
X217201800Y-151606138D02*
X217043000Y-151764938D01*
X217678000Y-151606138D02*
X217201800Y-151606138D01*
X217836800Y-151764938D02*
X217678000Y-151606138D01*
X217836800Y-152082438D02*
X217836800Y-151764938D01*
X217043000Y-152479338D02*
X217836800Y-152082438D01*
D12*
X162795100Y-147971038D02*
X162328400Y-147971038D01*
X162981800Y-148048838D02*
X162795100Y-147971038D01*
X163075100Y-148204338D02*
X162981800Y-148048838D01*
X163075100Y-148982138D02*
X163075100Y-148204338D01*
X162981800Y-149137638D02*
X163075100Y-148982138D01*
X162795100Y-149215438D02*
X162981800Y-149137638D01*
X162328400Y-149215438D02*
X162795100Y-149215438D01*
X162328400Y-147971038D02*
X162328400Y-149215438D01*
X161239600Y-148593238D02*
X161892900Y-148593238D01*
X161239600Y-149215438D02*
X161892900Y-149215438D01*
X161239600Y-147971038D02*
X161239600Y-149215438D01*
X161892900Y-147971038D02*
X161239600Y-147971038D01*
X160337300Y-147971038D02*
X160804000Y-149215438D01*
X159870600Y-149215438D02*
X160337300Y-147971038D01*
X159155000Y-148593238D02*
X158688400Y-148593238D01*
X159341700Y-148671038D02*
X159155000Y-148593238D01*
X159435000Y-148826538D02*
X159341700Y-148671038D01*
X159435000Y-148982138D02*
X159435000Y-148826538D01*
X159341700Y-149137638D02*
X159435000Y-148982138D01*
X159155000Y-149215438D02*
X159341700Y-149137638D01*
X158688400Y-149215438D02*
X159155000Y-149215438D01*
X158688400Y-147971038D02*
X158688400Y-149215438D01*
X159435000Y-148282138D02*
X159435000Y-147971038D01*
X159341700Y-148437638D02*
X159435000Y-148282138D01*
X159061700Y-148593238D02*
X159341700Y-148437638D01*
X157599400Y-148593238D02*
X158252800Y-148593238D01*
X157599400Y-149215438D02*
X158252800Y-149215438D01*
X157599400Y-147971038D02*
X157599400Y-149215438D01*
X158252800Y-147971038D02*
X157599400Y-147971038D01*
X157070500Y-149137638D02*
X157163800Y-148982138D01*
D11*
X211883600Y-154622438D02*
X212121800Y-154860538D01*
X211883600Y-154384338D02*
X211883600Y-154622438D01*
X212121800Y-154225538D02*
X211883600Y-154384338D01*
X212518600Y-154146138D02*
X212121800Y-154225538D01*
X212756800Y-153987438D02*
X212518600Y-154146138D01*
X212756800Y-153749338D02*
X212756800Y-153987438D01*
X212518600Y-153511138D02*
X212756800Y-153749338D01*
X212121800Y-153511138D02*
X212518600Y-153511138D01*
X211883600Y-153669938D02*
X212121800Y-153511138D01*
X213391800Y-153590538D02*
X213153600Y-153828738D01*
X213868000Y-153590538D02*
X213391800Y-153590538D01*
X214026800Y-153828738D02*
X213868000Y-153590538D01*
X214026800Y-154860538D02*
X214026800Y-153828738D01*
X213153600Y-154860538D02*
X214026800Y-154860538D01*
X214899900Y-154781138D02*
X214899900Y-153590538D01*
X215296800Y-154781138D02*
X214503000Y-154781138D01*
X211052800Y-152508238D02*
X211290900Y-152905138D01*
X211052800Y-152111438D02*
X211052800Y-152508238D01*
X211290900Y-151714538D02*
X211052800Y-152111438D01*
X213629900Y-152082438D02*
X213391800Y-151685538D01*
D13*
X183021600Y-154862362D02*
X183435600Y-154860662D01*
X183218900Y-154836762D02*
X183021600Y-154862362D01*
X183439600Y-154778562D02*
X183218900Y-154836762D01*
X183598300Y-154731062D02*
X183439600Y-154778562D01*
X183713400Y-154662262D02*
X183598300Y-154731062D01*
X183758700Y-154543162D02*
X183713400Y-154662262D01*
X183713400Y-154305062D02*
X183758700Y-154543162D01*
X183515000Y-154185962D02*
X183713400Y-154305062D01*
X182840300Y-154185962D02*
X183515000Y-154185962D01*
X182840300Y-155535362D02*
X182840300Y-154185962D01*
X189230000Y-154185962D02*
X189230000Y-155495662D01*
X188039400Y-154820962D02*
X188674400Y-154820962D01*
X187960000Y-154185962D02*
X188833100Y-154185962D01*
X187960000Y-155455962D02*
X187960000Y-154185962D01*
X188793400Y-155455962D02*
X187960000Y-155455962D01*
X185856600Y-154185962D02*
X185855100Y-155477662D01*
X186293100Y-155495662D02*
X185374500Y-155500362D01*
X184904100Y-154900362D02*
X184277400Y-154907662D01*
X184856300Y-155504062D02*
X184990300Y-154202562D01*
X184343500Y-155507962D02*
X184856300Y-155504062D01*
X184182200Y-154200662D02*
X184343500Y-155507962D01*
X183356200Y-155535362D02*
X182840300Y-155535362D01*
X183475300Y-155455962D02*
X183356200Y-155535362D01*
X183554700Y-155336962D02*
X183475300Y-155455962D01*
X183597200Y-155146262D02*
X183554700Y-155336962D01*
X183554700Y-155019462D02*
X183597200Y-155146262D01*
X183435600Y-154860662D02*
X183554700Y-155019462D01*
D12*
X147997900Y-148671038D02*
X147811200Y-148593238D01*
X148091200Y-148826538D02*
X147997900Y-148671038D01*
X148091200Y-148982138D02*
X148091200Y-148826538D01*
X147997900Y-149137638D02*
X148091200Y-148982138D01*
X147811200Y-149215438D02*
X147997900Y-149137638D01*
X147344600Y-149215438D02*
X147811200Y-149215438D01*
X147344600Y-147971038D02*
X147344600Y-149215438D01*
X148091200Y-148282138D02*
X148091200Y-147971038D01*
X147997900Y-148437638D02*
X148091200Y-148282138D01*
X147717900Y-148593238D02*
X147997900Y-148437638D01*
X145801400Y-147971038D02*
X146454700Y-147971038D01*
X145801400Y-149215438D02*
X145801400Y-147971038D01*
X144712400Y-147971038D02*
X145365800Y-147971038D01*
X144712400Y-149215438D02*
X144712400Y-147971038D01*
X143530200Y-148437638D02*
X144090200Y-148437638D01*
X143810200Y-149215438D02*
X144276900Y-147971038D01*
X143343600Y-147971038D02*
X143810200Y-149215438D01*
X160185600Y-149876038D02*
X159718900Y-149876038D01*
X160372200Y-149953838D02*
X160185600Y-149876038D01*
X160465600Y-150109338D02*
X160372200Y-149953838D01*
X160465600Y-150887138D02*
X160465600Y-150109338D01*
X160372200Y-151042638D02*
X160465600Y-150887138D01*
X160185600Y-151120438D02*
X160372200Y-151042638D01*
X159718900Y-151120438D02*
X160185600Y-151120438D01*
X159718900Y-149876038D02*
X159718900Y-151120438D01*
X159283300Y-149876038D02*
X159283300Y-151120438D01*
X158536600Y-151120438D02*
X159283300Y-149876038D01*
X158536600Y-149876038D02*
X158536600Y-151120438D01*
X157354400Y-150342638D02*
X157914400Y-150342638D01*
X157634400Y-151120438D02*
X158101000Y-149876038D01*
X157167700Y-149876038D02*
X157634400Y-151120438D01*
X156078800Y-149876038D02*
X156732100Y-149876038D01*
D14*
X147351800Y-128666838D02*
X146875500Y-128825538D01*
X147748600Y-128349338D02*
X147351800Y-128666838D01*
X148066100Y-127952438D02*
X147748600Y-128349338D01*
X148066100Y-125571138D02*
X148066100Y-127952438D01*
X147748600Y-125253738D02*
X148066100Y-125571138D01*
X147351800Y-125015538D02*
X147748600Y-125253738D01*
X146875500Y-124856838D02*
X147351800Y-125015538D01*
X145764200Y-124698038D02*
X146875500Y-124856838D01*
X144653000Y-124856838D02*
X145764200Y-124698038D01*
X144256100Y-125015538D02*
X144653000Y-124856838D01*
X143859200Y-125253738D02*
X144256100Y-125015538D01*
X143462400Y-125571138D02*
X143859200Y-125253738D01*
D15*
X145923000Y-126603038D02*
X145923000Y-126682438D01*
X146002400Y-126523738D02*
X145923000Y-126603038D01*
X146002400Y-126444338D02*
X146002400Y-126523738D01*
X145843600Y-126285538D02*
X146002400Y-126444338D01*
X145684900Y-126285538D02*
X145843600Y-126285538D01*
D12*
X149409700Y-152403238D02*
X149409700Y-152481038D01*
X149409700Y-152014338D02*
X149409700Y-152403238D01*
X149316400Y-151858838D02*
X149409700Y-152014338D01*
X149129700Y-151781038D02*
X149316400Y-151858838D01*
X148943000Y-151781038D02*
X149129700Y-151781038D01*
X148756400Y-151858838D02*
X148943000Y-151781038D01*
X148663000Y-152014338D02*
X148756400Y-151858838D01*
X148227400Y-153025438D02*
X148227400Y-151781038D01*
X147760700Y-152558838D02*
X148227400Y-153025438D01*
X146777500Y-151858838D02*
X146590800Y-151781038D01*
X146870800Y-152014338D02*
X146777500Y-151858838D01*
X146870800Y-152792138D02*
X146870800Y-152014338D01*
X146777500Y-152947638D02*
X146870800Y-152792138D01*
X146590800Y-153025438D02*
X146777500Y-152947638D01*
X146061900Y-152947638D02*
X146155200Y-152792138D01*
X145875200Y-153025438D02*
X146061900Y-152947638D01*
X145688500Y-153025438D02*
X145875200Y-153025438D01*
X145501900Y-152947638D02*
X145688500Y-153025438D01*
X145408500Y-152792138D02*
X145501900Y-152947638D01*
X145408500Y-152014338D02*
X145408500Y-152792138D01*
X145501900Y-151858838D02*
X145408500Y-152014338D01*
X145688500Y-151781038D02*
X145501900Y-151858838D01*
X154935500Y-151858838D02*
X155028800Y-152014338D01*
X154748800Y-151781038D02*
X154935500Y-151858838D01*
X154562100Y-151781038D02*
X154748800Y-151781038D01*
X154375500Y-151858838D02*
X154562100Y-151781038D01*
X154282100Y-152014338D02*
X154375500Y-151858838D01*
X153846500Y-151781038D02*
X153846500Y-153025438D01*
X153130900Y-152403238D02*
X152664200Y-152403238D01*
X153317600Y-152481038D02*
X153130900Y-152403238D01*
X153410900Y-152636538D02*
X153317600Y-152481038D01*
X153410900Y-152792138D02*
X153410900Y-152636538D01*
X153317600Y-152947638D02*
X153410900Y-152792138D01*
X153130900Y-153025438D02*
X153317600Y-152947638D01*
X152664200Y-153025438D02*
X153130900Y-153025438D01*
X152664200Y-151781038D02*
X152664200Y-153025438D01*
X153410900Y-152092138D02*
X153410900Y-151781038D01*
X153317600Y-152247638D02*
X153410900Y-152092138D01*
X153037600Y-152403238D02*
X153317600Y-152247638D01*
X151774300Y-152792138D02*
X151774300Y-152403238D01*
X151681000Y-152947638D02*
X151774300Y-152792138D01*
X151494300Y-153025438D02*
X151681000Y-152947638D01*
X151307600Y-153025438D02*
X151494300Y-153025438D01*
X151121000Y-152947638D02*
X151307600Y-153025438D01*
X151027600Y-152792138D02*
X151121000Y-152947638D01*
D11*
X212042400Y-156130538D02*
X212439200Y-156130538D01*
X212598000Y-156130538D02*
X212042400Y-156130538D01*
X212598000Y-156527438D02*
X212598000Y-156130538D01*
X212439200Y-156686138D02*
X212598000Y-156527438D01*
X211883600Y-156686138D02*
X212439200Y-156686138D01*
X211883600Y-155495538D02*
X211883600Y-156686138D01*
X213233000Y-156051138D02*
X214026800Y-156051138D01*
X215931800Y-155495538D02*
X215773000Y-155654338D01*
X216328600Y-155495538D02*
X215931800Y-155495538D01*
X216566800Y-155733738D02*
X216328600Y-155495538D01*
X216566800Y-156051138D02*
X216566800Y-155733738D01*
X216487400Y-156130538D02*
X216566800Y-156051138D01*
X216249200Y-156289338D02*
X216487400Y-156130538D01*
X216249200Y-156448038D02*
X216249200Y-156289338D01*
X216487400Y-156686138D02*
X216249200Y-156448038D01*
X215773000Y-156686138D02*
X216487400Y-156686138D01*
X217439900Y-156686138D02*
X217201800Y-156448038D01*
D13*
X187126600Y-154185962D02*
X187125100Y-155477662D01*
X187563100Y-155495662D02*
X186644500Y-155500362D01*
X190936600Y-154979762D02*
X190936600Y-154185962D01*
X190936600Y-154940062D02*
X190500000Y-155495662D01*
X191333400Y-155495662D02*
X190936600Y-154940062D01*
X189666600Y-154860662D02*
X190103100Y-154185962D01*
X189944400Y-154860662D02*
X189230000Y-154860662D01*
X190103100Y-154979762D02*
X189944400Y-154860662D01*
X190103100Y-155257562D02*
X190103100Y-154979762D01*
X189825300Y-155495662D02*
X190103100Y-155257562D01*
X189230000Y-155495662D02*
X189825300Y-155495662D01*
X196580100Y-151304662D02*
X196977000Y-151304662D01*
X196342000Y-151542862D02*
X196580100Y-151304662D01*
X196342000Y-152574662D02*
X196342000Y-151542862D01*
X195707000Y-151304662D02*
X195945100Y-151542862D01*
X195230800Y-151304662D02*
X195707000Y-151304662D01*
X195072000Y-151701562D02*
X195230800Y-151304662D01*
X195072000Y-152177862D02*
X195072000Y-151701562D01*
X195310100Y-152574662D02*
X195072000Y-152177862D01*
X195707000Y-152574662D02*
X195310100Y-152574662D01*
X195945100Y-152336562D02*
X195707000Y-152574662D01*
D11*
X217439900Y-155495538D02*
X217439900Y-156686138D01*
X219106800Y-156686138D02*
X218313000Y-155495538D01*
X218313000Y-156686138D02*
X219106800Y-156686138D01*
X220297400Y-156051138D02*
X219662400Y-156051138D01*
X219741800Y-156765538D02*
X219583000Y-155495538D01*
X220218000Y-156765538D02*
X219741800Y-156765538D01*
X220376800Y-155495538D02*
X220218000Y-156765538D01*
X271097400Y-123904338D02*
X270303600Y-123348738D01*
X271097400Y-124380538D02*
X271097400Y-123904338D01*
X271097400Y-123666138D02*
X271097400Y-124380538D01*
X271335500Y-123428038D02*
X271097400Y-123666138D01*
X271573600Y-123428038D02*
X271335500Y-123428038D01*
X271732400Y-123666138D02*
X271573600Y-123428038D01*
X271732400Y-124459938D02*
X271732400Y-123666138D01*
X270303600Y-124459938D02*
X271732400Y-124459938D01*
X270303600Y-127158738D02*
X270303600Y-127714338D01*
X270700500Y-126761838D02*
X270303600Y-127158738D01*
X153886600Y-157972738D02*
X153886600Y-156623438D01*
X153727800Y-157972738D02*
X153886600Y-157972738D01*
X153461600Y-157404338D02*
X153727800Y-157972738D01*
X153172200Y-157972738D02*
X153461600Y-157404338D01*
X153013500Y-157972738D02*
X153172200Y-157972738D01*
X153013500Y-156623438D02*
X153013500Y-157972738D01*
X150949700Y-157972738D02*
X151108500Y-157814038D01*
X150473500Y-157972738D02*
X150949700Y-157972738D01*
X150235300Y-157575938D02*
X150473500Y-157972738D01*
X150235400Y-157020338D02*
X150235300Y-157575938D01*
X150473500Y-156623438D02*
X150235400Y-157020338D01*
X150949700Y-156623438D02*
X150473500Y-156623438D01*
X151108500Y-156782138D02*
X150949700Y-156623438D01*
D13*
X198088200Y-152574662D02*
X198088200Y-151384000D01*
X198485100Y-152574662D02*
X197612000Y-152574662D01*
X197215100Y-151542862D02*
X197215100Y-152574662D01*
X196977000Y-151304662D02*
X197215100Y-151542862D01*
D12*
X150498700Y-152481038D02*
X150312000Y-152403238D01*
X150592000Y-152636538D02*
X150498700Y-152481038D01*
X150592000Y-152792138D02*
X150592000Y-152636538D01*
X150498700Y-152947638D02*
X150592000Y-152792138D01*
X150312000Y-153025438D02*
X150498700Y-152947638D01*
X150125300Y-153025438D02*
X150312000Y-153025438D01*
X149938700Y-152947638D02*
X150125300Y-153025438D01*
X149845300Y-152792138D02*
X149938700Y-152947638D01*
X149845300Y-152636538D02*
X149845300Y-152792138D01*
X149938700Y-152481038D02*
X149845300Y-152636538D01*
X150125300Y-152403238D02*
X149938700Y-152481038D01*
X150312000Y-152403238D02*
X150125300Y-152403238D01*
X149409700Y-152792138D02*
X149409700Y-152403238D01*
X149316400Y-152947638D02*
X149409700Y-152792138D01*
X149129700Y-153025438D02*
X149316400Y-152947638D01*
X148943000Y-153025438D02*
X149129700Y-153025438D01*
X148756400Y-152947638D02*
X148943000Y-153025438D01*
X148663000Y-152792138D02*
X148756400Y-152947638D01*
X148663000Y-152558838D02*
X148663000Y-152792138D01*
X148756400Y-152403238D02*
X148663000Y-152558838D01*
X148943000Y-152325438D02*
X148756400Y-152403238D01*
X149129700Y-152325438D02*
X148943000Y-152325438D01*
X149409700Y-152481038D02*
X149129700Y-152325438D01*
D11*
X155765500Y-156606838D02*
X156638600Y-156606838D01*
X155765500Y-157956138D02*
X155765500Y-156606838D01*
X155051100Y-157321138D02*
X154416100Y-157321138D01*
X155209900Y-157479938D02*
X155051100Y-157321138D01*
X155209900Y-157797438D02*
X155209900Y-157479938D01*
X155051100Y-157956138D02*
X155209900Y-157797438D01*
X154416100Y-157956138D02*
X155051100Y-157956138D01*
X154336800Y-157876838D02*
X154416100Y-157956138D01*
X154336800Y-156606838D02*
X154336800Y-157876838D01*
X151902200Y-156623438D02*
X151584700Y-157020338D01*
X152219700Y-156623438D02*
X151902200Y-156623438D01*
X152537200Y-157020338D02*
X152219700Y-156623438D01*
X152537200Y-157575938D02*
X152537200Y-157020338D01*
X152219700Y-157972738D02*
X152537200Y-157575938D01*
X151902200Y-157972738D02*
X152219700Y-157972738D01*
X151584700Y-157575938D02*
X151902200Y-157972738D01*
X151584700Y-157020338D02*
X151584700Y-157575938D01*
D12*
X159216600Y-152792138D02*
X159216600Y-152636538D01*
X159123300Y-152947638D02*
X159216600Y-152792138D01*
X158936600Y-153025438D02*
X159123300Y-152947638D01*
X158469900Y-153025438D02*
X158936600Y-153025438D01*
X158469900Y-151781038D02*
X158469900Y-153025438D01*
X156833400Y-152247638D02*
X157393400Y-152247638D01*
X157113400Y-153025438D02*
X157580100Y-151781038D01*
X156646700Y-151781038D02*
X157113400Y-153025438D01*
X155744400Y-152403238D02*
X156211100Y-151781038D01*
X155464400Y-152169938D02*
X156211100Y-153025438D01*
X155464400Y-151781038D02*
X155464400Y-153025438D01*
X154935500Y-152947638D02*
X155028800Y-152792138D01*
X154748800Y-153025438D02*
X154935500Y-152947638D01*
X154562100Y-153025438D02*
X154748800Y-153025438D01*
X154375500Y-152947638D02*
X154562100Y-153025438D01*
X154282100Y-152792138D02*
X154375500Y-152947638D01*
X154282100Y-152636538D02*
X154282100Y-152792138D01*
X154375500Y-152481038D02*
X154282100Y-152636538D01*
X154562100Y-152403238D02*
X154375500Y-152481038D01*
X154748800Y-152403238D02*
X154562100Y-152403238D01*
X154935500Y-152325438D02*
X154748800Y-152403238D01*
X155028800Y-152169938D02*
X154935500Y-152325438D01*
X155028800Y-152014338D02*
X155028800Y-152169938D01*
D11*
X218471800Y-152241138D02*
X219106800Y-152241138D01*
X218233600Y-152399938D02*
X218471800Y-152241138D01*
X218233600Y-152717438D02*
X218233600Y-152399938D01*
X218471800Y-152955538D02*
X218233600Y-152717438D01*
X218868600Y-152955538D02*
X218471800Y-152955538D01*
X219106800Y-152717438D02*
X218868600Y-152955538D01*
X219106800Y-152082438D02*
X219106800Y-152717438D01*
X218630500Y-151685538D02*
X219106800Y-152082438D01*
X218313000Y-151606138D02*
X218630500Y-151685538D01*
X215931800Y-152241138D02*
X216566800Y-152241138D01*
X215693600Y-152399938D02*
X215931800Y-152241138D01*
X215693600Y-152717438D02*
X215693600Y-152399938D01*
X215931800Y-152955538D02*
X215693600Y-152717438D01*
X216328600Y-152955538D02*
X215931800Y-152955538D01*
X216566800Y-152717438D02*
X216328600Y-152955538D01*
X216566800Y-152082438D02*
X216566800Y-152717438D01*
X216090500Y-151685538D02*
X216566800Y-152082438D01*
X215773000Y-151606138D02*
X216090500Y-151685538D01*
X212518600Y-154860538D02*
X212756800Y-154701838D01*
X212121800Y-154860538D02*
X212518600Y-154860538D01*
D12*
X156883800Y-149215438D02*
X157070500Y-149137638D01*
X156697200Y-149215438D02*
X156883800Y-149215438D01*
X156510500Y-149137638D02*
X156697200Y-149215438D01*
X156417200Y-148982138D02*
X156510500Y-149137638D01*
X156417200Y-148826538D02*
X156417200Y-148982138D01*
X156510500Y-148671038D02*
X156417200Y-148826538D01*
X156697200Y-148593238D02*
X156510500Y-148671038D01*
X156883800Y-148593238D02*
X156697200Y-148593238D01*
X157070500Y-148515438D02*
X156883800Y-148593238D01*
X157163800Y-148359938D02*
X157070500Y-148515438D01*
X157163800Y-148204338D02*
X157163800Y-148359938D01*
X157070500Y-148048838D02*
X157163800Y-148204338D01*
X156883800Y-147971038D02*
X157070500Y-148048838D01*
X156697200Y-147971038D02*
X156883800Y-147971038D01*
X156510500Y-148048838D02*
X156697200Y-147971038D01*
X156417200Y-148204338D02*
X156510500Y-148048838D01*
X155328200Y-148593238D02*
X155981600Y-148593238D01*
X155328200Y-149215438D02*
X155981600Y-149215438D01*
X155328200Y-147971038D02*
X155328200Y-149215438D01*
X155981600Y-147971038D02*
X155328200Y-147971038D01*
X154612600Y-148593238D02*
X154146000Y-148593238D01*
X154799300Y-148671038D02*
X154612600Y-148593238D01*
X154892600Y-148826538D02*
X154799300Y-148671038D01*
X154892600Y-148982138D02*
X154892600Y-148826538D01*
X154799300Y-149137638D02*
X154892600Y-148982138D01*
X154612600Y-149215438D02*
X154799300Y-149137638D01*
X154146000Y-149215438D02*
X154612600Y-149215438D01*
X154146000Y-147971038D02*
X154146000Y-149215438D01*
X154892600Y-148282138D02*
X154892600Y-147971038D01*
X154799300Y-148437638D02*
X154892600Y-148282138D01*
X154519300Y-148593238D02*
X154799300Y-148437638D01*
X153162700Y-149137638D02*
X153256000Y-148982138D01*
X152976000Y-149215438D02*
X153162700Y-149137638D01*
X152789400Y-149215438D02*
X152976000Y-149215438D01*
X156078800Y-151120438D02*
X156078800Y-149876038D01*
X154989900Y-149876038D02*
X155643200Y-149876038D01*
X154989900Y-151120438D02*
X154989900Y-149876038D01*
X154460900Y-151042638D02*
X154554300Y-150887138D01*
X154274300Y-151120438D02*
X154460900Y-151042638D01*
X154087600Y-151120438D02*
X154274300Y-151120438D01*
X153900900Y-151042638D02*
X154087600Y-151120438D01*
X153807600Y-150887138D02*
X153900900Y-151042638D01*
X153807600Y-150109338D02*
X153807600Y-150887138D01*
X153900900Y-149953838D02*
X153807600Y-150109338D01*
X154087600Y-149876038D02*
X153900900Y-149953838D01*
X154274300Y-149876038D02*
X154087600Y-149876038D01*
X154460900Y-149953838D02*
X154274300Y-149876038D01*
X154554300Y-150109338D02*
X154460900Y-149953838D01*
X154554300Y-150887138D02*
X154554300Y-150109338D01*
X152625300Y-150498238D02*
X153372000Y-150498238D01*
X153372000Y-149876038D02*
X153372000Y-151120438D01*
X152625300Y-149876038D02*
X152625300Y-151120438D01*
X151735400Y-149876038D02*
X151735400Y-151120438D01*
X150988700Y-151120438D02*
X151735400Y-149876038D01*
X150988700Y-149876038D02*
X150988700Y-151120438D01*
X150553100Y-149876038D02*
X150553100Y-151120438D01*
X149009900Y-150498238D02*
X149663200Y-150498238D01*
X149009900Y-151120438D02*
X149663200Y-151120438D01*
X149009900Y-149876038D02*
X149009900Y-151120438D01*
X149663200Y-149876038D02*
X149009900Y-149876038D01*
X148294300Y-149876038D02*
X147827600Y-149876038D01*
X148480900Y-149953838D02*
X148294300Y-149876038D01*
X148574300Y-150109338D02*
X148480900Y-149953838D01*
X148574300Y-150887138D02*
X148574300Y-150109338D01*
D11*
X211963000Y-152003038D02*
X211963000Y-152558738D01*
X212121800Y-151685538D02*
X211963000Y-152003038D01*
X212518600Y-151685538D02*
X212121800Y-151685538D01*
X212677400Y-151844338D02*
X212518600Y-151685538D01*
X214503000Y-156368738D02*
X214661800Y-156686138D01*
X214503000Y-155813038D02*
X214503000Y-156368738D01*
X214661800Y-155495538D02*
X214503000Y-155813038D01*
X215138000Y-155495538D02*
X214661800Y-155495538D01*
X215296800Y-155813038D02*
X215138000Y-155495538D01*
X215296800Y-156368738D02*
X215296800Y-155813038D01*
X215138000Y-156686138D02*
X215296800Y-156368738D01*
X214661800Y-156686138D02*
X215138000Y-156686138D01*
X217043000Y-154384338D02*
X217201800Y-154781138D01*
X217043000Y-153908038D02*
X217043000Y-154384338D01*
X217201800Y-153511138D02*
X217043000Y-153908038D01*
X217678000Y-153511138D02*
X217201800Y-153511138D01*
X217836800Y-153908038D02*
X217678000Y-153511138D01*
X217836800Y-154384338D02*
X217836800Y-153908038D01*
X217678000Y-154781138D02*
X217836800Y-154384338D01*
X147510500Y-157956138D02*
X147510500Y-156606838D01*
X148304200Y-157956138D02*
X147510500Y-157956138D01*
X146954900Y-156606838D02*
X146954900Y-157956138D01*
X146954900Y-157321138D02*
X146954900Y-156606838D01*
X146081800Y-157321138D02*
X146954900Y-157321138D01*
X146081800Y-157956138D02*
X146081800Y-157321138D01*
X146081800Y-156606838D02*
X146081800Y-157956138D01*
X159972400Y-157321138D02*
X160607400Y-157321138D01*
X159972400Y-156606838D02*
X160766100Y-156606838D01*
X159972400Y-157956138D02*
X159972400Y-156606838D01*
X160766100Y-157956138D02*
X159972400Y-157956138D01*
X157194200Y-157321138D02*
X157829200Y-157321138D01*
X159019900Y-157956138D02*
X159019900Y-156606838D01*
X158623000Y-157956138D02*
X159496100Y-157956138D01*
X157194200Y-156606838D02*
X157988000Y-156606838D01*
X157194200Y-157956138D02*
X157194200Y-156606838D01*
X157988000Y-157956138D02*
X157194200Y-157956138D01*
D12*
X151027600Y-152558838D02*
X151027600Y-152792138D01*
X151121000Y-152403238D02*
X151027600Y-152558838D01*
X151307600Y-152325438D02*
X151121000Y-152403238D01*
X151494300Y-152325438D02*
X151307600Y-152325438D01*
X151774300Y-152481038D02*
X151494300Y-152325438D01*
X151774300Y-152403238D02*
X151774300Y-152481038D01*
X151774300Y-152014338D02*
X151774300Y-152403238D01*
X151681000Y-151858838D02*
X151774300Y-152014338D01*
X151494300Y-151781038D02*
X151681000Y-151858838D01*
X151307600Y-151781038D02*
X151494300Y-151781038D01*
X151121000Y-151858838D02*
X151307600Y-151781038D01*
X151027600Y-152014338D02*
X151121000Y-151858838D01*
X149938700Y-152325438D02*
X150125300Y-152403238D01*
X149845300Y-152169938D02*
X149938700Y-152325438D01*
X149845300Y-152014338D02*
X149845300Y-152169938D01*
X149938700Y-151858838D02*
X149845300Y-152014338D01*
X150125300Y-151781038D02*
X149938700Y-151858838D01*
X150312000Y-151781038D02*
X150125300Y-151781038D01*
X150498700Y-151858838D02*
X150312000Y-151781038D01*
X150592000Y-152014338D02*
X150498700Y-151858838D01*
X150592000Y-152169938D02*
X150592000Y-152014338D01*
X150498700Y-152325438D02*
X150592000Y-152169938D01*
X150312000Y-152403238D02*
X150498700Y-152325438D01*
D11*
X148224900Y-155416138D02*
X147431100Y-155416138D01*
X146954900Y-154066838D02*
X146954900Y-155416138D01*
X146954900Y-154781138D02*
X146954900Y-154066838D01*
X146081800Y-154781138D02*
X146954900Y-154781138D01*
X146081800Y-155416138D02*
X146081800Y-154781138D01*
X146081800Y-154066838D02*
X146081800Y-155416138D01*
X145393500Y-155432738D02*
X145552200Y-155274038D01*
X144917200Y-155432738D02*
X145393500Y-155432738D01*
X144679100Y-155035938D02*
X144917200Y-155432738D01*
X144679100Y-154480338D02*
X144679100Y-155035938D01*
X144917200Y-154083438D02*
X144679100Y-154480338D01*
X145393500Y-154083438D02*
X144917200Y-154083438D01*
X145552200Y-154242138D02*
X145393500Y-154083438D01*
X145129200Y-157956138D02*
X145129200Y-156606838D01*
X144732400Y-157956138D02*
X145605500Y-157956138D01*
X147510500Y-157321138D02*
X148145500Y-157321138D01*
X147510500Y-156606838D02*
X148304200Y-156606838D01*
X155844900Y-154066838D02*
X155844900Y-155416138D01*
X155077200Y-155432738D02*
X155236000Y-155274038D01*
X154601000Y-155432738D02*
X155077200Y-155432738D01*
X154362800Y-155035938D02*
X154601000Y-155432738D01*
X154362800Y-154480338D02*
X154362800Y-155035938D01*
X154601000Y-154083438D02*
X154362800Y-154480338D01*
X155077200Y-154083438D02*
X154601000Y-154083438D01*
X155236000Y-154242138D02*
X155077200Y-154083438D01*
X152457800Y-155432738D02*
X152457800Y-154083438D01*
X152299100Y-155432738D02*
X152457800Y-155432738D01*
X152032800Y-154864338D02*
X152299100Y-155432738D01*
X151743400Y-155432738D02*
X152032800Y-154864338D01*
X151584700Y-155432738D02*
X151743400Y-155432738D01*
X151584700Y-154083438D02*
X151584700Y-155432738D01*
X147431100Y-154781138D02*
X148066100Y-154781138D01*
X147431100Y-154066838D02*
X148224900Y-154066838D01*
X147431100Y-155416138D02*
X147431100Y-154066838D01*
X153066800Y-154066838D02*
X153146100Y-155416138D01*
X157353000Y-155416138D02*
X157829200Y-155416138D01*
X157591100Y-154066838D02*
X157591100Y-155416138D01*
X157353000Y-154066838D02*
X157829200Y-154066838D01*
X158543600Y-155416138D02*
X158543600Y-154066838D01*
X158781800Y-155416138D02*
X158543600Y-155416138D01*
X159258000Y-154066838D02*
X158781800Y-155416138D01*
X159496100Y-154066838D02*
X159258000Y-154066838D01*
X159496100Y-155416138D02*
X159496100Y-154066838D01*
X160051800Y-154781138D02*
X160686800Y-154781138D01*
X160051800Y-154066838D02*
X160845500Y-154066838D01*
X160051800Y-155416138D02*
X160051800Y-154066838D01*
X160845500Y-155416138D02*
X160051800Y-155416138D01*
X156718000Y-154066838D02*
X156718000Y-155416138D01*
X156718000Y-154781138D02*
X156718000Y-154066838D01*
X155844900Y-154781138D02*
X156718000Y-154781138D01*
X155844900Y-155416138D02*
X155844900Y-154781138D01*
X150844200Y-154066838D02*
X151082400Y-154304938D01*
X150447400Y-154066838D02*
X150844200Y-154066838D01*
X150209200Y-154225538D02*
X150447400Y-154066838D01*
X149494900Y-155416138D02*
X149733000Y-155257438D01*
X149098000Y-155416138D02*
X149494900Y-155416138D01*
X148859900Y-155178038D02*
X149098000Y-155416138D01*
X148859900Y-154939938D02*
X148859900Y-155178038D01*
X149098000Y-154781138D02*
X148859900Y-154939938D01*
X149494900Y-154701838D02*
X149098000Y-154781138D01*
X149733000Y-154543038D02*
X149494900Y-154701838D01*
X149733000Y-154304938D02*
X149733000Y-154543038D01*
X149494900Y-154066838D02*
X149733000Y-154304938D01*
X149098000Y-154066838D02*
X149494900Y-154066838D01*
X148859900Y-154225538D02*
X149098000Y-154066838D01*
X153146100Y-154781138D02*
X153781100Y-154781138D01*
X153701800Y-155416138D02*
X153860500Y-154066838D01*
X153146100Y-155416138D02*
X153701800Y-155416138D01*
X213629900Y-152479338D02*
X213629900Y-152082438D01*
X213391800Y-152876138D02*
X213629900Y-152479338D01*
X214899900Y-152955538D02*
X214661800Y-152717438D01*
X214899900Y-151606138D02*
X214899900Y-152955538D01*
X215773000Y-154701838D02*
X215773000Y-154384338D01*
X215931800Y-154860538D02*
X215773000Y-154701838D01*
X216408000Y-154860538D02*
X215931800Y-154860538D01*
X216566800Y-154701838D02*
X216408000Y-154860538D01*
X216566800Y-154384338D02*
X216566800Y-154701838D01*
X215773000Y-153987438D02*
X216566800Y-154384338D01*
X215773000Y-153669938D02*
X215773000Y-153987438D01*
X215931800Y-153511138D02*
X215773000Y-153669938D01*
X216408000Y-153511138D02*
X215931800Y-153511138D01*
X216566800Y-153669938D02*
X216408000Y-153511138D01*
X216566800Y-153987438D02*
X216566800Y-153669938D01*
X215773000Y-154384338D02*
X216566800Y-153987438D01*
X212518600Y-152876138D02*
X212677400Y-152717438D01*
X212121800Y-152876138D02*
X212518600Y-152876138D01*
X211963000Y-152558738D02*
X212121800Y-152876138D01*
D15*
X146478600Y-126206138D02*
X146081800Y-126047438D01*
X147113600Y-126682438D02*
X146478600Y-126206138D01*
X145923000Y-126682438D02*
X147113600Y-126682438D01*
G36*
X146478600Y-126206138D02*
G01*
X147113600Y-126682438D01*
X145923000Y-126682438D01*
X145923000Y-126603038D01*
X146002400Y-126523738D01*
X146002400Y-126444338D01*
X145843600Y-126285538D01*
X145684900Y-126285538D01*
X145446800Y-126523738D01*
X145446800Y-126999938D01*
X145684900Y-127238038D01*
X145843600Y-127238038D01*
X146081800Y-126999938D01*
X146954900Y-126999938D01*
X147034200Y-127079338D01*
X147034200Y-127158738D01*
X146637400Y-127476138D01*
X146399200Y-127555538D01*
X145129200Y-127555538D01*
X144811800Y-127396838D01*
X144414900Y-126999938D01*
X144414900Y-126603038D01*
X144811800Y-126206138D01*
X145129200Y-126047438D01*
X146081800Y-126047438D01*
X146478600Y-126206138D01*
G37*
D11*
X153543000Y-125809338D02*
X153543000Y-125571138D01*
X153622400Y-126285538D02*
X153543000Y-125809338D01*
X153781100Y-126682438D02*
X153622400Y-126285538D01*
X154019200Y-126999938D02*
X153781100Y-126682438D01*
X154257400Y-127238038D02*
X154019200Y-126999938D01*
X153146100Y-127238038D02*
X154257400Y-127238038D01*
X151796800Y-125571138D02*
X151558600Y-125729938D01*
X152352400Y-125571138D02*
X151796800Y-125571138D01*
X152590500Y-125729938D02*
X152352400Y-125571138D01*
X152669900Y-125968038D02*
X152590500Y-125729938D01*
X152669900Y-126206138D02*
X152669900Y-125968038D01*
X152590500Y-126444338D02*
X152669900Y-126206138D01*
X152352400Y-126603038D02*
X152590500Y-126444338D01*
X151796800Y-126603038D02*
X152352400Y-126603038D01*
X151558600Y-126444338D02*
X151796800Y-126603038D01*
X151558600Y-127079338D02*
X151558600Y-126444338D01*
X151717400Y-127238038D02*
X151558600Y-127079338D01*
X152431800Y-127238038D02*
X151717400Y-127238038D01*
X150685500Y-126523738D02*
X149733000Y-126523738D01*
X149653600Y-127238038D02*
X150685500Y-127238038D01*
X149653600Y-125571138D02*
X149653600Y-127238038D01*
X150685500Y-125571138D02*
X149653600Y-125571138D01*
X150844200Y-155416138D02*
X151082400Y-155257438D01*
X150447400Y-155416138D02*
X150844200Y-155416138D01*
X150209200Y-155178038D02*
X150447400Y-155416138D01*
X150209200Y-154939938D02*
X150209200Y-155178038D01*
X150447400Y-154781138D02*
X150209200Y-154939938D01*
X150844200Y-154701838D02*
X150447400Y-154781138D01*
X151082400Y-154543038D02*
X150844200Y-154701838D01*
X151082400Y-154304938D02*
X151082400Y-154543038D01*
D14*
X146002400Y-128111138D02*
X145764200Y-128904938D01*
X146954900Y-128746138D02*
X146637400Y-128111138D01*
X147589900Y-126761838D02*
X146954900Y-128746138D01*
X146954900Y-124936138D02*
X147589900Y-126761838D01*
X146637400Y-125491838D02*
X146954900Y-124936138D01*
X145764200Y-124698038D02*
X146002400Y-125491838D01*
X145526100Y-125491838D02*
X145764200Y-124698038D01*
X144573600Y-124936138D02*
X144891100Y-125491838D01*
X143938600Y-126761838D02*
X144573600Y-124936138D01*
X148066100Y-126761838D02*
X147589900Y-126761838D01*
X143462400Y-126761838D02*
X143938600Y-126761838D01*
X143462400Y-127952438D02*
X143462400Y-125571138D01*
X143859200Y-128349338D02*
X143462400Y-127952438D01*
X144256100Y-128666838D02*
X143859200Y-128349338D01*
X144653000Y-128825538D02*
X144256100Y-128666838D01*
X145764200Y-128904938D02*
X144653000Y-128825538D01*
X146875500Y-128825538D02*
X145764200Y-128904938D01*
D11*
X271698500Y-125996638D02*
X270349100Y-125996638D01*
X271698500Y-125202938D02*
X271698500Y-125996638D01*
X270349100Y-129330438D02*
X270349100Y-128457238D01*
X271698500Y-129330438D02*
X270349100Y-129330438D01*
X270365700Y-130653738D02*
X270762600Y-130971138D01*
X270365700Y-130336138D02*
X270365700Y-130653738D01*
X270762600Y-130018738D02*
X270365700Y-130336138D01*
X271318200Y-130018738D02*
X270762600Y-130018738D01*
X271715000Y-130336238D02*
X271318200Y-130018738D01*
X271715000Y-130653738D02*
X271715000Y-130336238D01*
X271318200Y-130971138D02*
X271715000Y-130653738D01*
X270762600Y-130971138D02*
X271318200Y-130971138D01*
D14*
X144653000Y-128825538D02*
X143938600Y-126761838D01*
X144891100Y-128111138D02*
X144653000Y-128825538D01*
X145764200Y-128904938D02*
X145526100Y-128111138D01*
D12*
X152602700Y-149137638D02*
X152789400Y-149215438D01*
X152509400Y-148982138D02*
X152602700Y-149137638D01*
X152509400Y-148826538D02*
X152509400Y-148982138D01*
X152602700Y-148671038D02*
X152509400Y-148826538D01*
X152789400Y-148593238D02*
X152602700Y-148671038D01*
X152976000Y-148593238D02*
X152789400Y-148593238D01*
X153162700Y-148515438D02*
X152976000Y-148593238D01*
X153256000Y-148359938D02*
X153162700Y-148515438D01*
X153256000Y-148204338D02*
X153256000Y-148359938D01*
X153162700Y-148048838D02*
X153256000Y-148204338D01*
X152976000Y-147971038D02*
X153162700Y-148048838D01*
X152789400Y-147971038D02*
X152976000Y-147971038D01*
X152602700Y-148048838D02*
X152789400Y-147971038D01*
X152509400Y-148204338D02*
X152602700Y-148048838D01*
X151327000Y-149215438D02*
X152073700Y-149215438D01*
X151700400Y-147971038D02*
X151700400Y-149215438D01*
X150144800Y-148593238D02*
X150891400Y-148593238D01*
X150891400Y-147971038D02*
X150891400Y-149215438D01*
X150144800Y-147971038D02*
X150144800Y-149215438D01*
X149615800Y-149137638D02*
X149709100Y-148982138D01*
X149429100Y-149215438D02*
X149615800Y-149137638D01*
X149242400Y-149215438D02*
X149429100Y-149215438D01*
X149055800Y-149137638D02*
X149242400Y-149215438D01*
X148962400Y-148982138D02*
X149055800Y-149137638D01*
X148962400Y-148204338D02*
X148962400Y-148982138D01*
X149055800Y-148048838D02*
X148962400Y-148204338D01*
X149242400Y-147971038D02*
X149055800Y-148048838D01*
X149429100Y-147971038D02*
X149242400Y-147971038D01*
X149615800Y-148048838D02*
X149429100Y-147971038D01*
X149709100Y-148204338D02*
X149615800Y-148048838D01*
X149709100Y-148593238D02*
X149709100Y-148204338D01*
X149335800Y-148593238D02*
X149709100Y-148593238D01*
X148526800Y-147971038D02*
X148526800Y-149215438D01*
X147811200Y-148593238D02*
X147344600Y-148593238D01*
D11*
X271335500Y-126761838D02*
X270700500Y-126761838D01*
X271732400Y-127238038D02*
X271335500Y-126761838D01*
X271732400Y-127714338D02*
X271732400Y-127238038D01*
X270303600Y-127714338D02*
X271732400Y-127714338D01*
X271698500Y-131949738D02*
X271539700Y-131711638D01*
X271698400Y-132346638D02*
X271698500Y-131949738D01*
X271460300Y-132584738D02*
X271698400Y-132346638D01*
X271222200Y-132584738D02*
X271460300Y-132584738D01*
X271063400Y-132346638D02*
X271222200Y-132584738D01*
X270984100Y-131949738D02*
X271063400Y-132346638D01*
X270825300Y-131711638D02*
X270984100Y-131949738D01*
X270587200Y-131711638D02*
X270825300Y-131711638D01*
X270349100Y-131949738D02*
X270587200Y-131711638D01*
X270349100Y-132346638D02*
X270349100Y-131949738D01*
X270507800Y-132584738D02*
X270349100Y-132346638D01*
X271063500Y-125996638D02*
X271063400Y-125361638D01*
X270349100Y-125996638D02*
X270349100Y-125202938D01*
D15*
X145446800Y-126523738D02*
X145684900Y-126285538D01*
X145446800Y-126999938D02*
X145446800Y-126523738D01*
X145684900Y-127238038D02*
X145446800Y-126999938D01*
X145843600Y-127238038D02*
X145684900Y-127238038D01*
X146081800Y-126999938D02*
X145843600Y-127238038D01*
X146954900Y-126999938D02*
X146081800Y-126999938D01*
X147034200Y-127079338D02*
X146954900Y-126999938D01*
X147034200Y-127158738D02*
X147034200Y-127079338D01*
X146637400Y-127476138D02*
X147034200Y-127158738D01*
X146399200Y-127555538D02*
X146637400Y-127476138D01*
X145129200Y-127555538D02*
X146399200Y-127555538D01*
X144811800Y-127396838D02*
X145129200Y-127555538D01*
X144414900Y-126999938D02*
X144811800Y-127396838D01*
X144414900Y-126603038D02*
X144414900Y-126999938D01*
X144811800Y-126206138D02*
X144414900Y-126603038D01*
X145129200Y-126047438D02*
X144811800Y-126206138D01*
X146081800Y-126047438D02*
X145129200Y-126047438D01*
D12*
X148480900Y-151042638D02*
X148574300Y-150887138D01*
X148294300Y-151120438D02*
X148480900Y-151042638D01*
X147827600Y-151120438D02*
X148294300Y-151120438D01*
X147827600Y-149876038D02*
X147827600Y-151120438D01*
X146645400Y-150342638D02*
X147205400Y-150342638D01*
X146925400Y-151120438D02*
X147392000Y-149876038D01*
X146458700Y-149876038D02*
X146925400Y-151120438D01*
X146023100Y-151120438D02*
X146023100Y-149876038D01*
X145556500Y-150342638D02*
X146023100Y-151120438D01*
X145089800Y-151120438D02*
X145556500Y-150342638D01*
X145089800Y-149876038D02*
X145089800Y-151120438D01*
X161021100Y-151781038D02*
X161021100Y-151781038D01*
X160118900Y-151781038D02*
X160585600Y-153025438D01*
X159652200Y-153025438D02*
X160118900Y-151781038D01*
X158469900Y-152403238D02*
X158936600Y-152403238D01*
X158936600Y-151781038D02*
X158469900Y-151781038D01*
X159123300Y-151858838D02*
X158936600Y-151781038D01*
X159216600Y-152014338D02*
X159123300Y-151858838D01*
X159216600Y-152169938D02*
X159216600Y-152014338D01*
X159123300Y-152325438D02*
X159216600Y-152169938D01*
X158936600Y-152403238D02*
X159123300Y-152325438D01*
X159123300Y-152481038D02*
X158936600Y-152403238D01*
X159216600Y-152636538D02*
X159123300Y-152481038D01*
D14*
X143484600Y-126758700D02*
X143903700Y-126758700D01*
X147586700Y-126758700D02*
X148018500Y-126758700D01*
X146964400Y-128714500D02*
X146634200Y-128117600D01*
X147586700Y-126771400D02*
X146964400Y-128714500D01*
X146951700Y-124891800D02*
X147586700Y-126771400D01*
X146634200Y-125501400D02*
X146951700Y-124891800D01*
X145757900Y-124714000D02*
X146011900Y-125501400D01*
X145770600Y-124701300D02*
X145529300Y-125501400D01*
X144576800Y-124929900D02*
X144894300Y-125488700D01*
X143929100Y-126746000D02*
X144576800Y-124929900D01*
X144665700Y-128803400D02*
X143929100Y-126746000D01*
X144881600Y-128104900D02*
X144665700Y-128803400D01*
X145757900Y-128892300D02*
X145999200Y-128117600D01*
X145529300Y-128117600D02*
X145757900Y-128892300D01*
X144665700Y-128828800D02*
X145770600Y-128892300D01*
X144233900Y-128651000D02*
X144665700Y-128828800D01*
X143827500Y-128320800D02*
X144233900Y-128651000D01*
X143459200Y-127952500D02*
X143827500Y-128320800D01*
X143459200Y-125564900D02*
X143459200Y-127952500D01*
X143852900Y-125247400D02*
X143459200Y-125564900D01*
X144284700Y-125006100D02*
X143852900Y-125247400D01*
X144678400Y-124853700D02*
X144284700Y-125006100D01*
X145770600Y-124701300D02*
X144678400Y-124853700D01*
X146913600Y-124866400D02*
X145770600Y-124701300D01*
X147358100Y-125018800D02*
X146913600Y-124866400D01*
X147751800Y-125260100D02*
X147358100Y-125018800D01*
X148069300Y-125577600D02*
X147751800Y-125260100D01*
X148069300Y-127952500D02*
X148069300Y-125577600D01*
X147739100Y-128358900D02*
X148069300Y-127952500D01*
X147358100Y-128663700D02*
X147739100Y-128358900D01*
X146913600Y-128816100D02*
X147358100Y-128663700D01*
X145770600Y-128892300D02*
X146913600Y-128816100D01*
D15*
G36*
X146478600Y-126206200D02*
G01*
X147113600Y-126682500D01*
X145923000Y-126682500D01*
X145923000Y-126603100D01*
X146002400Y-126523800D01*
X146002400Y-126444400D01*
X145843600Y-126285600D01*
X145684900Y-126285600D01*
X145446800Y-126523800D01*
X145446800Y-127000000D01*
X145684900Y-127238100D01*
X145843600Y-127238100D01*
X146081800Y-127000000D01*
X146954900Y-127000000D01*
X147034200Y-127079400D01*
X147034200Y-127158800D01*
X146637400Y-127476200D01*
X146399200Y-127555600D01*
X145129200Y-127555600D01*
X144811800Y-127396900D01*
X144414900Y-127000000D01*
X144414900Y-126603100D01*
X144811800Y-126206200D01*
X145129200Y-126047500D01*
X146081800Y-126047500D01*
X146478600Y-126206200D01*
G37*
D14*
X134914666Y-103581904D02*
X134914666Y-104058095D01*
X135200380Y-103486666D02*
X134200380Y-103820000D01*
X135200380Y-104153333D01*
X134200380Y-156826666D02*
X134200380Y-157493333D01*
X135200380Y-156826666D01*
X135200380Y-157493333D01*
M02*
