%FSLAX34Y34*%
%MOMM*%
%LNCOPPER_BOTTOM*%
G71*
G01*
%ADD10C,1.560*%
%ADD11C,2.100*%
%ADD12C,1.000*%
%ADD13C,0.630*%
%ADD14C,0.400*%
%ADD15R,7.800X1.600*%
%ADD16C,0.300*%
%ADD17C,0.350*%
%ADD18C,0.100*%
%ADD19C,0.150*%
%ADD20C,0.222*%
%LPD*%
X279400Y939800D02*
G54D10*
D03*
X279400Y965200D02*
G54D10*
D03*
X279400Y914400D02*
G54D10*
D03*
X279400Y889000D02*
G54D10*
D03*
X279400Y863600D02*
G54D10*
D03*
X279400Y838200D02*
G54D10*
D03*
X279400Y812800D02*
G54D10*
D03*
X279400Y787400D02*
G54D10*
D03*
X355600Y939800D02*
G54D10*
D03*
X355600Y965200D02*
G54D10*
D03*
X355600Y914400D02*
G54D10*
D03*
X355600Y889000D02*
G54D10*
D03*
X355600Y863600D02*
G54D10*
D03*
X355600Y838200D02*
G54D10*
D03*
X355600Y812800D02*
G54D10*
D03*
X355600Y787400D02*
G54D10*
D03*
X546100Y939800D02*
G54D10*
D03*
X546100Y965200D02*
G54D10*
D03*
X546100Y914400D02*
G54D10*
D03*
X546100Y889000D02*
G54D10*
D03*
X546100Y863600D02*
G54D10*
D03*
X546100Y838200D02*
G54D10*
D03*
X546100Y812800D02*
G54D10*
D03*
X622300Y939800D02*
G54D10*
D03*
X622300Y965200D02*
G54D10*
D03*
X622300Y914400D02*
G54D10*
D03*
X622300Y889000D02*
G54D10*
D03*
X622300Y863600D02*
G54D10*
D03*
X622300Y838200D02*
G54D10*
D03*
X622300Y812800D02*
G54D10*
D03*
X863600Y939800D02*
G54D10*
D03*
X863600Y965200D02*
G54D10*
D03*
X863600Y914400D02*
G54D10*
D03*
X863600Y889000D02*
G54D10*
D03*
X863600Y863600D02*
G54D10*
D03*
X863600Y838200D02*
G54D10*
D03*
X863600Y812800D02*
G54D10*
D03*
X939800Y939800D02*
G54D10*
D03*
X939800Y965200D02*
G54D10*
D03*
X939800Y914400D02*
G54D10*
D03*
X939800Y889000D02*
G54D10*
D03*
X939800Y863600D02*
G54D10*
D03*
X939800Y838200D02*
G54D10*
D03*
X939800Y812800D02*
G54D10*
D03*
X692150Y939800D02*
G54D10*
D03*
X692150Y965200D02*
G54D10*
D03*
X692150Y914400D02*
G54D10*
D03*
X692150Y889000D02*
G54D10*
D03*
X692150Y863600D02*
G54D10*
D03*
X692150Y838200D02*
G54D10*
D03*
X692150Y812800D02*
G54D10*
D03*
X768350Y939800D02*
G54D10*
D03*
X768350Y965200D02*
G54D10*
D03*
X768350Y914400D02*
G54D10*
D03*
X768350Y889000D02*
G54D10*
D03*
X768350Y863600D02*
G54D10*
D03*
X768350Y838200D02*
G54D10*
D03*
X768350Y812800D02*
G54D10*
D03*
X393700Y762000D02*
G54D10*
D03*
X393700Y736600D02*
G54D10*
D03*
X393700Y711200D02*
G54D10*
D03*
X393700Y685800D02*
G54D10*
D03*
X393700Y660400D02*
G54D10*
D03*
X393700Y635000D02*
G54D10*
D03*
X393700Y609600D02*
G54D10*
D03*
X393700Y584200D02*
G54D10*
D03*
X393700Y558800D02*
G54D10*
D03*
X393700Y533400D02*
G54D10*
D03*
X393700Y508000D02*
G54D10*
D03*
X393700Y482600D02*
G54D10*
D03*
X393700Y457200D02*
G54D10*
D03*
X393700Y431800D02*
G54D10*
D03*
X546100Y762000D02*
G54D10*
D03*
X546100Y736600D02*
G54D10*
D03*
X546100Y711200D02*
G54D10*
D03*
X546100Y685800D02*
G54D10*
D03*
X546100Y660400D02*
G54D10*
D03*
X546100Y635000D02*
G54D10*
D03*
X546100Y609600D02*
G54D10*
D03*
X546100Y584200D02*
G54D10*
D03*
X546100Y558800D02*
G54D10*
D03*
X546100Y533400D02*
G54D10*
D03*
X546100Y508000D02*
G54D10*
D03*
X546100Y482600D02*
G54D10*
D03*
X546100Y457200D02*
G54D10*
D03*
X546100Y431800D02*
G54D10*
D03*
X584200Y723900D02*
G54D10*
D03*
X584200Y698500D02*
G54D10*
D03*
X584200Y673100D02*
G54D10*
D03*
X584200Y647700D02*
G54D10*
D03*
X584200Y622300D02*
G54D10*
D03*
X584200Y596900D02*
G54D10*
D03*
X584200Y571500D02*
G54D10*
D03*
X584200Y546100D02*
G54D10*
D03*
X584200Y520700D02*
G54D10*
D03*
X584200Y495300D02*
G54D10*
D03*
X660400Y723900D02*
G54D10*
D03*
X660400Y698500D02*
G54D10*
D03*
X660400Y673100D02*
G54D10*
D03*
X660400Y647700D02*
G54D10*
D03*
X660400Y622300D02*
G54D10*
D03*
X660400Y596900D02*
G54D10*
D03*
X660400Y571500D02*
G54D10*
D03*
X660400Y546100D02*
G54D10*
D03*
X660400Y520700D02*
G54D10*
D03*
X660400Y495300D02*
G54D10*
D03*
X679450Y723900D02*
G54D10*
D03*
X679450Y698500D02*
G54D10*
D03*
X679450Y673100D02*
G54D10*
D03*
X679450Y647700D02*
G54D10*
D03*
X679450Y622300D02*
G54D10*
D03*
X679450Y596900D02*
G54D10*
D03*
X679450Y571500D02*
G54D10*
D03*
X679450Y546100D02*
G54D10*
D03*
X679450Y520700D02*
G54D10*
D03*
X679450Y495300D02*
G54D10*
D03*
X755650Y723900D02*
G54D10*
D03*
X755650Y698500D02*
G54D10*
D03*
X755650Y673100D02*
G54D10*
D03*
X755650Y647700D02*
G54D10*
D03*
X755650Y622300D02*
G54D10*
D03*
X755650Y596900D02*
G54D10*
D03*
X755650Y571500D02*
G54D10*
D03*
X755650Y546100D02*
G54D10*
D03*
X755650Y520700D02*
G54D10*
D03*
X755650Y495300D02*
G54D10*
D03*
X819150Y774700D02*
G54D10*
D03*
X819150Y749300D02*
G54D10*
D03*
X819150Y723900D02*
G54D10*
D03*
X819150Y698500D02*
G54D10*
D03*
X819150Y673100D02*
G54D10*
D03*
X819150Y647700D02*
G54D10*
D03*
X819150Y622300D02*
G54D10*
D03*
X819150Y596900D02*
G54D10*
D03*
X819150Y571500D02*
G54D10*
D03*
X819150Y546100D02*
G54D10*
D03*
X819150Y520700D02*
G54D10*
D03*
X819150Y495300D02*
G54D10*
D03*
X819150Y469900D02*
G54D10*
D03*
X819150Y444500D02*
G54D10*
D03*
X971550Y774700D02*
G54D10*
D03*
X971550Y749300D02*
G54D10*
D03*
X971550Y723900D02*
G54D10*
D03*
X971550Y698500D02*
G54D10*
D03*
X971550Y673100D02*
G54D10*
D03*
X971550Y647700D02*
G54D10*
D03*
X971550Y622300D02*
G54D10*
D03*
X971550Y596900D02*
G54D10*
D03*
X971550Y571500D02*
G54D10*
D03*
X971550Y546100D02*
G54D10*
D03*
X971550Y520700D02*
G54D10*
D03*
X971550Y495300D02*
G54D10*
D03*
X971550Y469900D02*
G54D10*
D03*
X971550Y444500D02*
G54D10*
D03*
X1003300Y774700D02*
G54D10*
D03*
X1003300Y749300D02*
G54D10*
D03*
X1003300Y723900D02*
G54D10*
D03*
X1003300Y698500D02*
G54D10*
D03*
X1003300Y673100D02*
G54D10*
D03*
X1003300Y647700D02*
G54D10*
D03*
X1003300Y622300D02*
G54D10*
D03*
X1003300Y596900D02*
G54D10*
D03*
X1003300Y571500D02*
G54D10*
D03*
X1003300Y546100D02*
G54D10*
D03*
X1003300Y520700D02*
G54D10*
D03*
X1003300Y495300D02*
G54D10*
D03*
X1003300Y469900D02*
G54D10*
D03*
X1003300Y444500D02*
G54D10*
D03*
X1155700Y774700D02*
G54D10*
D03*
X1155700Y749300D02*
G54D10*
D03*
X1155700Y723900D02*
G54D10*
D03*
X1155700Y698500D02*
G54D10*
D03*
X1155700Y673100D02*
G54D10*
D03*
X1155700Y647700D02*
G54D10*
D03*
X1155700Y622300D02*
G54D10*
D03*
X1155700Y596900D02*
G54D10*
D03*
X1155700Y571500D02*
G54D10*
D03*
X1155700Y546100D02*
G54D10*
D03*
X1155700Y520700D02*
G54D10*
D03*
X1155700Y495300D02*
G54D10*
D03*
X1155700Y469900D02*
G54D10*
D03*
X1155700Y444500D02*
G54D10*
D03*
X1066800Y939800D02*
G54D10*
D03*
X1066800Y965200D02*
G54D10*
D03*
X1066800Y914400D02*
G54D10*
D03*
X1066800Y889000D02*
G54D10*
D03*
X1066800Y863600D02*
G54D10*
D03*
X1066800Y838200D02*
G54D10*
D03*
X1066800Y812800D02*
G54D10*
D03*
X1143000Y939800D02*
G54D10*
D03*
X1143000Y965200D02*
G54D10*
D03*
X1143000Y914400D02*
G54D10*
D03*
X1143000Y889000D02*
G54D10*
D03*
X1143000Y863600D02*
G54D10*
D03*
X1143000Y838200D02*
G54D10*
D03*
X1143000Y812800D02*
G54D10*
D03*
X1193800Y914400D02*
G54D10*
D03*
X1193800Y889000D02*
G54D10*
D03*
X1193800Y863600D02*
G54D10*
D03*
X1193800Y838200D02*
G54D10*
D03*
X1193800Y812800D02*
G54D10*
D03*
X1193800Y787400D02*
G54D10*
D03*
X1193800Y762000D02*
G54D10*
D03*
X1193800Y736600D02*
G54D10*
D03*
X1193800Y711200D02*
G54D10*
D03*
X1193800Y685800D02*
G54D10*
D03*
X1193800Y660400D02*
G54D10*
D03*
X1193800Y635000D02*
G54D10*
D03*
X1193800Y609600D02*
G54D10*
D03*
X1193800Y584200D02*
G54D10*
D03*
X1346200Y914400D02*
G54D10*
D03*
X1346200Y889000D02*
G54D10*
D03*
X1346200Y863600D02*
G54D10*
D03*
X1346200Y838200D02*
G54D10*
D03*
X1346200Y812800D02*
G54D10*
D03*
X1346200Y787400D02*
G54D10*
D03*
X1346200Y762000D02*
G54D10*
D03*
X1346200Y736600D02*
G54D10*
D03*
X1346200Y711200D02*
G54D10*
D03*
X1346200Y685800D02*
G54D10*
D03*
X1346200Y660400D02*
G54D10*
D03*
X1346200Y635000D02*
G54D10*
D03*
X1346200Y609600D02*
G54D10*
D03*
X1346200Y584200D02*
G54D10*
D03*
X1193800Y558800D02*
G54D10*
D03*
X1193800Y533400D02*
G54D10*
D03*
X1193800Y508000D02*
G54D10*
D03*
X1193800Y482600D02*
G54D10*
D03*
X1193800Y457200D02*
G54D10*
D03*
X1193800Y431800D02*
G54D10*
D03*
X1346200Y558800D02*
G54D10*
D03*
X1346200Y533400D02*
G54D10*
D03*
X1346200Y508000D02*
G54D10*
D03*
X1346200Y482600D02*
G54D10*
D03*
X1346200Y457200D02*
G54D10*
D03*
X1346200Y431800D02*
G54D10*
D03*
X1384300Y584200D02*
G54D10*
D03*
X1384300Y558800D02*
G54D10*
D03*
X1384300Y533400D02*
G54D10*
D03*
X1384300Y508000D02*
G54D10*
D03*
X1384300Y482600D02*
G54D10*
D03*
X1384300Y457200D02*
G54D10*
D03*
X1384300Y431800D02*
G54D10*
D03*
X1460500Y584200D02*
G54D10*
D03*
X1460500Y558800D02*
G54D10*
D03*
X1460500Y533400D02*
G54D10*
D03*
X1460500Y508000D02*
G54D10*
D03*
X1460500Y482600D02*
G54D10*
D03*
X1460500Y457200D02*
G54D10*
D03*
X1460500Y431800D02*
G54D10*
D03*
X165100Y889000D02*
G54D10*
D03*
X190500Y889000D02*
G54D10*
D03*
X215900Y889000D02*
G54D10*
D03*
X241300Y889000D02*
G54D10*
D03*
X165100Y787400D02*
G54D10*
D03*
X190500Y787400D02*
G54D10*
D03*
X215900Y787400D02*
G54D10*
D03*
X241300Y787400D02*
G54D10*
D03*
X438150Y863600D02*
G54D10*
D03*
X438150Y838200D02*
G54D10*
D03*
X438150Y812800D02*
G54D10*
D03*
X488950Y812800D02*
G54D10*
D03*
X488950Y838200D02*
G54D10*
D03*
X488950Y863600D02*
G54D10*
D03*
X654050Y965200D02*
G54D10*
D03*
X654050Y863600D02*
G54D10*
D03*
X831850Y965200D02*
G54D10*
D03*
X831850Y863600D02*
G54D10*
D03*
X977900Y965200D02*
G54D10*
D03*
X1022350Y965200D02*
G54D10*
D03*
X977900Y914400D02*
G54D10*
D03*
X977900Y876300D02*
G54D10*
D03*
X1022350Y863600D02*
G54D10*
D03*
X977900Y825500D02*
G54D10*
D03*
X717550Y774700D02*
G54D10*
D03*
X717550Y749300D02*
G54D10*
D03*
X768350Y774700D02*
G54D10*
D03*
X768350Y749300D02*
G54D10*
D03*
X787400Y723900D02*
G54D10*
D03*
X787400Y596900D02*
G54D10*
D03*
X793750Y571500D02*
G54D10*
D03*
X1244600Y952500D02*
G54D10*
D03*
X1295400Y952500D02*
G54D10*
D03*
X1422400Y774700D02*
G54D10*
D03*
X1384300Y698500D02*
G54D10*
D03*
X1384300Y673100D02*
G54D10*
D03*
X1422400Y673100D02*
G54D10*
D03*
X1435100Y635000D02*
G54D10*
D03*
X1384300Y635000D02*
G54D10*
D03*
X793750Y520700D02*
G54D10*
D03*
X787400Y476250D02*
G54D10*
D03*
X787400Y450850D02*
G54D10*
D03*
X787400Y425450D02*
G54D10*
D03*
X704850Y425450D02*
G54D10*
D03*
X704850Y450850D02*
G54D10*
D03*
X704850Y476250D02*
G54D10*
D03*
X660400Y431800D02*
G54D10*
D03*
X635000Y431800D02*
G54D10*
D03*
X609600Y431800D02*
G54D10*
D03*
X584200Y431800D02*
G54D10*
D03*
X1416050Y857250D02*
G54D11*
D03*
X1377950Y844550D02*
G54D11*
D03*
X1441450Y831850D02*
G54D11*
D03*
X1403350Y819150D02*
G54D11*
D03*
X190500Y914400D02*
G54D12*
D03*
X215900Y914400D02*
G54D12*
D03*
X260350Y914400D02*
G54D12*
D03*
X107950Y889000D02*
G54D12*
D03*
X107950Y965200D02*
G54D12*
D03*
X304800Y939800D02*
G54D12*
D03*
X317500Y901700D02*
G54D12*
D03*
X107950Y850900D02*
G54D12*
D03*
X203200Y812800D02*
G54D12*
D03*
X120650Y749300D02*
G54D12*
D03*
X133350Y736600D02*
G54D12*
D03*
X120650Y685800D02*
G54D12*
D03*
X146050Y685800D02*
G54D12*
D03*
X254000Y685800D02*
G54D12*
D03*
X107950Y647700D02*
G54D12*
D03*
X158750Y660400D02*
G54D12*
D03*
X368300Y673100D02*
G54D12*
D03*
X488950Y698500D02*
G54D12*
D03*
X514350Y723900D02*
G54D12*
D03*
X488950Y762000D02*
G54D12*
D03*
X469900Y781050D02*
G54D12*
D03*
X463550Y800100D02*
G54D12*
D03*
X520700Y800100D02*
G54D12*
D03*
X558800Y698500D02*
G54D12*
D03*
X527050Y660400D02*
G54D12*
D03*
X501650Y673100D02*
G54D12*
D03*
X469900Y609600D02*
G54D12*
D03*
X450850Y622300D02*
G54D12*
D03*
X412750Y635000D02*
G54D12*
D03*
X438150Y596900D02*
G54D12*
D03*
X438150Y571500D02*
G54D12*
D03*
X488950Y584200D02*
G54D12*
D03*
X514350Y558800D02*
G54D12*
D03*
X527050Y546100D02*
G54D12*
D03*
X450850Y546100D02*
G54D12*
D03*
X501650Y533400D02*
G54D12*
D03*
X488950Y520700D02*
G54D12*
D03*
X425450Y508000D02*
G54D12*
D03*
X438150Y482600D02*
G54D12*
D03*
X425450Y444500D02*
G54D12*
D03*
X469900Y431800D02*
G54D12*
D03*
X647700Y508000D02*
G54D12*
D03*
X558800Y596900D02*
G54D12*
D03*
X635000Y596900D02*
G54D12*
D03*
X641350Y622300D02*
G54D12*
D03*
X622300Y635000D02*
G54D12*
D03*
X704850Y520700D02*
G54D12*
D03*
X704850Y558800D02*
G54D12*
D03*
X704850Y596900D02*
G54D12*
D03*
X704850Y622300D02*
G54D12*
D03*
X717550Y635000D02*
G54D12*
D03*
X717550Y673100D02*
G54D12*
D03*
X704850Y685800D02*
G54D12*
D03*
X717550Y711200D02*
G54D12*
D03*
X749300Y774700D02*
G54D12*
D03*
X869950Y762000D02*
G54D12*
D03*
X889000Y774700D02*
G54D12*
D03*
X939800Y647700D02*
G54D12*
D03*
X927100Y673100D02*
G54D12*
D03*
X869950Y660400D02*
G54D12*
D03*
X844550Y635000D02*
G54D12*
D03*
X889000Y596900D02*
G54D12*
D03*
X857250Y558800D02*
G54D12*
D03*
X603250Y793750D02*
G54D12*
D03*
X609600Y825500D02*
G54D12*
D03*
X107950Y431800D02*
G54D12*
D03*
X330200Y927100D02*
G54D12*
D03*
X336550Y952500D02*
G54D12*
D03*
X374650Y965200D02*
G54D12*
D03*
X381000Y863600D02*
G54D12*
D03*
X406400Y863600D02*
G54D12*
D03*
X419100Y901700D02*
G54D12*
D03*
X508000Y889000D02*
G54D12*
D03*
X577850Y889000D02*
G54D12*
D03*
X781050Y927100D02*
G54D12*
D03*
X889000Y838200D02*
G54D12*
D03*
X1022350Y939800D02*
G54D12*
D03*
X1041400Y927100D02*
G54D12*
D03*
X1009650Y901700D02*
G54D12*
D03*
X952500Y850900D02*
G54D12*
D03*
X1003300Y838200D02*
G54D12*
D03*
X1098550Y793750D02*
G54D12*
D03*
X1130300Y901700D02*
G54D12*
D03*
X1174750Y952500D02*
G54D12*
D03*
X1377950Y946150D02*
G54D12*
D03*
X1295400Y889000D02*
G54D12*
D03*
X1244600Y838200D02*
G54D12*
D03*
X1263650Y812800D02*
G54D12*
D03*
X1308100Y825500D02*
G54D12*
D03*
X1289050Y800100D02*
G54D12*
D03*
X1168400Y793750D02*
G54D12*
D03*
X1371600Y812800D02*
G54D12*
D03*
X1301750Y749300D02*
G54D12*
D03*
X1289050Y723900D02*
G54D12*
D03*
X1225550Y762000D02*
G54D12*
D03*
X1225550Y685800D02*
G54D12*
D03*
X1276350Y628650D02*
G54D12*
D03*
X1047750Y647700D02*
G54D12*
D03*
X1085850Y609600D02*
G54D12*
D03*
X1022350Y723900D02*
G54D12*
D03*
X1022350Y749300D02*
G54D12*
D03*
X958850Y584200D02*
G54D12*
D03*
X946150Y533400D02*
G54D12*
D03*
X1028700Y514350D02*
G54D12*
D03*
X1047750Y508000D02*
G54D12*
D03*
X1073150Y520700D02*
G54D12*
D03*
X1111250Y520700D02*
G54D12*
D03*
X1225550Y508000D02*
G54D12*
D03*
X1054100Y457200D02*
G54D12*
D03*
X1085850Y457200D02*
G54D12*
D03*
X1098550Y425450D02*
G54D12*
D03*
X1136650Y444500D02*
G54D12*
D03*
X1123950Y482600D02*
G54D12*
D03*
X1225550Y457200D02*
G54D12*
D03*
G54D13*
X107950Y431800D02*
X69850Y431800D01*
G54D13*
X739775Y476250D02*
X679450Y476250D01*
X679450Y495300D01*
G54D13*
X679450Y495300D02*
X679450Y454025D01*
X682625Y450850D01*
X739636Y450551D01*
G54D13*
X738776Y425407D02*
X660400Y425450D01*
X660400Y431800D01*
G54D13*
X787400Y450850D02*
X752469Y450850D01*
G54D13*
X787400Y476250D02*
X753907Y476250D01*
G54D13*
X774700Y476250D02*
X774700Y495300D01*
X819150Y495300D01*
G54D13*
X774700Y495300D02*
X774700Y593725D01*
X777875Y596900D01*
X787400Y596900D01*
G54D13*
X793750Y571500D02*
X793750Y574675D01*
X806450Y587375D01*
X806450Y593725D01*
X809625Y596900D01*
X819150Y596900D01*
G54D13*
X889000Y596900D02*
X889000Y774700D01*
G54D13*
X1098550Y793750D02*
X1098550Y425450D01*
X1006475Y425450D01*
X1003300Y428625D01*
X1003300Y444500D01*
G54D13*
X1346200Y863600D02*
X1355725Y863600D01*
X1362075Y869950D01*
X1374775Y869950D01*
X1377950Y873125D01*
X1377950Y879475D01*
X1381125Y882650D01*
X1438275Y882650D01*
X1441450Y879475D01*
X1441450Y831850D01*
X1476375Y831850D01*
X1479550Y828675D01*
X1479550Y606425D01*
X1476375Y603250D01*
X1387475Y603250D01*
X1384300Y606425D01*
X1384300Y673100D01*
G54D13*
X1403350Y603250D02*
X1403350Y434975D01*
X1400175Y431800D01*
X1384300Y431800D01*
G54D13*
X1168400Y793750D02*
X1168400Y809625D01*
X1174750Y815975D01*
X1174750Y822325D01*
X1177925Y825500D01*
X1184275Y825500D01*
X1187450Y828675D01*
X1187450Y838200D01*
X1193800Y838200D01*
G54D13*
X1295400Y952500D02*
X1295400Y841375D01*
X1292225Y838200D01*
X1244600Y838200D01*
X1244600Y739775D01*
X1241425Y736600D01*
X1193800Y736600D01*
G54D13*
X279400Y787400D02*
X263525Y787400D01*
X260350Y790575D01*
X260350Y885825D01*
X257175Y889000D01*
X241300Y889000D01*
G54D13*
X355600Y965200D02*
X355600Y962025D01*
X377825Y939800D01*
X393700Y939800D01*
X393700Y906462D01*
X417512Y882650D01*
X422275Y882650D01*
X428625Y876300D01*
X434975Y876300D01*
X438150Y873125D01*
X438150Y863600D01*
X438150Y784225D01*
X441325Y781050D01*
X469900Y781050D01*
X469900Y431800D01*
G54D13*
X546100Y812800D02*
X546100Y762000D01*
G54D13*
X603250Y793750D02*
X603250Y495300D01*
X584200Y495300D01*
G54D13*
X603250Y495300D02*
X603250Y479425D01*
X606425Y476250D01*
X679450Y476250D01*
G54D13*
X107950Y965200D02*
X69850Y965200D01*
G54D14*
X69850Y939800D02*
X174625Y939800D01*
X177800Y936625D01*
X177800Y803275D01*
X180975Y800100D01*
X200025Y800100D01*
X203200Y796925D01*
X203200Y790575D01*
X206375Y787400D01*
X215900Y787400D01*
G54D14*
X203200Y812800D02*
X203200Y898525D01*
X206375Y901700D01*
X317500Y901700D01*
G54D14*
X336550Y952500D02*
X336550Y942975D01*
X333375Y939800D01*
X320675Y939800D01*
X317500Y936625D01*
X317500Y930275D01*
X314325Y927100D01*
X193675Y927100D01*
X190500Y923925D01*
X190500Y914400D01*
G54D14*
X215900Y914400D02*
X260350Y914400D01*
G54D14*
X215900Y889000D02*
X225425Y889000D01*
X228600Y885825D01*
X228600Y790575D01*
X231775Y787400D01*
X241300Y787400D01*
G54D14*
X165100Y787400D02*
X165100Y777875D01*
X168275Y774700D01*
X314325Y774700D01*
X317500Y777875D01*
X317500Y879475D01*
X320675Y882650D01*
X327025Y882650D01*
X330200Y885825D01*
X330200Y927100D01*
G54D14*
X355600Y787400D02*
X317500Y787400D01*
G54D14*
X107950Y850900D02*
X107950Y790575D01*
X104775Y787400D01*
X69850Y787400D01*
G54D14*
X107950Y889000D02*
X69850Y889000D01*
G54D14*
X69850Y914400D02*
X136525Y914400D01*
X160338Y890588D01*
X165100Y889000D01*
G54D14*
X304800Y939800D02*
X304800Y974725D01*
X307975Y977900D01*
X755650Y977900D01*
X755650Y815975D01*
X758825Y812800D01*
X768350Y812800D01*
G54D14*
X755650Y977900D02*
X847725Y977900D01*
X850900Y974725D01*
X850900Y965200D01*
X863600Y965200D01*
G54D14*
X850900Y965200D02*
X850900Y930275D01*
X854075Y927100D01*
X885825Y927100D01*
X889000Y930275D01*
X889000Y949325D01*
X892175Y952500D01*
X949325Y952500D01*
X952500Y955675D01*
X952500Y974725D01*
X955675Y977900D01*
X1076325Y977900D01*
X1079500Y974725D01*
X1079500Y955675D01*
X1082675Y952500D01*
X1158875Y952500D01*
X1162050Y955675D01*
X1162050Y962025D01*
X1165225Y965200D01*
X1343025Y965200D01*
X1346200Y962025D01*
X1346200Y914400D01*
G54D14*
X1193800Y787400D02*
X1209675Y787400D01*
X1212850Y790575D01*
X1212850Y847725D01*
X1209675Y850900D01*
X1177925Y850900D01*
X1174750Y854075D01*
X1174750Y952500D01*
G54D14*
X1143000Y939800D02*
X1133475Y939800D01*
X1130300Y936625D01*
X1130300Y901700D01*
G54D14*
X1066800Y965200D02*
X1044575Y965200D01*
X1041400Y962025D01*
X1041400Y927100D01*
G54D14*
X1066800Y939800D02*
X1066800Y930275D01*
X1069975Y927100D01*
X1076325Y927100D01*
X1079500Y923925D01*
X1079500Y796925D01*
X1076325Y793750D01*
X1069975Y793750D01*
X1066800Y790575D01*
X1066800Y631825D01*
X1063625Y628650D01*
X1057275Y628650D01*
X1025525Y596900D01*
X1003300Y596900D01*
G54D14*
X1047750Y647700D02*
X1019175Y647700D01*
X1016000Y644525D01*
X1016000Y638175D01*
X1012825Y635000D01*
X993775Y635000D01*
X981075Y647700D01*
X971550Y647700D01*
G54D14*
X1022350Y723900D02*
X1019175Y723900D01*
X1016000Y720725D01*
X1016000Y714375D01*
X1012825Y711200D01*
X993775Y711200D01*
X981075Y723900D01*
X971550Y723900D01*
G54D14*
X971550Y749300D02*
X981075Y749300D01*
X993775Y762000D01*
X1012825Y762000D01*
X1016000Y758825D01*
X1016000Y749300D01*
X1022350Y749300D01*
G54D14*
X1003300Y774700D02*
X1003300Y838200D01*
G54D14*
X1066800Y889000D02*
X1038225Y889000D01*
X1035050Y885825D01*
X1035050Y854075D01*
X1031875Y850900D01*
X993775Y850900D01*
X990600Y847725D01*
X990600Y796925D01*
X987425Y793750D01*
X942975Y793750D01*
X939800Y790575D01*
X939800Y647700D01*
G54D14*
X927100Y673100D02*
X927100Y835025D01*
X930275Y838200D01*
X939800Y838200D01*
G54D14*
X952500Y850900D02*
X952500Y828675D01*
X949325Y825500D01*
X942975Y825500D01*
X939800Y822325D01*
X939800Y812800D01*
G54D14*
X939800Y863600D02*
X911225Y863600D01*
X908050Y860425D01*
X908050Y542925D01*
X904875Y539750D01*
X892175Y539750D01*
X863600Y511175D01*
X863600Y504825D01*
X860425Y501650D01*
X854075Y501650D01*
X825500Y473075D01*
X819150Y469900D01*
G54D14*
X857250Y558800D02*
X857250Y774700D01*
X819150Y774700D01*
G54D14*
X857250Y774700D02*
X857250Y790575D01*
X860425Y793750D01*
X873125Y793750D01*
X876300Y796925D01*
X876300Y835025D01*
X879475Y838200D01*
X889000Y838200D01*
G54D14*
X749300Y774700D02*
X733425Y774700D01*
X730250Y777875D01*
X730250Y784225D01*
X727075Y787400D01*
X720725Y787400D01*
X717550Y790575D01*
X717550Y873125D01*
X714375Y876300D01*
X695325Y876300D01*
X692150Y879475D01*
X692150Y889000D01*
G54D14*
X717550Y774700D02*
X708025Y774700D01*
X704850Y777875D01*
X704850Y847725D01*
X701675Y850900D01*
X695325Y850900D01*
X692150Y854075D01*
X692150Y863600D01*
G54D14*
X679450Y723900D02*
X679450Y822325D01*
X676275Y825500D01*
X669925Y825500D01*
X666750Y828675D01*
X666750Y911225D01*
X669925Y914400D01*
X692150Y914400D01*
G54D14*
X654050Y863600D02*
X654050Y936625D01*
X657225Y939800D01*
X676275Y939800D01*
X679450Y942975D01*
X679450Y962025D01*
X682625Y965200D01*
X692150Y965200D01*
G54D14*
X654050Y965200D02*
X654050Y955675D01*
X650875Y952500D01*
X504825Y952500D01*
X501650Y955675D01*
X501650Y962025D01*
X498475Y965200D01*
X374650Y965200D01*
G54D14*
X419100Y901700D02*
X425450Y901700D01*
X425450Y898525D01*
X434975Y889000D01*
X473075Y889000D01*
X479425Y895350D01*
X484188Y895350D01*
X488950Y900112D01*
X488950Y904875D01*
X495300Y911225D01*
X495300Y936625D01*
X498475Y939800D01*
X546100Y939800D01*
X549275Y933450D01*
X577850Y904875D01*
X577850Y889000D01*
G54D14*
X546100Y892175D02*
X552450Y892175D01*
X584200Y860425D01*
X584200Y727075D01*
G54D14*
X546100Y736600D02*
X546100Y746125D01*
X542925Y749300D01*
X536575Y749300D01*
X533400Y752475D01*
X533400Y796925D01*
X530225Y800100D01*
X520700Y800100D01*
G54D14*
X508000Y889000D02*
X508000Y790575D01*
X511175Y787400D01*
X517525Y787400D01*
X520700Y784225D01*
X520700Y739775D01*
X523875Y736600D01*
X530225Y736600D01*
X533400Y733425D01*
X533400Y727075D01*
X536575Y723900D01*
X542925Y723900D01*
X546100Y720725D01*
X546100Y711200D01*
G54D14*
X558800Y698500D02*
X558800Y663575D01*
X555625Y660400D01*
X546100Y660400D01*
G54D14*
X546100Y685800D02*
X536575Y685800D01*
X533400Y682625D01*
X533400Y663575D01*
X530225Y660400D01*
X527050Y660400D01*
G54D14*
X514350Y723900D02*
X514350Y638175D01*
X517525Y635000D01*
X546100Y635000D01*
G54D14*
X463550Y800100D02*
X463550Y835025D01*
X466725Y838200D01*
X488950Y838200D01*
G54D13*
X488950Y812800D02*
X488950Y762000D01*
G54D14*
X406400Y863600D02*
X396875Y863600D01*
X393700Y866775D01*
X393700Y873125D01*
X390525Y876300D01*
X384175Y876300D01*
X381000Y879475D01*
X381000Y923925D01*
X377825Y927100D01*
X358775Y927100D01*
X355600Y930275D01*
X355600Y939800D01*
G54D14*
X355600Y914400D02*
X360362Y912812D01*
X368300Y904875D01*
X368300Y879475D01*
X365125Y876300D01*
X333375Y876300D01*
X330200Y873125D01*
X330200Y803275D01*
X333375Y800100D01*
X365125Y800100D01*
X368300Y796925D01*
X368300Y673100D01*
G54D14*
X381000Y863600D02*
X381000Y854075D01*
X384175Y850900D01*
X422275Y850900D01*
X425450Y847725D01*
X425450Y752475D01*
X428625Y749300D01*
X447675Y749300D01*
X450850Y746125D01*
X450850Y622300D01*
G54D14*
X355600Y838200D02*
X403225Y838200D01*
X406400Y835025D01*
X406400Y739775D01*
X409575Y736600D01*
X422275Y736600D01*
X425450Y733425D01*
X425450Y444500D01*
G54D14*
X438150Y482600D02*
X438150Y571500D01*
G54D14*
X450850Y546100D02*
X450850Y581025D01*
X447675Y584200D01*
X441325Y584200D01*
X438150Y587375D01*
X438150Y596900D01*
G54D14*
X393700Y482600D02*
X409575Y482600D01*
X412750Y485775D01*
X412750Y720725D01*
X409575Y723900D01*
X384175Y723900D01*
X381000Y727075D01*
X381000Y822325D01*
X377825Y825500D01*
X346075Y825500D01*
X342900Y828675D01*
X342900Y860425D01*
X346075Y863600D01*
X355600Y863600D01*
G54D14*
X488950Y584200D02*
X488950Y698500D01*
G54D14*
X501650Y673100D02*
X501650Y533400D01*
G54D14*
X488950Y520700D02*
X488950Y434975D01*
X492125Y431800D01*
X546100Y431800D01*
G54D14*
X558800Y596900D02*
X517525Y596900D01*
X514350Y593725D01*
X514350Y460375D01*
X517525Y457200D01*
X546100Y457200D01*
G54D14*
X546100Y508000D02*
X530225Y508000D01*
X527050Y511175D01*
X527050Y568325D01*
X530225Y571500D01*
X568325Y571500D01*
X571500Y574675D01*
X571500Y644525D01*
X574675Y647700D01*
X584200Y647700D01*
G54D14*
X584200Y571500D02*
X584200Y561975D01*
X581025Y558800D01*
X574675Y558800D01*
X571500Y555625D01*
X571500Y485775D01*
X568325Y482600D01*
X546100Y482600D01*
G54D14*
X622300Y635000D02*
X622300Y619125D01*
X631825Y609600D01*
X704850Y609600D01*
X704850Y622300D01*
G54D14*
X679450Y622300D02*
X688975Y622300D01*
X692150Y625475D01*
X692150Y657225D01*
X688975Y660400D01*
X663575Y660400D01*
X660400Y657225D01*
X660400Y647700D01*
X644525Y647700D01*
X641350Y644525D01*
X641350Y622300D01*
G54D14*
X660400Y622300D02*
X666750Y622300D01*
X666750Y631825D01*
X679450Y644525D01*
X679450Y647700D01*
G54D14*
X704850Y685800D02*
X663575Y685800D01*
X660400Y688975D01*
X660400Y698500D01*
G54D14*
X717550Y673100D02*
X717550Y711200D01*
G54D14*
X717550Y635000D02*
X717550Y574675D01*
X714375Y571500D01*
X679450Y571500D01*
X676275Y571500D01*
X673100Y568325D01*
X673100Y561975D01*
X669925Y558800D01*
X650875Y558800D01*
X647700Y561975D01*
X647700Y593725D01*
X644525Y596900D01*
X635000Y596900D01*
G54D14*
X704850Y596900D02*
X695325Y596900D01*
X692150Y593725D01*
X692150Y587375D01*
X688975Y584200D01*
X663575Y584200D01*
X660400Y581025D01*
X660400Y571500D01*
G54D14*
X660400Y546100D02*
X650875Y546100D01*
X647700Y542925D01*
X647700Y508000D01*
G54D14*
X660400Y520700D02*
X660400Y530225D01*
X663575Y533400D01*
X676275Y533400D01*
X679450Y536575D01*
X679450Y546100D01*
G54D14*
X660400Y495300D02*
X660400Y504825D01*
X663575Y508000D01*
X727075Y508000D01*
X730250Y511175D01*
X730250Y758825D01*
X733425Y762000D01*
X777875Y762000D01*
X781050Y765175D01*
X781050Y863600D01*
X768350Y863600D01*
G54D14*
X781050Y863600D02*
X781050Y927100D01*
G54D14*
X704850Y520700D02*
X704850Y558800D01*
G54D14*
X755650Y495300D02*
X746125Y495300D01*
X742950Y498475D01*
X742950Y746125D01*
X746125Y749300D01*
X768350Y749300D01*
G54D14*
X755650Y647700D02*
X755650Y657225D01*
X758825Y660400D01*
X765175Y660400D01*
X768350Y663575D01*
X768350Y682625D01*
X771525Y685800D01*
X815975Y685800D01*
X819150Y688975D01*
X819150Y698500D01*
G54D14*
X844550Y635000D02*
X844550Y720725D01*
X841375Y723900D01*
X819150Y723900D01*
G54D14*
X869950Y660400D02*
X869950Y762000D01*
G54D14*
X831850Y863600D02*
X831850Y873125D01*
X835025Y876300D01*
X863600Y876300D01*
X863600Y889000D01*
G54D14*
X863600Y876300D02*
X955675Y876300D01*
X958850Y873125D01*
X958850Y866775D01*
X962025Y863600D01*
X974725Y863600D01*
X977900Y860425D01*
X977900Y825500D01*
G54D14*
X1079500Y901700D02*
X1009650Y901700D01*
G54D14*
X1022350Y863600D02*
X1022350Y885825D01*
X1019175Y889000D01*
X1000125Y889000D01*
X996950Y892175D01*
X996950Y923925D01*
X993775Y927100D01*
X962025Y927100D01*
X958850Y923925D01*
X958850Y917575D01*
X955675Y914400D01*
X939800Y914400D01*
G54D14*
X977900Y927100D02*
X977900Y965200D01*
G54D14*
X939800Y939800D02*
X930275Y939800D01*
X927100Y936625D01*
X927100Y904875D01*
X930275Y901700D01*
X974725Y901700D01*
X977900Y898525D01*
X977900Y876300D01*
G54D14*
X863600Y914400D02*
X835025Y914400D01*
X831850Y917575D01*
X831850Y965200D01*
G54D14*
X863600Y939800D02*
X873125Y939800D01*
X876300Y942975D01*
X876300Y974725D01*
X879475Y977900D01*
X920750Y977900D01*
X927100Y984250D01*
X1085850Y984250D01*
X1092200Y977900D01*
X1374775Y977900D01*
X1377950Y974725D01*
X1377950Y946150D01*
G54D14*
X1143000Y838200D02*
X1143000Y835025D01*
X1123950Y815975D01*
X1123950Y482600D01*
G54D14*
X1085850Y609600D02*
X1085850Y457200D01*
G54D14*
X1054100Y457200D02*
X1019175Y457200D01*
X1006475Y469900D01*
X1003300Y469900D01*
X1003300Y466725D01*
X981075Y444500D01*
X971550Y444500D01*
G54D14*
X1028700Y514350D02*
X1019175Y514350D01*
X1012825Y508000D01*
X993775Y508000D01*
X981075Y520700D01*
X971550Y520700D01*
G54D14*
X1003300Y546100D02*
X1003300Y536575D01*
X1006475Y533400D01*
X1031875Y533400D01*
X1041400Y523875D01*
X1041400Y508000D01*
X1047750Y508000D01*
G54D14*
X1073150Y520700D02*
X1073150Y530225D01*
X1069975Y533400D01*
X1050925Y533400D01*
X1012825Y571500D01*
X1003300Y571500D01*
G54D14*
X946150Y533400D02*
X946150Y590550D01*
X952500Y596900D01*
X952500Y746125D01*
X955675Y749300D01*
X971550Y749300D01*
G54D14*
X971550Y698500D02*
X958850Y685800D01*
X958850Y584200D01*
G54D14*
X1111250Y520700D02*
X1111250Y434975D01*
X1114425Y431800D01*
X1193800Y431800D01*
G54D14*
X1136650Y444500D02*
X1136650Y482600D01*
X1171575Y482600D01*
X1184275Y495300D01*
X1203325Y495300D01*
X1209675Y501650D01*
X1222375Y501650D01*
X1225550Y504825D01*
X1225550Y508000D01*
G54D14*
X1225550Y457200D02*
X1225550Y466725D01*
X1222375Y469900D01*
X1155700Y469900D01*
G54D14*
X1136650Y482600D02*
X1136650Y796925D01*
X1143000Y803275D01*
X1143000Y812800D01*
G54D14*
X1155700Y723900D02*
X1146175Y723900D01*
X1143000Y727075D01*
X1143000Y758825D01*
X1146175Y762000D01*
X1171575Y762000D01*
X1174750Y758825D01*
X1174750Y752475D01*
X1177925Y749300D01*
X1203325Y749300D01*
X1206500Y752475D01*
X1206500Y758825D01*
X1209675Y762000D01*
X1225550Y762000D01*
G54D14*
X1155700Y749300D02*
X1165225Y749300D01*
X1168400Y746125D01*
X1168400Y727075D01*
X1171575Y723900D01*
X1222375Y723900D01*
X1225550Y720725D01*
X1225550Y685800D01*
G54D14*
X1193800Y711200D02*
X1190625Y711200D01*
X1155700Y676275D01*
X1155700Y673100D01*
G54D14*
X1193800Y685800D02*
X1190625Y685800D01*
X1155700Y650875D01*
X1155700Y647700D01*
G54D14*
X1193800Y660400D02*
X1190625Y660400D01*
X1155700Y625475D01*
X1155700Y622300D01*
G54D14*
X1155700Y596900D02*
X1155700Y600075D01*
X1190625Y635000D01*
X1193800Y635000D01*
G54D14*
X1193800Y609600D02*
X1190625Y609600D01*
X1155700Y574675D01*
X1155700Y571500D01*
G54D14*
X1193800Y584200D02*
X1190625Y584200D01*
X1155700Y549275D01*
X1155700Y546100D01*
G54D14*
X1193800Y558800D02*
X1190625Y558800D01*
X1155700Y523875D01*
X1155700Y520700D01*
G54D14*
X1193800Y533400D02*
X1190625Y533400D01*
X1155700Y498475D01*
X1155700Y495300D01*
G54D14*
X1346200Y457200D02*
X1355725Y457200D01*
X1381125Y482600D01*
X1384300Y482600D01*
G54D14*
X1346200Y533400D02*
X1346200Y536575D01*
X1263650Y619125D01*
X1263650Y812800D01*
G54D14*
X1289050Y800100D02*
X1289050Y765175D01*
X1292225Y762000D01*
X1317625Y762000D01*
X1320800Y758825D01*
X1320800Y688975D01*
X1346200Y663575D01*
X1346200Y660400D01*
G54D14*
X1301750Y749300D02*
X1301750Y657225D01*
X1346200Y612775D01*
X1346200Y609600D01*
G54D14*
X1289050Y723900D02*
X1289050Y644525D01*
X1346200Y587375D01*
X1346200Y584200D01*
G54D14*
X1279525Y628650D02*
X1346200Y561975D01*
X1346200Y558800D01*
G54D14*
X1371600Y812800D02*
X1371600Y587375D01*
X1374775Y584200D01*
X1384300Y584200D01*
G54D14*
X1422400Y673100D02*
X1422400Y638175D01*
X1425575Y635000D01*
X1435100Y635000D01*
G54D14*
X1308100Y825500D02*
X1308100Y777875D01*
X1311275Y774700D01*
X1343025Y774700D01*
X1346200Y771525D01*
X1346200Y762000D01*
G54D14*
X1416050Y857250D02*
X1422400Y850900D01*
X1422400Y774700D01*
X1387475Y774700D01*
X1384300Y771525D01*
X1384300Y698500D01*
G54D14*
X1460500Y584200D02*
X1476375Y584200D01*
X1479550Y581025D01*
X1479550Y422275D01*
X1476375Y419100D01*
X1349375Y419100D01*
X1346200Y422275D01*
X1346200Y431800D01*
G54D14*
X69850Y711200D02*
X104775Y711200D01*
X107950Y708025D01*
X107950Y701675D01*
X111125Y698500D01*
X130175Y698500D01*
X133350Y695325D01*
X133350Y688975D01*
X136525Y685800D01*
X146050Y685800D01*
G54D14*
X120650Y685800D02*
X69850Y685800D01*
G54D14*
X69850Y660400D02*
X158750Y660400D01*
G54D14*
X107950Y647700D02*
X107950Y638175D01*
X104775Y635000D01*
X69850Y635000D01*
G54D14*
X69850Y609600D02*
X130175Y609600D01*
X190500Y669925D01*
X190500Y682625D01*
X193675Y685800D01*
X254000Y685800D01*
G54D14*
X69850Y584200D02*
X117475Y584200D01*
X193675Y660400D01*
X393700Y660400D01*
G54D14*
X393700Y635000D02*
X180975Y635000D01*
X104775Y558800D01*
X69850Y558800D01*
G54D14*
X393700Y609600D02*
X168275Y609600D01*
X92075Y533400D01*
X69850Y533400D01*
G54D14*
X393700Y584200D02*
X155575Y584200D01*
X79375Y508000D01*
X69850Y508000D01*
G54D14*
X393700Y558800D02*
X155575Y558800D01*
X79375Y482600D01*
X69850Y482600D01*
G54D14*
X393700Y533400D02*
X155575Y533400D01*
X79375Y457200D01*
X69850Y457200D01*
G54D14*
X622300Y914400D02*
X612775Y914400D01*
X609600Y911225D01*
X609600Y825500D01*
G54D14*
X133350Y736600D02*
X133350Y758825D01*
X130175Y762000D01*
X69850Y762000D01*
G54D14*
X69850Y736600D02*
X92075Y736600D01*
X95250Y739775D01*
X95250Y746125D01*
X98425Y749300D01*
X120650Y749300D01*
X47625Y968375D02*
G54D15*
D03*
X47625Y942975D02*
G54D15*
D03*
X47625Y917575D02*
G54D15*
D03*
X47625Y892175D02*
G54D15*
D03*
X47625Y866775D02*
G54D15*
D03*
X47625Y841375D02*
G54D15*
D03*
X47625Y815975D02*
G54D15*
D03*
X47625Y790575D02*
G54D15*
D03*
X47625Y765175D02*
G54D15*
D03*
X47625Y739775D02*
G54D15*
D03*
X47625Y714375D02*
G54D15*
D03*
X47625Y688975D02*
G54D15*
D03*
X47625Y663575D02*
G54D15*
D03*
X47625Y638175D02*
G54D15*
D03*
X47625Y612775D02*
G54D15*
D03*
X47625Y587375D02*
G54D15*
D03*
X47625Y561975D02*
G54D15*
D03*
X47625Y536575D02*
G54D15*
D03*
X47625Y511175D02*
G54D15*
D03*
X47625Y485775D02*
G54D15*
D03*
X47625Y460375D02*
G54D15*
D03*
X47625Y434975D02*
G54D15*
D03*
G54D14*
X679450Y685800D02*
X679450Y673100D01*
G54D14*
X1022350Y965200D02*
X1022350Y939800D01*
G54D16*
X660797Y463153D02*
X660797Y449659D01*
X654050Y449659D01*
X652066Y450850D01*
X651613Y453231D01*
X652066Y454422D01*
X653217Y455110D01*
X654804Y455585D01*
X657011Y456167D01*
X658984Y456423D01*
X654844Y456406D01*
X653653Y457994D01*
X653228Y459262D01*
X653653Y461169D01*
X654447Y462359D01*
X655638Y463153D01*
X660797Y463153D01*
G54D16*
X647378Y449806D02*
X645765Y462879D01*
X640637Y462840D01*
X639297Y449825D01*
G54D16*
X640159Y456803D02*
X646426Y456876D01*
G54D16*
X626269Y462756D02*
X635455Y462803D01*
G54D16*
X630634Y449659D02*
X630649Y462576D01*
G54D16*
X601266Y462359D02*
X609600Y462359D01*
X609600Y449659D01*
X600869Y449659D01*
G54D16*
X608806Y456009D02*
X602456Y456009D01*
G54D16*
X596900Y449659D02*
X596900Y462756D01*
X590947Y462756D01*
X588169Y460375D01*
X588169Y457597D01*
X589756Y456406D01*
X596900Y456406D01*
G54D16*
X592534Y456406D02*
X588169Y449659D01*
G54D16*
X575866Y462756D02*
X579834Y457200D01*
X584200Y462756D01*
G54D16*
X579834Y457597D02*
X579834Y449659D01*
G54D16*
X613569Y462756D02*
X622755Y462803D01*
G54D16*
X617934Y449659D02*
X617949Y462576D01*
G54D14*
X787400Y425450D02*
X749300Y425450D01*
G54D14*
X749300Y425450D02*
X755650Y431800D01*
G54D14*
X749300Y425450D02*
X755650Y419100D01*
G54D14*
X749300Y450850D02*
X755650Y457200D01*
G54D14*
X749300Y450850D02*
X755650Y444500D01*
G54D14*
X749300Y476250D02*
X755650Y482600D01*
G54D14*
X749300Y476250D02*
X755650Y469900D01*
G54D14*
X742950Y450850D02*
X736600Y457200D01*
G54D14*
X742950Y450850D02*
X736600Y444500D01*
G54D14*
X736600Y431800D02*
X742950Y425450D01*
X736600Y419100D01*
G54D14*
X736600Y482600D02*
X742950Y476250D01*
X736600Y469900D01*
G54D16*
X727869Y492125D02*
X730250Y494506D01*
X734219Y494506D01*
X736600Y490538D01*
X736600Y485775D01*
X735012Y481806D01*
X730250Y481806D01*
X727869Y484188D01*
G54D16*
X723900Y494506D02*
X723900Y484188D01*
X721519Y481806D01*
X717550Y481806D01*
X715169Y484188D01*
X715169Y494506D01*
G54D16*
X702469Y494506D02*
X711200Y494506D01*
G54D16*
X706438Y494506D02*
X706438Y484981D01*
G54D17*
X261405Y438778D02*
X259817Y440365D01*
X255055Y440365D01*
X252674Y436396D01*
X252673Y430840D01*
X255055Y426872D01*
X259817Y426872D01*
X261405Y428459D01*
G54D17*
X280455Y440365D02*
X280455Y426872D01*
X282042Y426872D01*
X284936Y432556D01*
X287598Y426872D01*
X289186Y426872D01*
X289186Y440365D01*
G54D17*
X266167Y436396D02*
X266167Y430840D01*
X269342Y426872D01*
X272517Y426872D01*
X275692Y430840D01*
X275692Y436396D01*
X272517Y440365D01*
X269342Y440365D01*
X266167Y436396D01*
G54D17*
X293688Y440531D02*
X293688Y427831D01*
X294481Y427038D01*
X300831Y427038D01*
X302419Y428625D01*
X302419Y431800D01*
X300831Y433388D01*
X294481Y433388D01*
G54D17*
X307975Y427038D02*
X307975Y440531D01*
X316706Y440531D01*
G54D17*
X330200Y427038D02*
X322262Y427038D01*
X322262Y440531D01*
X330200Y440531D01*
G54D17*
X336550Y427038D02*
X345281Y427038D01*
G54D17*
X340519Y427038D02*
X340519Y440531D01*
G54D17*
X322262Y433388D02*
X328612Y433388D01*
G54D17*
X357981Y427038D02*
X350044Y427038D01*
X350044Y440531D01*
X357981Y440531D01*
G54D17*
X350044Y433388D02*
X356394Y433388D01*
G54D17*
X211138Y440531D02*
X211138Y427038D01*
X211138Y433388D01*
X219869Y433388D01*
X219869Y440531D01*
X219869Y427038D01*
G54D17*
X233362Y427038D02*
X225425Y427038D01*
X225425Y440531D01*
X233362Y440531D01*
G54D17*
X225425Y433388D02*
X231775Y433388D01*
G54D17*
X197644Y427038D02*
X206375Y427038D01*
G54D17*
X201612Y427038D02*
X201612Y440531D01*
G54D17*
X205842Y464178D02*
X204255Y465765D01*
X199492Y465765D01*
X197111Y461796D01*
X197111Y456240D01*
X199492Y452272D01*
X204255Y452272D01*
X205842Y453859D01*
G54D17*
X211138Y465931D02*
X211138Y452438D01*
X211138Y458788D01*
X219869Y458788D01*
X219869Y465931D01*
X219869Y452438D01*
G54D17*
X232569Y452438D02*
X224631Y452438D01*
X224631Y465931D01*
X232569Y465931D01*
G54D17*
X224631Y458788D02*
X230981Y458788D01*
G54D17*
X266167Y465765D02*
X266167Y452272D01*
X267754Y452272D01*
X270648Y457956D01*
X273311Y452272D01*
X274898Y452272D01*
X274898Y465765D01*
G54D17*
X302680Y464178D02*
X301092Y465765D01*
X296330Y465765D01*
X293948Y461796D01*
X293948Y456240D01*
X296330Y452272D01*
X301092Y452272D01*
X302680Y453859D01*
G54D17*
X308769Y465931D02*
X308769Y452438D01*
X308769Y458788D01*
X317500Y458788D01*
X317500Y465931D01*
X317500Y452438D01*
G54D17*
X358775Y452438D02*
X350838Y452438D01*
X350838Y465931D01*
X358775Y465931D01*
G54D17*
X350838Y458788D02*
X357188Y458788D01*
G54D17*
X345281Y452438D02*
X345281Y465931D01*
X342900Y465931D01*
X338138Y452438D01*
X335756Y452438D01*
X335756Y465931D01*
G54D17*
X323850Y465931D02*
X328612Y465931D01*
G54D17*
X326231Y465931D02*
X326231Y452438D01*
G54D17*
X323850Y452438D02*
X328612Y452438D01*
G54D17*
X280988Y465931D02*
X281781Y452438D01*
X287338Y452438D01*
X288925Y465931D01*
G54D17*
X281781Y458788D02*
X288131Y458788D01*
G54D17*
X238919Y464344D02*
X241300Y465931D01*
X245269Y465931D01*
X247650Y463550D01*
X247650Y461169D01*
X245269Y459581D01*
X241300Y458788D01*
X238919Y457200D01*
X238919Y454819D01*
X241300Y452438D01*
X245269Y452438D01*
X247650Y454025D01*
G54D17*
X252412Y464344D02*
X254794Y465931D01*
X258762Y465931D01*
X261144Y463550D01*
X261144Y461169D01*
X258762Y459581D01*
X254794Y458788D01*
X252412Y457200D01*
X252412Y454819D01*
X254794Y452438D01*
X258762Y452438D01*
X261144Y454025D01*
G54D17*
X257175Y750888D02*
X246856Y750888D01*
X246856Y734219D01*
X257175Y734219D01*
G54D17*
X257175Y741362D02*
X247650Y741362D01*
G54D17*
X274638Y734219D02*
X267494Y734219D01*
X265906Y735806D01*
X265906Y742156D01*
X268288Y740569D01*
X273844Y740569D01*
X276225Y742156D01*
X277019Y744538D01*
X277019Y746919D01*
X276225Y749300D01*
X273844Y750888D01*
X268288Y750888D01*
X265906Y749300D01*
G54D17*
X281781Y734219D02*
X292894Y734219D01*
X290512Y736600D01*
X288131Y739775D01*
X286544Y743744D01*
X285750Y748506D01*
X285750Y750888D01*
G36*
X209550Y739775D02*
X221456Y739775D01*
X215106Y744538D01*
X211138Y746125D01*
X201612Y746125D01*
X198438Y744538D01*
X194469Y740569D01*
X194469Y736600D01*
X198438Y732631D01*
X201612Y731044D01*
X214312Y731044D01*
X216694Y731838D01*
X220662Y735012D01*
X220662Y735806D01*
X219869Y736600D01*
X211138Y736600D01*
X208756Y734219D01*
X207169Y734219D01*
X204788Y736600D01*
X204788Y741362D01*
X207169Y743744D01*
X208756Y743744D01*
X210344Y742156D01*
X210344Y741362D01*
X209550Y740569D01*
X209550Y739775D01*
G37*
G54D18*
X209550Y739775D02*
X221456Y739775D01*
X215106Y744538D01*
X211138Y746125D01*
X201612Y746125D01*
X198438Y744538D01*
X194469Y740569D01*
X194469Y736600D01*
X198438Y732631D01*
X201612Y731044D01*
X214312Y731044D01*
X216694Y731838D01*
X220662Y735012D01*
X220662Y735806D01*
X219869Y736600D01*
X211138Y736600D01*
X208756Y734219D01*
X207169Y734219D01*
X204788Y736600D01*
X204788Y741362D01*
X207169Y743744D01*
X208756Y743744D01*
X210344Y742156D01*
X210344Y741362D01*
X209550Y740569D01*
X209550Y739775D01*
G54D19*
X184944Y750888D02*
X188912Y754062D01*
X192881Y756444D01*
X196850Y758031D01*
X207962Y759619D01*
X219075Y758031D01*
X223838Y756444D01*
X227806Y754062D01*
X230981Y750888D01*
X230981Y727075D01*
X227806Y723106D01*
X223838Y719931D01*
X219075Y718344D01*
X207962Y717550D01*
X196850Y718344D01*
X192881Y719931D01*
X188912Y723106D01*
X184944Y727075D01*
X184944Y750888D01*
G54D19*
X184944Y738981D02*
X189706Y738981D01*
G54D19*
X230981Y738981D02*
X226219Y738981D01*
G54D19*
X189706Y738981D02*
X196056Y757238D01*
X199231Y751681D01*
G54D19*
X205581Y751681D02*
X207962Y759619D01*
X210344Y751681D01*
G54D19*
X216694Y751681D02*
X219869Y757238D01*
X226219Y738981D01*
X219869Y719138D01*
X216694Y725488D01*
G54D19*
X210344Y725488D02*
X207962Y717550D01*
X205581Y725488D01*
G54D19*
X199231Y725488D02*
X196850Y718344D01*
X189706Y738981D01*
G54D17*
X1457946Y696888D02*
X1463502Y696888D01*
X1467470Y700062D01*
X1467470Y703237D01*
X1463502Y706412D01*
X1457946Y706412D01*
X1453977Y703238D01*
X1453977Y700062D01*
X1457946Y696888D01*
G54D17*
X1467305Y713295D02*
X1453811Y713295D01*
X1453811Y722027D01*
G54D17*
X1437142Y631539D02*
X1437142Y640270D01*
G54D17*
X1437142Y635508D02*
X1423648Y635508D01*
G54D17*
X1467305Y754570D02*
X1467305Y746633D01*
X1453811Y746633D01*
X1453811Y754570D01*
G54D17*
X1460955Y746633D02*
X1460954Y752983D01*
G54D17*
X1455398Y680752D02*
X1453811Y683133D01*
X1453811Y687102D01*
X1456192Y689483D01*
X1458573Y689483D01*
X1460161Y687102D01*
X1460954Y683133D01*
X1462542Y680752D01*
X1464923Y680752D01*
X1467304Y683133D01*
X1467305Y687102D01*
X1465717Y689483D01*
G54D17*
X1453356Y729456D02*
X1467644Y729456D01*
X1467644Y734219D01*
X1463675Y738981D01*
X1457325Y738981D01*
X1453356Y735012D01*
X1453356Y729456D01*
G54D17*
X1453356Y762000D02*
X1467644Y762000D01*
X1467644Y769938D01*
X1466056Y772319D01*
X1463675Y772319D01*
X1461294Y769938D01*
X1461294Y762794D01*
X1461294Y767556D01*
X1453356Y773112D01*
G54D17*
X954088Y451644D02*
X952500Y438944D01*
X947738Y438944D01*
X946150Y451644D01*
G54D17*
X953294Y446088D02*
X946944Y446088D01*
G54D17*
X933450Y439738D02*
X941388Y439738D01*
X933450Y451644D01*
G54D17*
X924719Y451644D02*
X924719Y439738D01*
X922338Y442119D01*
G54D17*
X908050Y439738D02*
X915194Y439738D01*
X912812Y442119D01*
X912812Y443706D01*
X915194Y445294D01*
X915988Y446088D01*
X915988Y449262D01*
X913606Y451644D01*
X909638Y451644D01*
X908050Y450056D01*
G54D17*
X882650Y446088D02*
X890588Y446088D01*
G54D17*
X869156Y451644D02*
X869156Y439738D01*
X874712Y439738D01*
X876300Y441325D01*
X876300Y445294D01*
X870744Y445294D01*
X874712Y445294D01*
X877094Y448469D01*
X877094Y450056D01*
X875506Y451644D01*
X869950Y451644D01*
G54D17*
X864394Y450056D02*
X862806Y451644D01*
X858838Y451644D01*
X857250Y448469D01*
X857250Y442912D01*
X858838Y439738D01*
X862806Y439738D01*
X864394Y441325D01*
G54D17*
X843756Y451644D02*
X843756Y439738D01*
X849312Y439738D01*
X851694Y441325D01*
X851694Y444500D01*
X850106Y446088D01*
X845344Y446088D01*
G54D17*
X922338Y458788D02*
X927100Y458788D01*
X928688Y462756D01*
X928688Y467519D01*
X927100Y471488D01*
X922338Y471488D01*
X920750Y467519D01*
X920750Y462756D01*
X922338Y458788D01*
G54D17*
X896938Y439738D02*
X901700Y439738D01*
X903288Y442912D01*
X903288Y448469D01*
X901700Y451644D01*
X896938Y451644D01*
X895350Y448469D01*
X895350Y442912D01*
X896938Y439738D01*
G54D17*
X877094Y488156D02*
X875506Y489744D01*
X871538Y489744D01*
X869950Y486569D01*
X869950Y481012D01*
X871538Y477838D01*
X875506Y477838D01*
X877094Y479425D01*
G54D17*
X908050Y462756D02*
X915988Y466725D01*
X915988Y469900D01*
X914400Y471488D01*
X909638Y471488D01*
X908050Y469900D01*
X908050Y466725D01*
X915988Y462756D01*
X915988Y459581D01*
X914400Y457994D01*
X909638Y457994D01*
X908050Y459581D01*
X908050Y462756D01*
G54D17*
X899319Y490538D02*
X899319Y477044D01*
X896938Y479425D01*
G54D17*
X884238Y477838D02*
X886619Y481806D01*
X886619Y485775D01*
X884238Y489744D01*
G54D17*
X863229Y489454D02*
X860848Y485485D01*
X860848Y481517D01*
X863229Y477548D01*
G54D17*
X903288Y458788D02*
X895350Y458788D01*
G54D17*
X899319Y458788D02*
X899319Y470694D01*
G54D17*
X881856Y457994D02*
X890588Y457994D01*
X890588Y468312D01*
X889000Y470694D01*
X884238Y470694D01*
X881856Y468312D01*
G54D17*
X869156Y469900D02*
X871538Y471488D01*
X875506Y471488D01*
X877888Y469106D01*
X877888Y466725D01*
X875506Y465138D01*
X871538Y464344D01*
X869156Y462756D01*
X869156Y460375D01*
X871538Y457994D01*
X875506Y457994D01*
X877888Y459581D01*
G54D17*
X908050Y490538D02*
X911225Y489744D01*
X915988Y485775D01*
X915988Y479425D01*
X913606Y477044D01*
X909638Y477044D01*
X907256Y479425D01*
X907256Y482600D01*
X909638Y484188D01*
X915988Y484188D01*
G54D17*
X933450Y490538D02*
X936625Y489744D01*
X941388Y485775D01*
X941388Y479425D01*
X939006Y477044D01*
X935038Y477044D01*
X932656Y479425D01*
X932656Y482600D01*
X935038Y484188D01*
X941388Y484188D01*
G54D17*
X920750Y481806D02*
X928688Y485775D01*
X928688Y488950D01*
X927100Y490538D01*
X922338Y490538D01*
X920750Y488950D01*
X920750Y485775D01*
X928688Y481806D01*
X928688Y478631D01*
X927100Y477044D01*
X922338Y477044D01*
X920750Y478631D01*
X920750Y481806D01*
G54D20*
X200049Y476345D02*
X198183Y477123D01*
X197249Y478678D01*
X197249Y486456D01*
X198183Y488011D01*
X200049Y488789D01*
G54D20*
X211872Y486456D02*
X210939Y488011D01*
X209072Y488789D01*
X207205Y488789D01*
X205339Y488011D01*
X204405Y486456D01*
X204405Y478678D01*
X205339Y477123D01*
X207205Y476345D01*
X209072Y476345D01*
X210939Y477123D01*
X211872Y478678D01*
G54D20*
X216228Y476345D02*
X218095Y477123D01*
X219028Y478678D01*
X219028Y486456D01*
X218095Y488011D01*
X216228Y488789D01*
G54D20*
X227927Y481011D02*
X232594Y476345D01*
X232594Y488789D01*
G54D20*
X236950Y486456D02*
X237884Y488011D01*
X239750Y488789D01*
X241617Y488789D01*
X243484Y488011D01*
X244417Y486456D01*
X244417Y482567D01*
X244417Y481789D01*
X241617Y483345D01*
X239750Y483345D01*
X237884Y482567D01*
X236950Y481011D01*
X236950Y478678D01*
X237884Y477123D01*
X239750Y476345D01*
X241617Y476345D01*
X243484Y477123D01*
X244417Y478678D01*
X244417Y482567D01*
G54D20*
X253440Y482567D02*
X251573Y482567D01*
X249707Y481789D01*
X248773Y480234D01*
X248773Y478678D01*
X249707Y477123D01*
X251573Y476345D01*
X253440Y476345D01*
X255307Y477123D01*
X256240Y478678D01*
X256240Y480234D01*
X255307Y481789D01*
X253440Y482567D01*
X255307Y483345D01*
X256240Y484900D01*
X256240Y486456D01*
X255307Y488011D01*
X253440Y488789D01*
X251573Y488789D01*
X249707Y488011D01*
X248773Y486456D01*
X248773Y484900D01*
X249707Y483345D01*
X251573Y482567D01*
G54D20*
X260596Y486456D02*
X261530Y488011D01*
X263396Y488789D01*
X265263Y488789D01*
X267130Y488011D01*
X268063Y486456D01*
X268063Y482567D01*
X268063Y481789D01*
X265263Y483345D01*
X263396Y483345D01*
X261530Y482567D01*
X260596Y481011D01*
X260596Y478678D01*
X261530Y477123D01*
X263396Y476345D01*
X265263Y476345D01*
X267130Y477123D01*
X268063Y478678D01*
X268063Y482567D01*
G54D20*
X280696Y482567D02*
X283496Y484123D01*
X284429Y485678D01*
X284429Y488789D01*
G54D20*
X276962Y488789D02*
X276962Y476345D01*
X281629Y476345D01*
X283496Y477123D01*
X284429Y478678D01*
X284429Y480234D01*
X283496Y481789D01*
X281629Y482567D01*
X276962Y482567D01*
G54D20*
X288785Y488789D02*
X288785Y476345D01*
G54D20*
X293141Y486456D02*
X294075Y488011D01*
X295941Y488789D01*
X297808Y488789D01*
X299675Y488011D01*
X300608Y486456D01*
X300608Y484900D01*
X299675Y483345D01*
X297808Y482567D01*
X295941Y482567D01*
X294075Y481789D01*
X293141Y480234D01*
X293141Y478678D01*
X294075Y477123D01*
X295941Y476345D01*
X297808Y476345D01*
X299675Y477123D01*
X300608Y478678D01*
G54D20*
X304964Y488789D02*
X304964Y476345D01*
G54D20*
X304964Y484900D02*
X312431Y476345D01*
G54D20*
X307764Y482567D02*
X312431Y488789D01*
G54D20*
X316787Y488789D02*
X321454Y476345D01*
X326121Y488789D01*
G54D20*
X318654Y484123D02*
X324254Y484123D01*
G54D20*
X335019Y488789D02*
X335019Y476345D01*
X339686Y476345D01*
X341553Y477123D01*
X342486Y478678D01*
X342486Y480234D01*
X341553Y481789D01*
X339686Y482567D01*
X341553Y483345D01*
X342486Y484900D01*
X342486Y486456D01*
X341553Y488011D01*
X339686Y488789D01*
X335019Y488789D01*
G54D20*
X335019Y482567D02*
X339686Y482567D01*
G54D20*
X346842Y476345D02*
X351509Y488789D01*
X356176Y476345D01*
G54D20*
X360531Y488789D02*
X360531Y488789D01*
G54D20*
X201218Y507839D02*
X201218Y495395D01*
X205885Y503173D01*
X210551Y495395D01*
X210551Y507839D01*
G54D20*
X214907Y507839D02*
X219574Y495395D01*
X224240Y507839D01*
G54D20*
X216774Y503173D02*
X222374Y503173D01*
G54D20*
X228596Y507839D02*
X228596Y495395D01*
X233263Y495395D01*
X235129Y496173D01*
X236063Y497728D01*
X236063Y505506D01*
X235129Y507061D01*
X233263Y507839D01*
X228596Y507839D01*
G54D20*
X246952Y507839D02*
X240419Y507839D01*
X240419Y495395D01*
X246952Y495395D01*
G54D20*
X240419Y501617D02*
X246952Y501617D01*
G54D20*
X255851Y507839D02*
X255851Y495395D01*
G54D20*
X260207Y507839D02*
X260207Y495395D01*
X267674Y507839D01*
X267674Y495395D01*
G54D20*
X276573Y507839D02*
X276573Y495395D01*
G54D20*
X284040Y507839D02*
X284040Y495395D01*
G54D20*
X276573Y501617D02*
X284040Y501617D01*
G54D20*
X295863Y497728D02*
X295863Y505506D01*
X294929Y507061D01*
X293063Y507839D01*
X291196Y507839D01*
X289329Y507061D01*
X288396Y505506D01*
X288396Y497728D01*
X289329Y496173D01*
X291196Y495395D01*
X293063Y495395D01*
X294929Y496173D01*
X295863Y497728D01*
G54D20*
X300219Y495395D02*
X300219Y507839D01*
X306752Y507839D01*
G54D20*
X311108Y495395D02*
X311108Y507839D01*
X317641Y507839D01*
G54D20*
X321997Y507839D02*
X326664Y495395D01*
X331330Y507839D01*
G54D20*
X323864Y503173D02*
X329464Y503173D01*
G54D20*
X335686Y507839D02*
X335686Y495395D01*
X343153Y507839D01*
X343153Y495395D01*
G54D20*
X347509Y507839D02*
X347509Y495395D01*
X352176Y495395D01*
X354042Y496173D01*
X354976Y497728D01*
X354976Y505506D01*
X354042Y507061D01*
X352176Y507839D01*
X347509Y507839D01*
G54D20*
X183756Y526889D02*
X188422Y514445D01*
X193089Y526889D01*
G54D20*
X185622Y522223D02*
X191222Y522223D01*
G54D20*
X197444Y514445D02*
X197444Y526889D01*
X203978Y526889D01*
G54D20*
X208334Y514445D02*
X208334Y526889D01*
X214867Y526889D01*
G54D20*
X227499Y520667D02*
X230299Y522223D01*
X231232Y523778D01*
X231232Y526889D01*
G54D20*
X223766Y526889D02*
X223766Y514445D01*
X228432Y514445D01*
X230299Y515223D01*
X231232Y516778D01*
X231232Y518334D01*
X230299Y519889D01*
X228432Y520667D01*
X223766Y520667D01*
G54D20*
X235588Y526889D02*
X235588Y514445D01*
G54D20*
X243678Y520667D02*
X247411Y520667D01*
X247411Y524556D01*
X246478Y526111D01*
X244611Y526889D01*
X242744Y526889D01*
X240878Y526111D01*
X239944Y524556D01*
X239944Y516778D01*
X240878Y515223D01*
X242744Y514445D01*
X244611Y514445D01*
X246478Y515223D01*
X247411Y516778D01*
G54D20*
X251768Y526889D02*
X251768Y514445D01*
G54D20*
X259234Y526889D02*
X259234Y514445D01*
G54D20*
X251768Y520667D02*
X259234Y520667D01*
G54D20*
X267324Y526889D02*
X267324Y514445D01*
G54D20*
X263590Y514445D02*
X271057Y514445D01*
G54D20*
X275414Y524556D02*
X276347Y526111D01*
X278214Y526889D01*
X280080Y526889D01*
X281947Y526111D01*
X282880Y524556D01*
X282880Y523000D01*
X281947Y521445D01*
X280080Y520667D01*
X278214Y520667D01*
X276347Y519889D01*
X275414Y518334D01*
X275414Y516778D01*
X276347Y515223D01*
X278214Y514445D01*
X280080Y514445D01*
X281947Y515223D01*
X282880Y516778D01*
G54D20*
X295513Y520667D02*
X298313Y522223D01*
X299246Y523778D01*
X299246Y526889D01*
G54D20*
X291780Y526889D02*
X291780Y514445D01*
X296446Y514445D01*
X298313Y515223D01*
X299246Y516778D01*
X299246Y518334D01*
X298313Y519889D01*
X296446Y520667D01*
X291780Y520667D01*
G54D20*
X310136Y526889D02*
X303602Y526889D01*
X303602Y514445D01*
X310136Y514445D01*
G54D20*
X303602Y520667D02*
X310136Y520667D01*
G54D20*
X314492Y524556D02*
X315425Y526111D01*
X317292Y526889D01*
X319158Y526889D01*
X321025Y526111D01*
X321958Y524556D01*
X321958Y523000D01*
X321025Y521445D01*
X319158Y520667D01*
X317292Y520667D01*
X315425Y519889D01*
X314492Y518334D01*
X314492Y516778D01*
X315425Y515223D01*
X317292Y514445D01*
X319158Y514445D01*
X321025Y515223D01*
X321958Y516778D01*
G54D20*
X332848Y526889D02*
X326314Y526889D01*
X326314Y514445D01*
X332848Y514445D01*
G54D20*
X326314Y520667D02*
X332848Y520667D01*
G54D20*
X340937Y520667D02*
X343737Y522223D01*
X344670Y523778D01*
X344670Y526889D01*
G54D20*
X337204Y526889D02*
X337204Y514445D01*
X341870Y514445D01*
X343737Y515223D01*
X344670Y516778D01*
X344670Y518334D01*
X343737Y519889D01*
X341870Y520667D01*
X337204Y520667D01*
G54D20*
X349026Y514445D02*
X353693Y526889D01*
X358360Y514445D01*
G54D20*
X369249Y526889D02*
X362716Y526889D01*
X362716Y514445D01*
X369249Y514445D01*
G54D20*
X362716Y520667D02*
X369249Y520667D01*
G54D20*
X373604Y526889D02*
X373604Y514445D01*
X378271Y514445D01*
X380138Y515223D01*
X381071Y516778D01*
X381071Y524556D01*
X380138Y526111D01*
X378271Y526889D01*
X373604Y526889D01*
M02*
