%FSLAX34Y34*%
%MOMM*%
%LNSOLDERMASK_BOTTOM*%
G71*
G01*
%ADD10C,2.160*%
%ADD11C,2.700*%
%ADD12C,1.600*%
%ADD13R,8.000X1.800*%
%LPD*%
X279400Y939800D02*
G54D10*
D03*
X279400Y965200D02*
G54D10*
D03*
X279400Y914400D02*
G54D10*
D03*
X279400Y889000D02*
G54D10*
D03*
X279400Y863600D02*
G54D10*
D03*
X279400Y838200D02*
G54D10*
D03*
X279400Y812800D02*
G54D10*
D03*
X279400Y787400D02*
G54D10*
D03*
X355600Y939800D02*
G54D10*
D03*
X355600Y965200D02*
G54D10*
D03*
X355600Y914400D02*
G54D10*
D03*
X355600Y889000D02*
G54D10*
D03*
X355600Y863600D02*
G54D10*
D03*
X355600Y838200D02*
G54D10*
D03*
X355600Y812800D02*
G54D10*
D03*
X355600Y787400D02*
G54D10*
D03*
X546100Y939800D02*
G54D10*
D03*
X546100Y965200D02*
G54D10*
D03*
X546100Y914400D02*
G54D10*
D03*
X546100Y889000D02*
G54D10*
D03*
X546100Y863600D02*
G54D10*
D03*
X546100Y838200D02*
G54D10*
D03*
X546100Y812800D02*
G54D10*
D03*
X622300Y939800D02*
G54D10*
D03*
X622300Y965200D02*
G54D10*
D03*
X622300Y914400D02*
G54D10*
D03*
X622300Y889000D02*
G54D10*
D03*
X622300Y863600D02*
G54D10*
D03*
X622300Y838200D02*
G54D10*
D03*
X622300Y812800D02*
G54D10*
D03*
X863600Y939800D02*
G54D10*
D03*
X863600Y965200D02*
G54D10*
D03*
X863600Y914400D02*
G54D10*
D03*
X863600Y889000D02*
G54D10*
D03*
X863600Y863600D02*
G54D10*
D03*
X863600Y838200D02*
G54D10*
D03*
X863600Y812800D02*
G54D10*
D03*
X939800Y939800D02*
G54D10*
D03*
X939800Y965200D02*
G54D10*
D03*
X939800Y914400D02*
G54D10*
D03*
X939800Y889000D02*
G54D10*
D03*
X939800Y863600D02*
G54D10*
D03*
X939800Y838200D02*
G54D10*
D03*
X939800Y812800D02*
G54D10*
D03*
X692150Y939800D02*
G54D10*
D03*
X692150Y965200D02*
G54D10*
D03*
X692150Y914400D02*
G54D10*
D03*
X692150Y889000D02*
G54D10*
D03*
X692150Y863600D02*
G54D10*
D03*
X692150Y838200D02*
G54D10*
D03*
X692150Y812800D02*
G54D10*
D03*
X768350Y939800D02*
G54D10*
D03*
X768350Y965200D02*
G54D10*
D03*
X768350Y914400D02*
G54D10*
D03*
X768350Y889000D02*
G54D10*
D03*
X768350Y863600D02*
G54D10*
D03*
X768350Y838200D02*
G54D10*
D03*
X768350Y812800D02*
G54D10*
D03*
X393700Y762000D02*
G54D10*
D03*
X393700Y736600D02*
G54D10*
D03*
X393700Y711200D02*
G54D10*
D03*
X393700Y685800D02*
G54D10*
D03*
X393700Y660400D02*
G54D10*
D03*
X393700Y635000D02*
G54D10*
D03*
X393700Y609600D02*
G54D10*
D03*
X393700Y584200D02*
G54D10*
D03*
X393700Y558800D02*
G54D10*
D03*
X393700Y533400D02*
G54D10*
D03*
X393700Y508000D02*
G54D10*
D03*
X393700Y482600D02*
G54D10*
D03*
X393700Y457200D02*
G54D10*
D03*
X393700Y431800D02*
G54D10*
D03*
X546100Y762000D02*
G54D10*
D03*
X546100Y736600D02*
G54D10*
D03*
X546100Y711200D02*
G54D10*
D03*
X546100Y685800D02*
G54D10*
D03*
X546100Y660400D02*
G54D10*
D03*
X546100Y635000D02*
G54D10*
D03*
X546100Y609600D02*
G54D10*
D03*
X546100Y584200D02*
G54D10*
D03*
X546100Y558800D02*
G54D10*
D03*
X546100Y533400D02*
G54D10*
D03*
X546100Y508000D02*
G54D10*
D03*
X546100Y482600D02*
G54D10*
D03*
X546100Y457200D02*
G54D10*
D03*
X546100Y431800D02*
G54D10*
D03*
X584200Y723900D02*
G54D10*
D03*
X584200Y698500D02*
G54D10*
D03*
X584200Y673100D02*
G54D10*
D03*
X584200Y647700D02*
G54D10*
D03*
X584200Y622300D02*
G54D10*
D03*
X584200Y596900D02*
G54D10*
D03*
X584200Y571500D02*
G54D10*
D03*
X584200Y546100D02*
G54D10*
D03*
X584200Y520700D02*
G54D10*
D03*
X584200Y495300D02*
G54D10*
D03*
X660400Y723900D02*
G54D10*
D03*
X660400Y698500D02*
G54D10*
D03*
X660400Y673100D02*
G54D10*
D03*
X660400Y647700D02*
G54D10*
D03*
X660400Y622300D02*
G54D10*
D03*
X660400Y596900D02*
G54D10*
D03*
X660400Y571500D02*
G54D10*
D03*
X660400Y546100D02*
G54D10*
D03*
X660400Y520700D02*
G54D10*
D03*
X660400Y495300D02*
G54D10*
D03*
X679450Y723900D02*
G54D10*
D03*
X679450Y698500D02*
G54D10*
D03*
X679450Y673100D02*
G54D10*
D03*
X679450Y647700D02*
G54D10*
D03*
X679450Y622300D02*
G54D10*
D03*
X679450Y596900D02*
G54D10*
D03*
X679450Y571500D02*
G54D10*
D03*
X679450Y546100D02*
G54D10*
D03*
X679450Y520700D02*
G54D10*
D03*
X679450Y495300D02*
G54D10*
D03*
X755650Y723900D02*
G54D10*
D03*
X755650Y698500D02*
G54D10*
D03*
X755650Y673100D02*
G54D10*
D03*
X755650Y647700D02*
G54D10*
D03*
X755650Y622300D02*
G54D10*
D03*
X755650Y596900D02*
G54D10*
D03*
X755650Y571500D02*
G54D10*
D03*
X755650Y546100D02*
G54D10*
D03*
X755650Y520700D02*
G54D10*
D03*
X755650Y495300D02*
G54D10*
D03*
X819150Y774700D02*
G54D10*
D03*
X819150Y749300D02*
G54D10*
D03*
X819150Y723900D02*
G54D10*
D03*
X819150Y698500D02*
G54D10*
D03*
X819150Y673100D02*
G54D10*
D03*
X819150Y647700D02*
G54D10*
D03*
X819150Y622300D02*
G54D10*
D03*
X819150Y596900D02*
G54D10*
D03*
X819150Y571500D02*
G54D10*
D03*
X819150Y546100D02*
G54D10*
D03*
X819150Y520700D02*
G54D10*
D03*
X819150Y495300D02*
G54D10*
D03*
X819150Y469900D02*
G54D10*
D03*
X819150Y444500D02*
G54D10*
D03*
X971550Y774700D02*
G54D10*
D03*
X971550Y749300D02*
G54D10*
D03*
X971550Y723900D02*
G54D10*
D03*
X971550Y698500D02*
G54D10*
D03*
X971550Y673100D02*
G54D10*
D03*
X971550Y647700D02*
G54D10*
D03*
X971550Y622300D02*
G54D10*
D03*
X971550Y596900D02*
G54D10*
D03*
X971550Y571500D02*
G54D10*
D03*
X971550Y546100D02*
G54D10*
D03*
X971550Y520700D02*
G54D10*
D03*
X971550Y495300D02*
G54D10*
D03*
X971550Y469900D02*
G54D10*
D03*
X971550Y444500D02*
G54D10*
D03*
X1003300Y774700D02*
G54D10*
D03*
X1003300Y749300D02*
G54D10*
D03*
X1003300Y723900D02*
G54D10*
D03*
X1003300Y698500D02*
G54D10*
D03*
X1003300Y673100D02*
G54D10*
D03*
X1003300Y647700D02*
G54D10*
D03*
X1003300Y622300D02*
G54D10*
D03*
X1003300Y596900D02*
G54D10*
D03*
X1003300Y571500D02*
G54D10*
D03*
X1003300Y546100D02*
G54D10*
D03*
X1003300Y520700D02*
G54D10*
D03*
X1003300Y495300D02*
G54D10*
D03*
X1003300Y469900D02*
G54D10*
D03*
X1003300Y444500D02*
G54D10*
D03*
X1155700Y774700D02*
G54D10*
D03*
X1155700Y749300D02*
G54D10*
D03*
X1155700Y723900D02*
G54D10*
D03*
X1155700Y698500D02*
G54D10*
D03*
X1155700Y673100D02*
G54D10*
D03*
X1155700Y647700D02*
G54D10*
D03*
X1155700Y622300D02*
G54D10*
D03*
X1155700Y596900D02*
G54D10*
D03*
X1155700Y571500D02*
G54D10*
D03*
X1155700Y546100D02*
G54D10*
D03*
X1155700Y520700D02*
G54D10*
D03*
X1155700Y495300D02*
G54D10*
D03*
X1155700Y469900D02*
G54D10*
D03*
X1155700Y444500D02*
G54D10*
D03*
X1066800Y939800D02*
G54D10*
D03*
X1066800Y965200D02*
G54D10*
D03*
X1066800Y914400D02*
G54D10*
D03*
X1066800Y889000D02*
G54D10*
D03*
X1066800Y863600D02*
G54D10*
D03*
X1066800Y838200D02*
G54D10*
D03*
X1066800Y812800D02*
G54D10*
D03*
X1143000Y939800D02*
G54D10*
D03*
X1143000Y965200D02*
G54D10*
D03*
X1143000Y914400D02*
G54D10*
D03*
X1143000Y889000D02*
G54D10*
D03*
X1143000Y863600D02*
G54D10*
D03*
X1143000Y838200D02*
G54D10*
D03*
X1143000Y812800D02*
G54D10*
D03*
X1193800Y914400D02*
G54D10*
D03*
X1193800Y889000D02*
G54D10*
D03*
X1193800Y863600D02*
G54D10*
D03*
X1193800Y838200D02*
G54D10*
D03*
X1193800Y812800D02*
G54D10*
D03*
X1193800Y787400D02*
G54D10*
D03*
X1193800Y762000D02*
G54D10*
D03*
X1193800Y736600D02*
G54D10*
D03*
X1193800Y711200D02*
G54D10*
D03*
X1193800Y685800D02*
G54D10*
D03*
X1193800Y660400D02*
G54D10*
D03*
X1193800Y635000D02*
G54D10*
D03*
X1193800Y609600D02*
G54D10*
D03*
X1193800Y584200D02*
G54D10*
D03*
X1346200Y914400D02*
G54D10*
D03*
X1346200Y889000D02*
G54D10*
D03*
X1346200Y863600D02*
G54D10*
D03*
X1346200Y838200D02*
G54D10*
D03*
X1346200Y812800D02*
G54D10*
D03*
X1346200Y787400D02*
G54D10*
D03*
X1346200Y762000D02*
G54D10*
D03*
X1346200Y736600D02*
G54D10*
D03*
X1346200Y711200D02*
G54D10*
D03*
X1346200Y685800D02*
G54D10*
D03*
X1346200Y660400D02*
G54D10*
D03*
X1346200Y635000D02*
G54D10*
D03*
X1346200Y609600D02*
G54D10*
D03*
X1346200Y584200D02*
G54D10*
D03*
X1193800Y558800D02*
G54D10*
D03*
X1193800Y533400D02*
G54D10*
D03*
X1193800Y508000D02*
G54D10*
D03*
X1193800Y482600D02*
G54D10*
D03*
X1193800Y457200D02*
G54D10*
D03*
X1193800Y431800D02*
G54D10*
D03*
X1346200Y558800D02*
G54D10*
D03*
X1346200Y533400D02*
G54D10*
D03*
X1346200Y508000D02*
G54D10*
D03*
X1346200Y482600D02*
G54D10*
D03*
X1346200Y457200D02*
G54D10*
D03*
X1346200Y431800D02*
G54D10*
D03*
X1384300Y584200D02*
G54D10*
D03*
X1384300Y558800D02*
G54D10*
D03*
X1384300Y533400D02*
G54D10*
D03*
X1384300Y508000D02*
G54D10*
D03*
X1384300Y482600D02*
G54D10*
D03*
X1384300Y457200D02*
G54D10*
D03*
X1384300Y431800D02*
G54D10*
D03*
X1460500Y584200D02*
G54D10*
D03*
X1460500Y558800D02*
G54D10*
D03*
X1460500Y533400D02*
G54D10*
D03*
X1460500Y508000D02*
G54D10*
D03*
X1460500Y482600D02*
G54D10*
D03*
X1460500Y457200D02*
G54D10*
D03*
X1460500Y431800D02*
G54D10*
D03*
X165100Y889000D02*
G54D10*
D03*
X190500Y889000D02*
G54D10*
D03*
X215900Y889000D02*
G54D10*
D03*
X241300Y889000D02*
G54D10*
D03*
X165100Y787400D02*
G54D10*
D03*
X190500Y787400D02*
G54D10*
D03*
X215900Y787400D02*
G54D10*
D03*
X241300Y787400D02*
G54D10*
D03*
X438150Y863600D02*
G54D10*
D03*
X438150Y838200D02*
G54D10*
D03*
X438150Y812800D02*
G54D10*
D03*
X488950Y812800D02*
G54D10*
D03*
X488950Y838200D02*
G54D10*
D03*
X488950Y863600D02*
G54D10*
D03*
X654050Y965200D02*
G54D10*
D03*
X654050Y863600D02*
G54D10*
D03*
X831850Y965200D02*
G54D10*
D03*
X831850Y863600D02*
G54D10*
D03*
X977900Y965200D02*
G54D10*
D03*
X1022350Y965200D02*
G54D10*
D03*
X977900Y914400D02*
G54D10*
D03*
X977900Y876300D02*
G54D10*
D03*
X1022350Y863600D02*
G54D10*
D03*
X977900Y825500D02*
G54D10*
D03*
X717550Y774700D02*
G54D10*
D03*
X717550Y749300D02*
G54D10*
D03*
X768350Y774700D02*
G54D10*
D03*
X768350Y749300D02*
G54D10*
D03*
X787400Y723900D02*
G54D10*
D03*
X787400Y596900D02*
G54D10*
D03*
X793750Y571500D02*
G54D10*
D03*
X1244600Y952500D02*
G54D10*
D03*
X1295400Y952500D02*
G54D10*
D03*
X1422400Y774700D02*
G54D10*
D03*
X1384300Y698500D02*
G54D10*
D03*
X1384300Y673100D02*
G54D10*
D03*
X1422400Y673100D02*
G54D10*
D03*
X1435100Y635000D02*
G54D10*
D03*
X1384300Y635000D02*
G54D10*
D03*
X793750Y520700D02*
G54D10*
D03*
X787400Y476250D02*
G54D10*
D03*
X787400Y450850D02*
G54D10*
D03*
X787400Y425450D02*
G54D10*
D03*
X704850Y425450D02*
G54D10*
D03*
X704850Y450850D02*
G54D10*
D03*
X704850Y476250D02*
G54D10*
D03*
X660400Y431800D02*
G54D10*
D03*
X635000Y431800D02*
G54D10*
D03*
X609600Y431800D02*
G54D10*
D03*
X584200Y431800D02*
G54D10*
D03*
X1416050Y857250D02*
G54D11*
D03*
X1377950Y844550D02*
G54D11*
D03*
X1441450Y831850D02*
G54D11*
D03*
X1403350Y819150D02*
G54D11*
D03*
X190500Y914400D02*
G54D12*
D03*
X215900Y914400D02*
G54D12*
D03*
X260350Y914400D02*
G54D12*
D03*
X107950Y889000D02*
G54D12*
D03*
X107950Y965200D02*
G54D12*
D03*
X304800Y939800D02*
G54D12*
D03*
X317500Y901700D02*
G54D12*
D03*
X107950Y850900D02*
G54D12*
D03*
X203200Y812800D02*
G54D12*
D03*
X120650Y749300D02*
G54D12*
D03*
X133350Y736600D02*
G54D12*
D03*
X120650Y685800D02*
G54D12*
D03*
X146050Y685800D02*
G54D12*
D03*
X254000Y685800D02*
G54D12*
D03*
X107950Y647700D02*
G54D12*
D03*
X158750Y660400D02*
G54D12*
D03*
X368300Y673100D02*
G54D12*
D03*
X488950Y698500D02*
G54D12*
D03*
X514350Y723900D02*
G54D12*
D03*
X488950Y762000D02*
G54D12*
D03*
X469900Y781050D02*
G54D12*
D03*
X463550Y800100D02*
G54D12*
D03*
X520700Y800100D02*
G54D12*
D03*
X558800Y698500D02*
G54D12*
D03*
X527050Y660400D02*
G54D12*
D03*
X501650Y673100D02*
G54D12*
D03*
X469900Y609600D02*
G54D12*
D03*
X450850Y622300D02*
G54D12*
D03*
X412750Y635000D02*
G54D12*
D03*
X438150Y596900D02*
G54D12*
D03*
X438150Y571500D02*
G54D12*
D03*
X488950Y584200D02*
G54D12*
D03*
X514350Y558800D02*
G54D12*
D03*
X527050Y546100D02*
G54D12*
D03*
X450850Y546100D02*
G54D12*
D03*
X501650Y533400D02*
G54D12*
D03*
X488950Y520700D02*
G54D12*
D03*
X425450Y508000D02*
G54D12*
D03*
X438150Y482600D02*
G54D12*
D03*
X425450Y444500D02*
G54D12*
D03*
X469900Y431800D02*
G54D12*
D03*
X647700Y508000D02*
G54D12*
D03*
X558800Y596900D02*
G54D12*
D03*
X635000Y596900D02*
G54D12*
D03*
X641350Y622300D02*
G54D12*
D03*
X622300Y635000D02*
G54D12*
D03*
X704850Y520700D02*
G54D12*
D03*
X704850Y558800D02*
G54D12*
D03*
X704850Y596900D02*
G54D12*
D03*
X704850Y622300D02*
G54D12*
D03*
X717550Y635000D02*
G54D12*
D03*
X717550Y673100D02*
G54D12*
D03*
X704850Y685800D02*
G54D12*
D03*
X717550Y711200D02*
G54D12*
D03*
X749300Y774700D02*
G54D12*
D03*
X869950Y762000D02*
G54D12*
D03*
X889000Y774700D02*
G54D12*
D03*
X939800Y647700D02*
G54D12*
D03*
X927100Y673100D02*
G54D12*
D03*
X869950Y660400D02*
G54D12*
D03*
X844550Y635000D02*
G54D12*
D03*
X889000Y596900D02*
G54D12*
D03*
X857250Y558800D02*
G54D12*
D03*
X603250Y793750D02*
G54D12*
D03*
X609600Y825500D02*
G54D12*
D03*
X107950Y431800D02*
G54D12*
D03*
X330200Y927100D02*
G54D12*
D03*
X336550Y952500D02*
G54D12*
D03*
X374650Y965200D02*
G54D12*
D03*
X381000Y863600D02*
G54D12*
D03*
X406400Y863600D02*
G54D12*
D03*
X419100Y901700D02*
G54D12*
D03*
X508000Y889000D02*
G54D12*
D03*
X577850Y889000D02*
G54D12*
D03*
X781050Y927100D02*
G54D12*
D03*
X889000Y838200D02*
G54D12*
D03*
X1022350Y939800D02*
G54D12*
D03*
X1041400Y927100D02*
G54D12*
D03*
X1009650Y901700D02*
G54D12*
D03*
X952500Y850900D02*
G54D12*
D03*
X1003300Y838200D02*
G54D12*
D03*
X1098550Y793750D02*
G54D12*
D03*
X1130300Y901700D02*
G54D12*
D03*
X1174750Y952500D02*
G54D12*
D03*
X1377950Y946150D02*
G54D12*
D03*
X1295400Y889000D02*
G54D12*
D03*
X1244600Y838200D02*
G54D12*
D03*
X1263650Y812800D02*
G54D12*
D03*
X1308100Y825500D02*
G54D12*
D03*
X1289050Y800100D02*
G54D12*
D03*
X1168400Y793750D02*
G54D12*
D03*
X1371600Y812800D02*
G54D12*
D03*
X1301750Y749300D02*
G54D12*
D03*
X1289050Y723900D02*
G54D12*
D03*
X1225550Y762000D02*
G54D12*
D03*
X1225550Y685800D02*
G54D12*
D03*
X1276350Y628650D02*
G54D12*
D03*
X1047750Y647700D02*
G54D12*
D03*
X1085850Y609600D02*
G54D12*
D03*
X1022350Y723900D02*
G54D12*
D03*
X1022350Y749300D02*
G54D12*
D03*
X958850Y584200D02*
G54D12*
D03*
X946150Y533400D02*
G54D12*
D03*
X1028700Y514350D02*
G54D12*
D03*
X1047750Y508000D02*
G54D12*
D03*
X1073150Y520700D02*
G54D12*
D03*
X1111250Y520700D02*
G54D12*
D03*
X1225550Y508000D02*
G54D12*
D03*
X1054100Y457200D02*
G54D12*
D03*
X1085850Y457200D02*
G54D12*
D03*
X1098550Y425450D02*
G54D12*
D03*
X1136650Y444500D02*
G54D12*
D03*
X1123950Y482600D02*
G54D12*
D03*
X1225550Y457200D02*
G54D12*
D03*
X47625Y968375D02*
G54D13*
D03*
X47625Y942975D02*
G54D13*
D03*
X47625Y917575D02*
G54D13*
D03*
X47625Y892175D02*
G54D13*
D03*
X47625Y866775D02*
G54D13*
D03*
X47625Y841375D02*
G54D13*
D03*
X47625Y815975D02*
G54D13*
D03*
X47625Y790575D02*
G54D13*
D03*
X47625Y765175D02*
G54D13*
D03*
X47625Y739775D02*
G54D13*
D03*
X47625Y714375D02*
G54D13*
D03*
X47625Y688975D02*
G54D13*
D03*
X47625Y663575D02*
G54D13*
D03*
X47625Y638175D02*
G54D13*
D03*
X47625Y612775D02*
G54D13*
D03*
X47625Y587375D02*
G54D13*
D03*
X47625Y561975D02*
G54D13*
D03*
X47625Y536575D02*
G54D13*
D03*
X47625Y511175D02*
G54D13*
D03*
X47625Y485775D02*
G54D13*
D03*
X47625Y460375D02*
G54D13*
D03*
X47625Y434975D02*
G54D13*
D03*
M02*
